<svg id="Livello_1" xmlns="http://www.w3.org/2000/svg" width="162" height="31"><style>.st0{fill:#fff}</style><path class="st0" d="M137.8 6.9c.9-.1 1.7.5 1.8 1.4v.3c.1.9-.5 1.7-1.4 1.8h-.4c-.9.1-1.7-.5-1.9-1.4v-.4c-.1-.9.6-1.7 1.5-1.8.1.1.3.1.4.1zm-45.3 7.9c-1.7 0-2.8 1.4-3.1 3.7l5.5-.1c-.2-2.2-.8-3.6-2.4-3.6zm-24.7.8c-1.4.1-2.7.6-3.7 1.6v5.2c0 3.8 2.6 5 4.2 5 2.2 0 3.4-2.1 3.4-5.8.1-4.1-1.6-6-3.9-6zm-17.5 0c-1.4.1-2.7.7-3.7 1.6v5.2c0 3.8 2.6 5 4.2 5 2.2 0 3.4-2.1 3.4-5.8 0-4.1-1.6-6-3.9-6zm-18.5-.9c-2 0-3.1 1.7-3.1 5 0 4.5 2 7.7 4.7 7.7 2 0 3.1-1.8 3.1-5.2 0-4.8-2.2-7.5-4.7-7.5zm125-11.8c.2 0 .5.2.5.4v21.6c0 1.8.4 2.3 1.9 2.3.1 0 .1.4 0 .4-.8 0-2-.1-3.3-.1-1.3 0-2.4.1-3.3.1-.1 0-.1-.4 0-.4 1.5 0 1.9-.5 1.9-2.3V7.4c0-1.6-.2-2.2-1-2.2-.5 0-.9.2-1.4.4-.2.1-.3-.3-.2-.4l4.8-2.2c0-.1 0-.1.1-.1zm-9 0c.2 0 .5.2.5.4v21.6c0 1.8.4 2.3 1.9 2.3.1 0 .1.4 0 .4-.9 0-2-.1-3.3-.1s-2.5.1-3.3.1c-.1 0-.1-.4 0-.4 1.5 0 1.9-.5 1.9-2.3V7.4c0-1.6-.2-2.2-1-2.2-.5 0-.9.2-1.4.4-.2.1-.3-.3-.2-.4l4.8-2.2c0-.1 0-.1.1-.1zm-66.2 0c.2 0 .5.2.5.4v21.6c0 1.8.4 2.3 1.9 2.3.1 0 .1.4 0 .4-.8 0-2-.1-3.3-.1-1.3 0-2.5.1-3.3.1-.1 0-.1-.4 0-.4 1.5 0 1.9-.5 1.9-2.3V7.4c0-1.6-.2-2.2-1-2.2-.5 0-.9.2-1.4.4-.2.1-.3-.3-.2-.4L81.5 3c0-.1 0-.1.1-.1zM132 6.3c.1 0 .1.4 0 .4-2.4 0-2.8.4-2.8 2.3v15.9c0 2 .4 2.3 2.8 2.3.1 0 .1.4 0 .4-1.2 0-2.8-.1-4.4-.1-2 0-3.4.1-4.5.1-.1 0-.1-.4 0-.4 2.5 0 2.9-.4 2.9-2.3V17h-11.7v7.9c0 2 .4 2.3 2.9 2.3.1 0 .1.4 0 .4-1.3 0-2.7-.1-4.6-.1-1.6 0-3.1.1-4.3.1-.1 0-.1-.4 0-.4 2.3 0 2.8-.4 2.8-2.3V9.1c0-1.9-.4-2.4-2.8-2.4-.1 0-.1-.4 0-.4 1.2 0 2.7.1 4.3.1 1.9 0 3.4-.1 4.6-.1.1 0 .1.4 0 .4-2.4 0-2.9.5-2.9 2.4v7H126v-7c0-1.9-.4-2.4-2.9-2.4-.1 0-.1-.4 0-.4 1.1 0 2.6.1 4.5.1 1.6 0 3.3-.1 4.4-.1zm7 7.8c.2 0 .4.2.4.4 0 .5-.1 1.7-.1 4v6.3c0 1.8.4 2.3 1.9 2.3.1 0 .1.4 0 .4-.9 0-2-.1-3.3-.1-1.3 0-2.4.1-3.3.1-.1 0-.1-.4 0-.4 1.5 0 1.9-.5 1.9-2.3v-6.2c0-1.5-.3-2.2-1-2.2-.5 0-.9.2-1.3.4-.2.1-.3-.3-.2-.4l5-2.3zM15.5 5.9c2.1-.1 4.2.3 6.1 1.1.3.2.4.3.4.8l.4 4.5c0 .1-.3.2-.4 0-1.2-3.7-3.5-5.7-7-5.7-5 0-8.6 3.9-8.6 10.3s3.8 10.5 8.9 10.5c3.4 0 5.4-1.7 7.1-5.5 0-.1.4-.1.4 0l-.5 4.1c-.1.5-.1.6-.5.7-2.1.8-4.3 1.3-6.5 1.2C8 28 2.7 23.6 2.7 17S8.2 5.9 15.5 5.9zm78.2 8.2c2.7 0 4.3 1.3 4.3 3.9 0 .6-.1 1-.4 1h-8.3v.9c0 3.9 1.8 6.5 5.3 6.5 1.2 0 2.3-.4 3.3-1 .1-.1.3.2.2.3-1.4 1.4-3.3 2.2-5.3 2.2-3.5.2-6.5-2.6-6.7-6.1v-.5c0-4 3.3-7.3 7.3-7.3.1.1.2.1.3.1zm-30-11.2c.2 0 .5.2.5.4v13.3c1.3-1.5 3.1-2.4 5.1-2.5 2.9 0 5.6 2.1 5.6 6.3 0 5.1-3.7 7.7-7.4 7.7-1.7 0-3.4-.5-4.8-1.6l-2.9 1.3c-.2.1-.3-.2-.2-.3 1.2-.7 1.9-2 1.8-3.4V7.4c0-1.5-.2-2.2-1.1-2.2-.4.1-.9.2-1.3.4-.2.1-.3-.3-.2-.4L63.5 3c.1-.1.1-.1.2-.1zm-17.5 0c.2 0 .5.2.5.4v13.3c1.3-1.5 3.1-2.4 5.1-2.5 2.9 0 5.6 2.1 5.6 6.3 0 5.1-3.7 7.7-7.4 7.7-1.7 0-3.4-.5-4.8-1.6l-2.9 1.3c-.2.1-.3-.2-.2-.3 1.2-.7 1.9-2 1.8-3.4V7.4c0-1.5-.2-2.2-1-2.2-.5.1-.9.2-1.3.4-.2.1-.3-.3-.2-.4L46.1 3c-.1-.1 0-.1.1-.1zM33 14c3.8 0 6.8 3 6.8 6.8v.3c0 4.2-3.4 7-7.4 7-4.2 0-6.9-3.3-6.9-7.2 0-4.7 4-6.9 7.5-6.9z"/></svg>