<?xml version="1.0" encoding="UTF-8"?>
<svg width="17px" height="12px" viewBox="0 0 17 12" version="1.1" xmlns="http://www.w3.org/2000/svg" xmlns:xlink="http://www.w3.org/1999/xlink">
    <title>Group 3</title>
    <defs>
        <polygon id="path-1" points="0 0 16.8191932 0 16.8191932 11.5364031 0 11.5364031"></polygon>
    </defs>
    <g id="Page-1" stroke="none" stroke-width="1" fill="none" fill-rule="evenodd">
        <g id="04-Cobble_Hill_Holding_Page" transform="translate(-306.000000, -396.000000)">
            <g id="Group" transform="translate(241.000000, 108.000000)">
                <g id="Group-2" transform="translate(65.000000, 230.000000)">
                    <g id="Group-3" transform="translate(0.000000, 58.000000)">
                        <mask id="mask-2" fill="white">
                            <use xlink:href="#path-1"></use>
                        </mask>
                        <g id="Clip-2"></g>
                        <path d="M15.1292497,2.85257133 C15.0955699,3.02828463 14.9861389,3.18313233 14.812807,3.30050133 C14.4747049,3.52939923 14.129572,3.75926103 13.7957224,3.98152503 L11.6651632,5.40293733 L11.9245657,5.63688153 C12.2763892,5.95428813 12.6232231,6.26715873 12.9703972,6.57951903 C13.2607012,6.84073593 13.5511753,7.10166933 13.8417061,7.36265943 C14.1933028,7.67853513 14.5448995,7.99435413 14.896156,8.31062673 C15.0300247,8.43117093 15.108781,8.59571433 15.1179097,8.77392243 C15.1269817,8.95105323 15.066256,9.12132333 14.9468458,9.25332093 C14.8308943,9.38140623 14.6792785,9.44553393 14.5212556,9.44553393 C14.3634595,9.44553393 14.1992563,9.38168973 14.057563,9.25388793 C13.2806029,8.55352953 12.5046634,7.85203713 11.7287239,7.15060143 L10.5758428,6.10873893 C10.4202013,6.21221643 10.2645598,6.31592073 10.108975,6.41962503 C9.96127146,6.51799953 9.81356796,6.61643073 9.66569436,6.71474853 C8.93562516,7.19998713 8.13292326,7.23315663 7.34433966,6.81096843 C7.07507136,6.66672363 6.82615836,6.48936603 6.58541016,6.31784853 C6.48856656,6.24878793 6.38860446,6.17762943 6.28960626,6.11026983 L4.46256216,7.73903403 C3.89754666,8.24264343 3.33247446,8.74630953 2.76791256,9.25054263 C2.70412506,9.30752613 2.51004096,9.48091473 2.22302556,9.43549803 C2.05111116,9.40828203 1.82618226,9.30792303 1.73120976,8.98422273 C1.65630906,8.72929953 1.72219446,8.49195333 1.91667546,8.31606993 C2.21418036,8.04697173 2.51213886,7.77844053 2.81038086,7.51024953 C3.59153676,6.80784993 4.37280606,6.10567713 5.15447226,5.40390123 L4.53871026,4.99254273 C3.72240036,4.44725883 2.87836416,3.88349073 2.05014726,3.32556273 C1.94145336,3.25236303 1.84472316,3.14100423 1.78467786,3.02000643 C1.65330396,2.75521743 1.70108987,2.44223343 1.89807786,2.27570553 C2.16082566,2.05395183 2.45526876,2.03121513 2.72742876,2.21174793 C3.00043926,2.39296113 3.27237246,2.57576193 3.54430566,2.75850603 C3.83874876,2.95650243 4.14328446,3.16118943 4.44385116,3.36009303 L4.63016736,3.48335883 C5.72867316,4.21030953 6.86460096,4.96203813 7.98652386,5.69346813 C8.27274546,5.88006783 8.57325546,5.87740293 8.87977566,5.68547343 C9.28529406,5.43157083 9.69109596,5.15975103 10.0835167,4.89688983 C10.2553744,4.78178883 10.4271754,4.66668783 10.5996001,4.55255073 L14.1034333,2.23420113 C14.4428395,2.00966913 14.8120699,2.06676603 15.0223702,2.37617793 C15.123523,2.52501543 15.1604347,2.68972893 15.1292497,2.85257133 M16.0027132,-5.67e-06 L0.81646866,-5.67e-06 C0.36553356,-5.67e-06 -1.134e-05,0.36553923 -1.134e-05,0.81647433 L-1.134e-05,10.7199231 C-1.134e-05,11.1708582 0.36553356,11.5364031 0.81646866,11.5364031 L16.0027132,11.5364031 C16.4536483,11.5364031 16.8191932,11.1708582 16.8191932,10.7199231 L16.8191932,0.81647433 C16.8191932,0.36553923 16.4536483,-5.67e-06 16.0027132,-5.67e-06" id="Fill-1" fill="#FFFFFF" mask="url(#mask-2)"></path>
                    </g>
                </g>
            </g>
        </g>
    </g>
</svg>