<?xml version="1.0" encoding="UTF-8"?>
<svg width="14px" height="14px" viewBox="0 0 14 14" version="1.1" xmlns="http://www.w3.org/2000/svg" xmlns:xlink="http://www.w3.org/1999/xlink">
    <title>Fill 1</title>
    <g id="Page-1" stroke="none" stroke-width="1" fill="none" fill-rule="evenodd">
        <g id="04-Cobble_Hill_Holding_Page" transform="translate(-306.000000, -369.000000)" fill="#FFFFFF">
            <g id="Group" transform="translate(241.000000, 108.000000)">
                <g id="Group-2" transform="translate(65.000000, 230.000000)">
                    <g id="Group-3" transform="translate(0.000000, 31.000000)">
                        <path d="M8.87021486,9.77033761 C9.21193944,9.26216273 9.55333567,8.81306841 10.0354275,8.48886383 C10.6935942,8.04616991 11.367193,8.00366473 12.0653355,8.38227266 C12.9135316,8.84211636 13.4414275,9.53721557 13.5723549,10.5003108 C13.7229829,11.6074148 13.2492638,12.4415175 12.3664275,13.0611249 C11.5030455,13.6671109 10.5444436,13.7043645 9.5567012,13.4558158 C8.57298097,13.2082519 7.7073006,12.7149292 6.8974388,12.1221542 C4.79636212,10.5842544 2.97889303,8.75727011 1.42590546,6.67065957 C0.755508008,5.76992718 0.220963105,4.79501587 0.0503881183,3.66206405 C-0.104918847,2.6302877 0.0846180361,1.68984005 0.817483039,0.902755684 C2.01019456,-0.378061645 3.62056034,-0.162335541 4.62414541,0.718785382 C5.16927943,1.19733793 5.55508426,1.77714799 5.53489107,2.54527734 C5.5181455,3.18392179 5.17395834,3.66747977 4.75261021,4.09975254 C4.53926835,4.31859679 4.29136823,4.50675196 4.04420688,4.68842469 C3.93076384,4.77179393 3.9197643,4.83661843 3.97057561,4.95633862 C4.23522131,5.5791462 4.61454133,6.12892365 5.03966542,6.64924287 C5.923651,7.73115564 6.91574401,8.69441495 8.12799204,9.40797684 C8.36111666,9.54525709 8.61517324,9.64700694 8.87021486,9.77033761" id="Fill-1" fill="#e5bb57"></path>
                    </g>
                </g>
            </g>
        </g>
    </g>
</svg>