<svg xmlns="http://www.w3.org/2000/svg" viewBox="0 0 170.01 80.23"><defs><style>.cls-1,.cls-13,.cls-4,.cls-5,.cls-6,.cls-9{fill:none;}.cls-1{stroke:#1d1d1c;}.cls-1,.cls-12,.cls-13,.cls-15,.cls-16,.cls-17,.cls-18,.cls-2,.cls-4,.cls-5,.cls-6,.cls-9{stroke-miterlimit:10;}.cls-1,.cls-13,.cls-15,.cls-5{stroke-width:1.15px;}.cls-14,.cls-2{fill:#fff;}.cls-2{stroke:#24303a;stroke-width:3.46px;}.cls-3{fill:#898a93;}.cls-4{stroke:#e8eaed;stroke-width:1.04px;opacity:0.5;}.cls-5,.cls-6{stroke:#999ea7;}.cls-6{stroke-width:1.15px;}.cls-18,.cls-7{fill:#24303a;}.cls-8{fill:#999ea7;}.cls-13,.cls-15,.cls-16,.cls-17,.cls-9{stroke:#1d1d1b;}.cls-9{stroke-width:1.04px;}.cls-10{fill:#1d1d1b;}.cls-11{fill:#e8eaed;}.cls-12{fill:#e62453;stroke-width:1.09px;}.cls-12,.cls-18{stroke:#010101;}.cls-15{fill:#ffd66e;}.cls-16,.cls-17{fill:#ffeec6;}.cls-16{stroke-width:1.15px;}.cls-17{stroke-width:1.18px;}.cls-18{stroke-width:1.08px;}</style></defs><title>cicle4</title><g id="Шар_2" data-name="Шар 2"><g id="Layer_1" data-name="Layer 1"><path class="cls-1" d="M118.66,38.14"/><path class="cls-2" d="M104.27,78.44a2.09,2.09,0,0,0,2.1-2.09V3.82a2.09,2.09,0,0,0-2.1-2.09H3.83s-2.1.94-2.1,2.09V76.35a2.09,2.09,0,0,0,2.1,2.09Z"/><rect class="cls-3" x="27.15" y="44.93" width="10.01" height="3.46"/><line class="cls-4" x1="26.62" y1="17.35" x2="26.62" y2="58.78"/><line class="cls-4" x1="40.33" y1="17.35" x2="40.33" y2="58.78"/><line class="cls-4" x1="54.05" y1="17.35" x2="54.05" y2="58.78"/><line class="cls-4" x1="67.77" y1="17.35" x2="67.77" y2="58.78"/><line class="cls-4" x1="81.48" y1="17.35" x2="81.48" y2="58.78"/><line class="cls-5" x1="26.62" y1="55.97" x2="26.62" y2="59.44"/><line class="cls-5" x1="40.33" y1="55.97" x2="40.33" y2="59.44"/><line class="cls-5" x1="54.05" y1="55.97" x2="54.05" y2="59.44"/><line class="cls-5" x1="67.77" y1="55.97" x2="67.77" y2="59.44"/><line class="cls-5" x1="81.48" y1="55.97" x2="81.48" y2="59.44"/><line class="cls-6" x1="19.22" y1="59.15" x2="87.36" y2="59.15"/><rect class="cls-3" x="69.83" y="51.82" width="9.67" height="3.47"/><rect class="cls-3" x="43.69" y="38.02" width="20.72" height="3.47"/><rect class="cls-3" x="33.49" y="31.16" width="13.68" height="3.46"/><rect class="cls-3" x="47.44" y="17.43" width="26.97" height="3.46"/><rect class="cls-7" x="23.43" y="24.3" width="43.73" height="3.46"/><polyline class="cls-7" points="23.43 27.77 25.26 30.07 27.24 27.77"/><polyline class="cls-7" points="63.36 27.77 65.18 30.07 67.17 27.77"/><polygon class="cls-8" points="86.45 57.45 86.45 60.8 88.27 59.15 86.45 57.45"/><polyline class="cls-9" points="19.22 17.35 19.22 63.19 88.8 63.19 88.8 17.35"/><path class="cls-10" d="M136,48.77h-3.4s-.72-1.56-1.25-16,10.9-14.06,10.9-14.06,9.71-.38,11.7,9.52c.27,9.51-2.19,19.06-3.65,20.54"/><path class="cls-11" d="M132.92,34.5s.61,8.31,6.23,11.56c2.56,1.56,3.79,1.17,3.79,1.17l-.61-12.73"/><path class="cls-11" d="M152.28,34.5s-.6,8.31-6.15,11.56c-2.53,1.56-3.74,1.17-3.74,1.17L143,34.5"/><path class="cls-11" d="M136.69,39.57l-3.25-5.07s7.8-.52,11-3.51,5.72-1.47,4.29,1.8"/><rect class="cls-11" x="145.07" y="33.14" width="7.16" height="1.58"/><rect class="cls-11" x="140.34" y="35.4" width="4.39" height="6.38"/><path class="cls-10" d="M138.31,27.36l-4.87,7.14s6.34-.67,9.5-2.14,4.88-2.17,5.54-1.45a1.67,1.67,0,0,1-.29,2.23c-.46.33,3.74-.48,3.74-.48l-.91-5.3"/><polyline class="cls-10" points="149.29 32.43 147.98 33.27 152.49 33.27 152.56 32.43"/><path class="cls-11" d="M151.45,35.16l.74.09a17.44,17.44,0,0,0,.17-2h-.91"/><path class="cls-10" d="M141.31,25.25s-1.25,8.12-2.55,8.71c1-.13,8.25-.68,10.79-2.71s0-4.5,0-4.5"/><path class="cls-10" d="M154,30.31s-.69,16-1.28,18.46h-2.8"/><path class="cls-12" d="M164.83,60.08c-3-3.12-7.86-5.61-11.19-7.34-1.74,2-5.12,4.36-11.4,4.43-5.8.06-10.58-4.43-10.58-4.43-3.33,1.73-8.17,4.23-11.2,7.34-3.89,4-4.6,14.63-4.6,14.63h53.57S168.72,64.09,164.83,60.08Z"/><path class="cls-13" d="M121.3,30.9"/><rect class="cls-14" x="122.24" y="51.89" width="3.9" height="7.12"/><path class="cls-14" d="M144.49,79.76c-.91-9.74-2.93-15.34-6.14-18.65a41.19,41.19,0,0,0-13.09-8.28l-1.49,20s1.95,3.08,4.66,6.93Z"/><path class="cls-15" d="M137.48,72.39"/><path class="cls-16" d="M111.57,54.6a9.61,9.61,0,0,0,8.89-6.88c1.78-7.46,1.78-9.7,1.78-12.31S121.17,25.35,111.57,25c-9.61.37-10.67,7.83-10.67,10.44s0,4.85,1.78,12.31A9.61,9.61,0,0,0,111.57,54.6Z"/><path class="cls-17" d="M112.84,25.07,111.57,25c-2.21.05-8.87.67-11.23,1.81,0,1.23.7,2.88.7,4.45,0,2.62-.14,5-.14,5"/><path class="cls-18" d="M83.85,79.69s.74-11.06,4.79-15.23,11.22-7.28,14.17-9c1.89,1.62,3.47,4.11,8.5,4.27h.85c5-.16,6.61-2.65,8.5-4.27,2.94,1.71,10.12,4.82,14.17,9s4.78,15.23,4.78,15.23H83.85Z"/></g></g></svg>