<svg xmlns="http://www.w3.org/2000/svg" xmlns:xlink="http://www.w3.org/1999/xlink" viewBox="0 0 76.29 64.26"><defs><style>.cls-1{fill:none;}.cls-2{fill:#1d1d1b;}.cls-3{clip-path:url(#clip-path);}.cls-4{fill:#e9004c;}</style><clipPath id="clip-path"><rect class="cls-1" width="76.29" height="64.26"/></clipPath></defs><title>cicle8</title><g id="Шар_2" data-name="Шар 2"><g id="Layer_1" data-name="Layer 1"><polygon class="cls-2" points="59.34 50.35 52.92 45.01 50.52 47.9 60.04 55.83 76.29 33.19 73.23 31 59.34 50.35"/><g class="cls-3"><path class="cls-4" d="M45.45,36.42a14.17,14.17,0,0,1-26.07.28l-3.17,1.69a17.74,17.74,0,0,0,32.41-.28Z"/><path class="cls-4" d="M41.44,28.52a2.82,2.82,0,1,0-2.82-2.82,2.82,2.82,0,0,0,2.82,2.82"/><path class="cls-4" d="M23.55,28.52a2.82,2.82,0,1,0-2.82-2.82,2.82,2.82,0,0,0,2.82,2.82"/><path class="cls-4" d="M63.44,23.51A32.21,32.21,0,1,0,50.12,58.95l-3.22-2.69A28.13,28.13,0,1,1,60.32,27.95Z"/></g></g></g></svg>