<svg xmlns="http://www.w3.org/2000/svg" viewBox="0 0 402.68 341.3"><defs><style>.cls-1{fill:#f3f3f4;}.cls-2{fill:#e9e9ea;}.cls-3,.cls-4{fill:none;stroke:#97999c;stroke-miterlimit:10;}.cls-3{stroke-width:0.5px;}.cls-4{stroke-width:0.65px;}</style></defs><title>guys</title><g id="Шар_2" data-name="Шар 2"><g id="Layer_1" data-name="Layer 1"><path class="cls-1" d="M60.73,143A9.57,9.57,0,0,1,58,160.31h.14c6,0,13.25,4.64,13.25,4.64s0-16.52-10.69-22"/><path class="cls-1" d="M63.14,96.16c-16.87,4.59-20.37,28.45-20.37,28.45s8.64-3.94,16.38-3.94a19.37,19.37,0,0,1,2.6.17,13.29,13.29,0,0,1,1.39-24.67h0"/><path class="cls-1" d="M20.23,95.35c-5.38,0-12.94,1.14-17.37,6.77a9.57,9.57,0,0,1,16.51,6c1.1-6,7.13-12.24,7.13-12.24a35.93,35.93,0,0,0-6.27-.52"/><path class="cls-1" d="M59.71,56.58a32.12,32.12,0,0,0-7.3.94c-4.15,1-9,3.2-11.41,7.75a8.29,8.29,0,0,1,.87-1.09,8.14,8.14,0,0,1,13.82,3.7c0-5.15,4.17-11.3,4.17-11.3h-.14"/><path class="cls-1" d="M40.64,25.06a22.25,22.25,0,0,0-3.09.21,14.39,14.39,0,0,0-8,3.58A8.14,8.14,0,0,1,42.67,36c1.7-4.87,7.6-9.35,7.6-9.35a31.53,31.53,0,0,0-9.62-1.61"/><path class="cls-1" d="M109.23,63.35h0A13.28,13.28,0,0,1,110.6,88a19.37,19.37,0,0,1,2.63-.17c7.74,0,16.37,3.94,16.37,3.94s-3.5-23.86-20.37-28.46"/><path class="cls-1" d="M147.58,78.55s3.5,23.87,20.37,28.46h0a13.29,13.29,0,0,1-1.38-24.67,19.32,19.32,0,0,1-2.61.17c-7.75,0-16.38-3.94-16.38-3.94"/><path class="cls-1" d="M190.77,124s1.5,18.37,13.91,23.42a10.79,10.79,0,0,1-1.63-1A10.62,10.62,0,0,1,206,128q-.66.06-1.33.06c-6.45,0-13.93-4-13.93-4"/><path class="cls-1" d="M220.82,93a9.56,9.56,0,0,1-14.72,8.16,9.73,9.73,0,0,1-1.3-1c4.09,4.49,10.2,5.6,15.23,5.6a37.22,37.22,0,0,0,8.77-1.05s-6.47-5.84-8-11.72"/><path class="cls-1" d="M84.59,18.17C73.06,24.95,74.17,43.31,74.17,43.31s7.82-5.73,14.55-6a10.63,10.63,0,0,1-4.13-19.08"/><path class="cls-1" d="M154.91,36.34C141.71,38.5,136.13,56,136.13,56a41.79,41.79,0,0,1,9.62-1.26,19.81,19.81,0,0,1,6.13.85A10.63,10.63,0,0,1,153.11,37a10.7,10.7,0,0,1,1.8-.64"/><path class="cls-1" d="M145,4.61A14.39,14.39,0,0,0,136.62,7a8.26,8.26,0,0,1,1.32-.61A8.14,8.14,0,0,1,148.6,16c2.36-4.58,8.82-8.2,8.82-8.2A30.06,30.06,0,0,0,145,4.61"/><path class="cls-1" d="M215.77,38.12c-16.87,4.59-20.37,28.46-20.37,28.46s8.63-3.94,16.38-3.94a19.37,19.37,0,0,1,2.61.17,13.29,13.29,0,0,1,1.38-24.67h0"/><path class="cls-1" d="M255.63,116.55a16.62,16.62,0,0,0-4.42.59A10.63,10.63,0,0,1,262,133.42c4.93-4.59,14.5-6.18,14.5-6.18s-9.7-10.69-20.88-10.69"/><path class="cls-1" d="M355.18,76.58h0a13.28,13.28,0,0,1-4.63,24.27c8.3.9,17.53,8.25,17.53,8.25s2.37-24-12.89-32.53"/><path class="cls-1" d="M392.38,138.72a10.63,10.63,0,0,1-4.25,19c6.73.36,14.51,6.11,14.51,6.11s1.18-18.3-10.26-25.14"/><path class="cls-1" d="M286.87,144.59c-14,0-26.09,13.33-26.09,13.33s11.63,1.92,17.86,7.47a13.29,13.29,0,0,1,14.92-19.69h0a20.72,20.72,0,0,0-6.69-1.09"/><path class="cls-1" d="M337.67,152.21a16.63,16.63,0,0,0-4.38.58,10.73,10.73,0,0,1,1.88-.17A10.62,10.62,0,0,1,344,169.08c4.93-4.6,14.5-6.18,14.5-6.18s-9.7-10.69-20.87-10.69"/><path class="cls-1" d="M317.4,106.48a9.57,9.57,0,0,1-2.68,17.36h.15c6,0,13.24,4.65,13.24,4.65s0-16.54-10.71-22"/><path class="cls-1" d="M261.14,21.58a36,36,0,0,0-13.7,3.11s7.43,4.59,10,10.1a9.57,9.57,0,0,1,13-10.7,9.73,9.73,0,0,1,1.45.74,17.4,17.4,0,0,0-10.72-3.26"/><path class="cls-1" d="M198.9,3.52c-10.05,8.81-5.53,26.63-5.53,26.63s6.61-7.08,13.15-8.66A10.63,10.63,0,0,1,197.73,5a10.67,10.67,0,0,1,1.17-1.47"/><path class="cls-2" d="M259.08,243c-9,3.79-28,11.28-28,11.28s-16,6.85-22-8.61-15.47-50.89-23.82-53.23c-4-1.23-.1,3.81,2,6.58s15.36,33.76,12.66,65c-1.35,15.79.87,56.79,3.68,75.89h15.95c-2-27.05,3.79-79.55,41.57-93.83,3.51-1.53,7-6.89-2.05-3.09"/><path class="cls-3" d="M259.08,243c-9,3.79-28,11.28-28,11.28s-16,6.85-22-8.61-15.47-50.89-23.82-53.23c-4-1.23-.1,3.81,2,6.58s15.36,33.76,12.66,65c-1.35,15.79.87,56.79,3.68,75.89h15.95c-2-27.05,3.79-79.55,41.57-93.83C264.65,244.59,268.1,239.23,259.08,243Z"/><path class="cls-2" d="M220.23,165.44c-12.58,6.82-39.13,20.44-39.13,20.44s-22.35,12.27-33.54-8.86-30.74-70.19-43.32-72.23c-6.05-1.14.47,5.46,4,9.09s27.84,45.77,28.89,90.74c.71,30.67,13,102,21.89,130.66h0a59.21,59.21,0,0,0,2,5.77h24.31s-1.74-1.74-5.41-13.92c-11.63-40.47-19-126.5,43.86-157.6,4.89-2.73,9.09-10.9-3.49-4.09"/><path class="cls-3" d="M220.23,165.44c-12.58,6.82-39.13,20.44-39.13,20.44s-22.35,12.27-33.54-8.86-30.74-70.19-43.32-72.23c-6.05-1.14.47,5.46,4,9.09s27.84,45.77,28.89,90.74c.71,30.67,13,102,21.89,130.66h0a59.21,59.21,0,0,0,2,5.77h24.31s-1.74-1.74-5.41-13.92c-11.63-40.47-19-126.5,43.86-157.6C228.61,166.8,232.81,158.63,220.23,165.44Z"/><path class="cls-2" d="M112.53,340h17.81c0-1.78,0-11.94,0-11.94V325c.36-24-1.15-66.26-7.93-91.32-9.52-35.27-.71-73.54,1.11-77.15s5.26-10.2.92-8c-9.08,4.41-12.68,47-16.33,66s-23.44,14.41-23.44,14.41-23.3-4.67-34.42-7.16-6.06,2.93-1.72,4c59.24,11,65.2,82.41,64,114.28"/><path class="cls-3" d="M112.53,340h17.81c0-1.78,0-11.94,0-11.94V325c.36-24-1.15-66.26-7.93-91.32-9.52-35.27-.71-73.54,1.11-77.15s5.26-10.2.92-8c-9.08,4.41-12.68,47-16.33,66s-23.44,14.41-23.44,14.41-23.3-4.67-34.42-7.16-6.06,2.93-1.72,4C107.77,236.72,113.73,308.16,112.53,340Z"/><path class="cls-2" d="M293.56,145.71h0l-.28-.06q-.58-.15-1.18-.24l-.46-.07a13.43,13.43,0,0,0-1.64-.11,13.2,13.2,0,0,0-13.17,14.95c0,.16,0,.31.07.46q.1.63.26,1.24c0,.13.06.26.1.39a13.44,13.44,0,0,0,.54,1.5c0,.09.09.18.13.27a12.94,12.94,0,0,0,.61,1.16l.11.21,0,0a13.27,13.27,0,1,0,14.87-19.72"/><path class="cls-3" d="M293.56,145.71h0l-.28-.06q-.58-.15-1.18-.24l-.46-.07a13.43,13.43,0,0,0-1.64-.11,13.2,13.2,0,0,0-13.17,14.95c0,.16,0,.31.07.46q.1.63.26,1.24c0,.13.06.26.1.39a13.44,13.44,0,0,0,.54,1.5c0,.09.09.18.13.27a12.94,12.94,0,0,0,.61,1.16l.11.21,0,0a13.27,13.27,0,1,0,14.87-19.72Z"/><path class="cls-2" d="M263.76,127.59a10.57,10.57,0,0,0-12.41-10.46h-.14l-.06,0A10.62,10.62,0,1,0,262,133.44l0,0,.08-.15a10.64,10.64,0,0,0,.56-1l.15-.32a10.43,10.43,0,0,0,.48-1.26l0-.12a10.67,10.67,0,0,0,.28-1.23c0-.12,0-.24.05-.36a10.62,10.62,0,0,0,.11-1.41"/><path class="cls-3" d="M263.76,127.59a10.57,10.57,0,0,0-12.41-10.46h-.14l-.06,0A10.62,10.62,0,1,0,262,133.44l0,0,.08-.15a10.64,10.64,0,0,0,.56-1l.15-.32a10.43,10.43,0,0,0,.48-1.26l0-.12a10.67,10.67,0,0,0,.28-1.23c0-.12,0-.24.05-.36A10.62,10.62,0,0,0,263.76,127.59Z"/><path class="cls-2" d="M345.8,163.24a10.56,10.56,0,0,0-12.34-10.47l-.17,0-.07,0A10.62,10.62,0,1,0,344,169.1v0l.07-.12a10.41,10.41,0,0,0,.58-1l.15-.31a10.42,10.42,0,0,0,.49-1.26l0-.12a10.41,10.41,0,0,0,.28-1.23c0-.12,0-.24.05-.36a10.63,10.63,0,0,0,.11-1.41"/><path class="cls-3" d="M345.8,163.24a10.56,10.56,0,0,0-12.34-10.47l-.17,0-.07,0A10.62,10.62,0,1,0,344,169.1v0l.07-.12a10.41,10.41,0,0,0,.58-1l.15-.31a10.42,10.42,0,0,0,.49-1.26l0-.12a10.41,10.41,0,0,0,.28-1.23c0-.12,0-.24.05-.36A10.63,10.63,0,0,0,345.8,163.24Z"/><path class="cls-2" d="M357,97.67a13.28,13.28,0,1,1,1-18.75,13.27,13.27,0,0,1-1,18.75"/><path class="cls-3" d="M357,97.67a13.28,13.28,0,1,1,1-18.75,13.27,13.27,0,0,1-1,18.75"/><path class="cls-2" d="M305.23,108.16a9.56,9.56,0,1,0,13.52-.66,9.57,9.57,0,0,0-13.52.66"/><path class="cls-3" d="M305.23,108.16a9.56,9.56,0,1,0,13.52-.66,9.57,9.57,0,0,0-13.52.66"/><path class="cls-1" d="M311.07,53.3a23.11,23.11,0,0,0-14.59,4.64h0A13.28,13.28,0,0,1,317.1,71.56c4-7.3,14.37-13,14.37-13s-9.8-5.28-20.4-5.28"/><path class="cls-2" d="M317.16,66.49c0-.16-.06-.31-.09-.47a12,12,0,0,0-1.22-3.35l-.19-.36a13.19,13.19,0,0,0-1-1.52l-.17-.2a13.2,13.2,0,0,0-1.09-1.21l-.24-.24A13.3,13.3,0,0,0,311.8,58l-.3-.2a13.42,13.42,0,0,0-1.4-.83l-.18-.1a13.35,13.35,0,0,0-1.64-.66l-.39-.12a13.15,13.15,0,0,0-1.74-.41H306a13.26,13.26,0,0,0-1.71-.13l-.23,0h-.28l-.45,0-.79.07-.45.06c-.28,0-.56.1-.84.16l-.39.08c-.41.1-.81.22-1.21.36a13.5,13.5,0,0,0-1.51.65l-.41.22q-.54.29-1,.63l-.24.15h0a13.27,13.27,0,1,0,20.58,13.65l0-.05,0-.23c.08-.43.15-.87.19-1.31,0-.1,0-.19,0-.29a13.18,13.18,0,0,0,0-1.59c0-.14,0-.27,0-.41q-.05-.62-.16-1.25"/><path class="cls-3" d="M317.16,66.49c0-.16-.06-.31-.09-.47a12,12,0,0,0-1.22-3.35l-.19-.36a13.19,13.19,0,0,0-1-1.52l-.17-.2a13.2,13.2,0,0,0-1.09-1.21l-.24-.24A13.3,13.3,0,0,0,311.8,58l-.3-.2a13.42,13.42,0,0,0-1.4-.83l-.18-.1a13.35,13.35,0,0,0-1.64-.66l-.39-.12a13.15,13.15,0,0,0-1.74-.41H306a13.26,13.26,0,0,0-1.71-.13l-.23,0h-.28l-.45,0-.79.07-.45.06c-.28,0-.56.1-.84.16l-.39.08c-.41.1-.81.22-1.21.36a13.5,13.5,0,0,0-1.51.65l-.41.22q-.54.29-1,.63l-.24.15h0a13.27,13.27,0,1,0,20.58,13.65l0-.05,0-.23c.08-.43.15-.87.19-1.31,0-.1,0-.19,0-.29a13.18,13.18,0,0,0,0-1.59c0-.14,0-.27,0-.41Q317.27,67.12,317.16,66.49Z"/><path class="cls-2" d="M275.64,36.58a9.56,9.56,0,1,1-5.22-12.48,9.56,9.56,0,0,1,5.22,12.48"/><path class="cls-3" d="M275.64,36.58a9.56,9.56,0,1,1-5.22-12.48,9.56,9.56,0,0,1,5.22,12.48"/><path class="cls-1" d="M261.1,72.88c-11.18,0-20.88,10.69-20.88,10.69s9.56,1.59,14.5,6.18a10.63,10.63,0,0,1,10.74-16.3,16.6,16.6,0,0,0-4.36-.57"/><path class="cls-2" d="M265.53,73.47l-.07,0h-.16a10.55,10.55,0,0,0-12.21,11.89c0,.12,0,.24.05.36a10.55,10.55,0,0,0,.28,1.24l0,.11a10.51,10.51,0,0,0,.48,1.26l.15.31a10.68,10.68,0,0,0,.56,1l.08.14,0,0a10.62,10.62,0,1,0,10.79-16.3"/><path class="cls-3" d="M265.53,73.47l-.07,0h-.16a10.55,10.55,0,0,0-12.21,11.89c0,.12,0,.24.05.36a10.55,10.55,0,0,0,.28,1.24l0,.11a10.51,10.51,0,0,0,.48,1.26l.15.31a10.68,10.68,0,0,0,.56,1l.08.14,0,0a10.62,10.62,0,1,0,10.79-16.3Z"/><path class="cls-2" d="M231,43.33a13.27,13.27,0,0,0-15.19-5.18h0l-.26.11q-.57.2-1.12.46l-.43.2a13.2,13.2,0,0,0-4,20.57l.32.35q.43.46.91.88l.3.27a13.06,13.06,0,0,0,1.28.94l.26.15c.37.23.76.43,1.15.62l.21.11h.06A13.27,13.27,0,0,0,231,43.33"/><path class="cls-3" d="M231,43.33a13.27,13.27,0,0,0-15.19-5.18h0l-.26.11q-.57.2-1.12.46l-.43.2a13.2,13.2,0,0,0-4,20.57l.32.35q.43.46.91.88l.3.27a13.06,13.06,0,0,0,1.28.94l.26.15c.37.23.76.43,1.15.62l.21.11h.06A13.27,13.27,0,0,0,231,43.33Z"/><path class="cls-2" d="M220.81,93a9.56,9.56,0,1,0-16.1,7.1l.09.1a9.59,9.59,0,0,0,1.3,1,9.42,9.42,0,0,0,1.55.78l.45.17a9.59,9.59,0,0,0,1.28.35l.38.08a9.61,9.61,0,0,0,1.49.13h.15l.29,0a9.52,9.52,0,0,0,1.41-.17l.31-.06a9.58,9.58,0,0,0,1.52-.49l.32-.15a9.5,9.5,0,0,0,1.29-.71l.18-.11A9.48,9.48,0,0,0,218,99.9l.27-.28a8.74,8.74,0,0,0,1.86-2.91c.06-.15.11-.3.17-.46a9.32,9.32,0,0,0,.34-1.24c0-.15.07-.29.09-.44a9.39,9.39,0,0,0,.13-1.58Z"/><path class="cls-3" d="M220.81,93a9.56,9.56,0,1,0-16.1,7.1l.09.1a9.59,9.59,0,0,0,1.3,1,9.42,9.42,0,0,0,1.55.78l.45.17a9.59,9.59,0,0,0,1.28.35l.38.08a9.61,9.61,0,0,0,1.49.13h.15l.29,0a9.52,9.52,0,0,0,1.41-.17l.31-.06a9.58,9.58,0,0,0,1.52-.49l.32-.15a9.5,9.5,0,0,0,1.29-.71l.18-.11A9.48,9.48,0,0,0,218,99.9l.27-.28a8.74,8.74,0,0,0,1.86-2.91c.06-.15.11-.3.17-.46a9.32,9.32,0,0,0,.34-1.24c0-.15.07-.29.09-.44a9.39,9.39,0,0,0,.13-1.58Z"/><path class="cls-2" d="M216,129.57a10.6,10.6,0,0,0-9.93-1.61h0l-.14.06a10.62,10.62,0,0,0-1.07.46l-.31.16a10.43,10.43,0,0,0-1.14.7l-.11.09a10.49,10.49,0,0,0-1,.79l-.27.25a10.57,10.57,0,0,0,2.52,16.9l.13.08.06,0A10.62,10.62,0,0,0,216,129.57"/><path class="cls-3" d="M216,129.57a10.6,10.6,0,0,0-9.93-1.61h0l-.14.06a10.62,10.62,0,0,0-1.07.46l-.31.16a10.43,10.43,0,0,0-1.14.7l-.11.09a10.49,10.49,0,0,0-1,.79l-.27.25a10.57,10.57,0,0,0,2.52,16.9l.13.08.06,0A10.62,10.62,0,0,0,216,129.57Z"/><path class="cls-2" d="M179.55,83.37a13.26,13.26,0,0,0-12.92-1.05h-.06l-.21.11q-.58.28-1.14.62l-.26.15a13.53,13.53,0,0,0-1.28.94l-.3.27q-.47.42-.91.88l-.32.35a13.43,13.43,0,0,0-1,1.32,13.28,13.28,0,0,0,3.61,18.43,13.43,13.43,0,0,0,1.42.83l.42.2c.37.17.74.32,1.11.46l.27.11h0a13.27,13.27,0,0,0,11.59-23.61"/><path class="cls-3" d="M179.55,83.37a13.26,13.26,0,0,0-12.92-1.05h-.06l-.21.11q-.58.28-1.14.62l-.26.15a13.53,13.53,0,0,0-1.28.94l-.3.27q-.47.42-.91.88l-.32.35a13.43,13.43,0,0,0-1,1.32,13.28,13.28,0,0,0,3.61,18.43,13.43,13.43,0,0,0,1.42.83l.42.2c.37.17.74.32,1.11.46l.27.11h0a13.27,13.27,0,0,0,11.59-23.61Z"/><path class="cls-2" d="M167.19,42.22A10.63,10.63,0,0,0,155,36.33h-.07l-.14.05a10.74,10.74,0,0,0-1.65.58,10.55,10.55,0,0,0-4.57,15.32l.2.3a10.54,10.54,0,0,0,.76,1l.08.1a10.56,10.56,0,0,0,1,.94l.26.22a10.46,10.46,0,0,0,.93.68l.13.09h0a10.62,10.62,0,0,0,15.29-13.42"/><path class="cls-3" d="M167.19,42.22A10.63,10.63,0,0,0,155,36.33h-.07l-.14.05a10.74,10.74,0,0,0-1.65.58,10.55,10.55,0,0,0-4.57,15.32l.2.3a10.54,10.54,0,0,0,.76,1l.08.1a10.56,10.56,0,0,0,1,.94l.26.22a10.46,10.46,0,0,0,.93.68l.13.09h0a10.62,10.62,0,0,0,15.29-13.42Z"/><path class="cls-2" d="M212.45,2A10.62,10.62,0,0,0,199,3.48l-.06,0-.1.13a10.55,10.55,0,0,0,3.14,16.77l.33.15a10.39,10.39,0,0,0,1.16.44l.14,0a10.67,10.67,0,0,0,1.31.29l.35,0a10.47,10.47,0,0,0,1.13.08h.2A10.62,10.62,0,0,0,212.45,2"/><path class="cls-3" d="M212.45,2A10.62,10.62,0,0,0,199,3.48l-.06,0-.1.13a10.55,10.55,0,0,0,3.14,16.77l.33.15a10.39,10.39,0,0,0,1.16.44l.14,0a10.67,10.67,0,0,0,1.31.29l.35,0a10.47,10.47,0,0,0,1.13.08h.2A10.62,10.62,0,0,0,212.45,2Z"/><path class="cls-2" d="M62.06,144a9.64,9.64,0,0,0-1.33-1l-.11,0A9.55,9.55,0,1,0,58,160.31h0a9.54,9.54,0,0,0,1.49-.53l.39-.2a9.36,9.36,0,0,0,1.11-.66l.4-.28A9.48,9.48,0,0,0,62.06,144"/><path class="cls-3" d="M62.06,144a9.64,9.64,0,0,0-1.33-1l-.11,0A9.55,9.55,0,1,0,58,160.31h0a9.54,9.54,0,0,0,1.49-.53l.39-.2a9.36,9.36,0,0,0,1.11-.66l.4-.28A9.48,9.48,0,0,0,62.06,144Z"/><path class="cls-2" d="M2.14,114.39A9.56,9.56,0,1,0,4.1,101a9.56,9.56,0,0,0-2,13.39"/><path class="cls-3" d="M2.14,114.39A9.56,9.56,0,1,0,4.1,101a9.56,9.56,0,0,0-2,13.39"/><path class="cls-2" d="M98.18,19.23a10.62,10.62,0,0,0-13.49-1.11l-.1.06a10.55,10.55,0,0,0,.25,17.46l.47.29a10.43,10.43,0,0,0,1.27.65l.46.2a10.61,10.61,0,0,0,1.69.49h0a10.62,10.62,0,0,0,9.42-18"/><path class="cls-3" d="M98.18,19.23a10.62,10.62,0,0,0-13.49-1.11l-.1.06a10.55,10.55,0,0,0,.25,17.46l.47.29a10.43,10.43,0,0,0,1.27.65l.46.2a10.61,10.61,0,0,0,1.69.49h0a10.62,10.62,0,0,0,9.42-18Z"/><path class="cls-2" d="M78.34,101.36a13.28,13.28,0,0,0-15.19-5.18h0l-.27.11q-.57.2-1.12.46l-.42.2a13.22,13.22,0,0,0-4,20.58l.32.35q.43.46.9.87l.31.28a13.13,13.13,0,0,0,1.28.94l.26.15q.56.34,1.14.62l.21.11h.06a13.27,13.27,0,0,0,16.53-19.49"/><path class="cls-3" d="M78.34,101.36a13.28,13.28,0,0,0-15.19-5.18h0l-.27.11q-.57.2-1.12.46l-.42.2a13.22,13.22,0,0,0-4,20.58l.32.35q.43.46.9.87l.31.28a13.13,13.13,0,0,0,1.28.94l.26.15q.56.34,1.14.62l.21.11h.06a13.27,13.27,0,0,0,16.53-19.49Z"/><path class="cls-2" d="M393.76,139.92a10.61,10.61,0,0,0-1.38-1.2l-.13-.07a10.62,10.62,0,1,0-4.16,19.1h0a10.48,10.48,0,0,0,1.68-.48l.45-.19a10.47,10.47,0,0,0,1.27-.65l.47-.29a10.55,10.55,0,0,0,1.75-16.23"/><path class="cls-3" d="M393.76,139.92a10.61,10.61,0,0,0-1.38-1.2l-.13-.07a10.62,10.62,0,1,0-4.16,19.1h0a10.48,10.48,0,0,0,1.68-.48l.45-.19a10.47,10.47,0,0,0,1.27-.65l.47-.29a10.55,10.55,0,0,0,1.75-16.23Z"/><path class="cls-2" d="M42.19,75.67a8.13,8.13,0,1,0-.33-11.49,8.14,8.14,0,0,0,.33,11.49"/><path class="cls-3" d="M42.19,75.67a8.13,8.13,0,1,0-.33-11.49,8.14,8.14,0,0,0,.33,11.49"/><path class="cls-2" d="M148.75,13.17c0-.14,0-.28-.05-.42a7.51,7.51,0,0,0-1-2.79c-.08-.13-.17-.25-.25-.38a8.13,8.13,0,0,0-.62-.82l-.32-.36a8.15,8.15,0,0,0-.79-.71l-.29-.24a8.2,8.2,0,0,0-1.22-.72l-.26-.1a8,8,0,0,0-1.08-.39l-.45-.11a8.08,8.08,0,0,0-1-.15L141,6l-.26,0c-.26,0-.51,0-.77.07s-.32,0-.48,0a7.92,7.92,0,0,0-2.81,1l-.07.06a8.12,8.12,0,1,0,12,8.91l0,0a8,8,0,0,0,.19-1.33c0-.13,0-.25,0-.38a8,8,0,0,0-.05-1.09"/><path class="cls-3" d="M148.75,13.17c0-.14,0-.28-.05-.42a7.51,7.51,0,0,0-1-2.79c-.08-.13-.17-.25-.25-.38a8.13,8.13,0,0,0-.62-.82l-.32-.36a8.15,8.15,0,0,0-.79-.71l-.29-.24a8.2,8.2,0,0,0-1.22-.72l-.26-.1a8,8,0,0,0-1.08-.39l-.45-.11a8.08,8.08,0,0,0-1-.15L141,6l-.26,0c-.26,0-.51,0-.77.07s-.32,0-.48,0a7.92,7.92,0,0,0-2.81,1l-.07.06a8.12,8.12,0,1,0,12,8.91l0,0a8,8,0,0,0,.19-1.33c0-.13,0-.25,0-.38A8,8,0,0,0,148.75,13.17Z"/><path class="cls-2" d="M112.45,65a13.58,13.58,0,0,0-1.42-.82l-.43-.2c-.37-.17-.74-.32-1.12-.46l-.27-.11h0A13.27,13.27,0,1,0,110.54,88h.06l.21-.11A12.88,12.88,0,0,0,112,87.3l.26-.15a13.41,13.41,0,0,0,1.29-.94l.3-.27q.47-.42.91-.88l.32-.35A13.2,13.2,0,0,0,112.45,65"/><path class="cls-3" d="M112.45,65a13.58,13.58,0,0,0-1.42-.82l-.43-.2c-.37-.17-.74-.32-1.12-.46l-.27-.11h0A13.27,13.27,0,1,0,110.54,88h.06l.21-.11A12.88,12.88,0,0,0,112,87.3l.26-.15a13.41,13.41,0,0,0,1.29-.94l.3-.27q.47-.42.91-.88l.32-.35A13.2,13.2,0,0,0,112.45,65Z"/><path class="cls-2" d="M42.42,33.24c0-.14-.07-.27-.11-.41a7.52,7.52,0,0,0-1.39-2.62c-.09-.12-.2-.23-.3-.34a8.06,8.06,0,0,0-.73-.73l-.37-.31a8.09,8.09,0,0,0-.89-.59l-.32-.19A8.1,8.1,0,0,0,37,27.51l-.26-.07a8.13,8.13,0,0,0-1.13-.23l-.46,0a8,8,0,0,0-1,0l-.46,0-.26,0c-.25,0-.5.11-.75.17s-.32.06-.48.11a7.93,7.93,0,0,0-2.65,1.37l-.07.07a8.12,8.12,0,1,0,13.16,7.15v0a8.1,8.1,0,0,0,0-1.34c0-.13,0-.25,0-.38a8.14,8.14,0,0,0-.2-1.07"/><path class="cls-3" d="M42.42,33.24c0-.14-.07-.27-.11-.41a7.52,7.52,0,0,0-1.39-2.62c-.09-.12-.2-.23-.3-.34a8.06,8.06,0,0,0-.73-.73l-.37-.31a8.09,8.09,0,0,0-.89-.59l-.32-.19A8.1,8.1,0,0,0,37,27.51l-.26-.07a8.13,8.13,0,0,0-1.13-.23l-.46,0a8,8,0,0,0-1,0l-.46,0-.26,0c-.25,0-.5.11-.75.17s-.32.06-.48.11a7.93,7.93,0,0,0-2.65,1.37l-.07.07a8.12,8.12,0,1,0,13.16,7.15v0a8.1,8.1,0,0,0,0-1.34c0-.13,0-.25,0-.38A8.14,8.14,0,0,0,42.42,33.24Z"/><path class="cls-2" d="M178.68,147.84A17.16,17.16,0,0,0,162,146.48l-.08,0-.27.15q-.76.36-1.48.8l-.33.2a17.08,17.08,0,0,0-1.66,1.22l-.39.35q-.61.54-1.17,1.14l-.41.45a17.44,17.44,0,0,0-1.33,1.71,17.1,17.1,0,0,0,6.51,24.92l.55.26q.71.33,1.44.59l.35.14v0a17.18,17.18,0,0,0,15-30.56"/><path class="cls-4" d="M178.68,147.84A17.16,17.16,0,0,0,162,146.48l-.08,0-.27.15q-.76.36-1.48.8l-.33.2a17.08,17.08,0,0,0-1.66,1.22l-.39.35q-.61.54-1.17,1.14l-.41.45a17.44,17.44,0,0,0-1.33,1.71,17.1,17.1,0,0,0,6.51,24.92l.55.26q.71.33,1.44.59l.35.14v0a17.18,17.18,0,0,0,15-30.56Z"/><path class="cls-2" d="M234.18,222.22a13.58,13.58,0,0,0-1.42-.82l-.43-.2c-.37-.17-.74-.32-1.12-.46l-.27-.11h0a13.27,13.27,0,1,0,1.33,24.67h.06l.21-.11a12.88,12.88,0,0,0,1.15-.62l.26-.15a13.4,13.4,0,0,0,1.29-.94l.3-.27q.47-.42.91-.88l.32-.35a13.2,13.2,0,0,0-2.58-19.75"/><path class="cls-3" d="M234.18,222.22a13.58,13.58,0,0,0-1.42-.82l-.43-.2c-.37-.17-.74-.32-1.12-.46l-.27-.11h0a13.27,13.27,0,1,0,1.33,24.67h.06l.21-.11a12.88,12.88,0,0,0,1.15-.62l.26-.15a13.4,13.4,0,0,0,1.29-.94l.3-.27q.47-.42.91-.88l.32-.35a13.2,13.2,0,0,0-2.58-19.75Z"/><path class="cls-2" d="M95.85,196.14a13.58,13.58,0,0,0-1.42-.82l-.43-.2c-.37-.17-.74-.32-1.12-.46l-.27-.11h0a13.27,13.27,0,1,0,1.33,24.67H94l.21-.11a12.88,12.88,0,0,0,1.15-.62l.26-.15a13.41,13.41,0,0,0,1.29-.94l.3-.27q.47-.42.91-.88l.32-.35a13.2,13.2,0,0,0-2.58-19.75"/><path class="cls-3" d="M95.85,196.14a13.58,13.58,0,0,0-1.42-.82l-.43-.2c-.37-.17-.74-.32-1.12-.46l-.27-.11h0a13.27,13.27,0,1,0,1.33,24.67H94l.21-.11a12.88,12.88,0,0,0,1.15-.62l.26-.15a13.41,13.41,0,0,0,1.29-.94l.3-.27q.47-.42.91-.88l.32-.35a13.2,13.2,0,0,0-2.58-19.75Z"/></g></g></svg>