<svg xmlns="http://www.w3.org/2000/svg" xmlns:xlink="http://www.w3.org/1999/xlink" viewBox="0 0 108 150"><defs><style>.cls-1{fill:none;}.cls-2{fill:#e9e8e9;}.cls-3{fill:#757678;}.cls-4{fill:#221f1f;}.cls-5{clip-path:url(#clip-path);}.cls-6{fill:#c6c7c9;}.cls-7{fill:#fff;}.cls-8{fill:#e61a4f;}.cls-9{fill:#333e48;}.cls-10{fill:#848587;}.cls-11{fill:#fed771;}</style><clipPath id="clip-path"><rect class="cls-1" width="108" height="150"/></clipPath></defs><title>me-business</title><g id="Шар_2" data-name="Шар 2"><g id="Layer_1" data-name="Layer 1"><rect class="cls-2" x="13" y="14" width="95" height="136"/><rect class="cls-3" x="8" y="9" width="93" height="134"/><path class="cls-4" d="M100,142H9V10h91ZM102,8H7V144h95Z"/><rect class="cls-2" x="1" y="1" width="93" height="134"/><path class="cls-4" d="M2,2H93V134H2ZM0,136H95V0H0Z"/><g class="cls-5"><path class="cls-6" d="M82,121H20a5,5,0,0,1-5-5V30a5,5,0,0,1,5-5H82a5,5,0,0,1,5,5v86a5,5,0,0,1-5,5"/><rect class="cls-7" x="12.5" y="21.5" width="68" height="93" rx="3.5" ry="3.5"/><path class="cls-8" d="M77,23a2,2,0,0,1,2,2v86a2,2,0,0,1-2,2H16a2,2,0,0,1-2-2V25a2,2,0,0,1,2-2H77m0-3H16a5,5,0,0,0-5,5v86a5,5,0,0,0,5,5H77a5,5,0,0,0,5-5V25a5,5,0,0,0-5-5"/><polygon class="cls-9" points="61.73 51.49 31.77 51.49 30.18 49.4 63.26 49.4 61.73 51.49"/><path class="cls-10" d="M72.94,48.72a1,1,0,0,1,1.06,1V85.69a1,1,0,0,1-1.06,1H22.06s-1.06-.46-1.06-1V49.76a1,1,0,0,1,1.06-1Z"/><polyline class="cls-7" points="47 62.72 47 72.72 48 72.72 48 62.72"/><polyline class="cls-7" points="52.12 63.35 62.58 73.81 63.58 72.81 53.12 62.35"/><polyline class="cls-7" points="42.04 62.35 31.58 72.81 32.58 73.81 43.03 63.35"/><polygon class="cls-11" points="52.78 54.73 53 54.94 53 62.51 52.78 62.73 42.22 62.73 42 62.51 42 54.94 42.22 54.73 52.78 54.73"/><polygon class="cls-11" points="52.78 72.77 53 72.99 53 80.51 52.78 80.72 42.22 80.72 42 80.51 42 72.99 42.22 72.77 52.78 72.77"/><polygon class="cls-11" points="36.78 72.77 37 72.99 37 80.51 36.78 80.72 26.22 80.72 26 80.51 26 72.99 26.22 72.77 36.78 72.77"/><polygon class="cls-11" points="68.78 72.77 69 72.99 69 80.51 68.78 80.72 58.22 80.72 58 80.51 58 72.99 58.22 72.77 68.78 72.77"/></g></g></g></svg>