<svg xmlns="http://www.w3.org/2000/svg" xmlns:xlink="http://www.w3.org/1999/xlink" viewBox="0 0 108 150"><defs><style>.cls-1,.cls-11,.cls-12{fill:none;}.cls-2{fill:#e9e8e9;}.cls-3{fill:#757678;}.cls-4{fill:#221f1f;}.cls-5{clip-path:url(#clip-path);}.cls-6{fill:#c6c7c9;}.cls-7{fill:#747578;}.cls-8{fill:#e61a4f;}.cls-9{fill:#fed771;}.cls-10{fill:#afb1b3;}.cls-11{stroke:#586069;}.cls-11,.cls-12{stroke-miterlimit:10;}.cls-12{stroke:#afb1b3;}.cls-13{fill:#fff;}</style><clipPath id="clip-path"><rect class="cls-1" width="108" height="150"/></clipPath></defs><title>me-BI</title><g id="Шар_2" data-name="Шар 2"><g id="Layer_1" data-name="Layer 1"><rect class="cls-2" x="13" y="14" width="95" height="136"/><rect class="cls-3" x="8" y="9" width="93" height="134"/><path class="cls-4" d="M100,142H9V10h91ZM102,8H7V144h95Z"/><rect class="cls-2" x="1" y="1" width="93" height="134"/><path class="cls-4" d="M2,2H93V134H2ZM0,136H95V0H0Z"/><g class="cls-5"><path class="cls-6" d="M82,121H20a5,5,0,0,1-5-5V30a5,5,0,0,1,5-5H82a5,5,0,0,1,5,5v86a5,5,0,0,1-5,5"/><rect class="cls-7" x="12.5" y="21.5" width="68" height="93" rx="3.5" ry="3.5"/><path class="cls-8" d="M77,23a2,2,0,0,1,2,2v86a2,2,0,0,1-2,2H16a2,2,0,0,1-2-2V25a2,2,0,0,1,2-2H77m0-3H16a5,5,0,0,0-5,5v86a5,5,0,0,0,5,5H77a5,5,0,0,0,5-5V25a5,5,0,0,0-5-5"/><path class="cls-9" d="M70.84,41A9.39,9.39,0,0,0,64,38v9.48Z"/><path class="cls-10" d="M70.27,43,63,49.89V39.84A10,10,0,1,0,70.27,43"/><path class="cls-11" d="M46.6,86.71V46.29M26.39,66.5H66.81"/><rect class="cls-9" x="22" y="45" width="4" height="14.86"/><rect class="cls-10" x="29" y="39" width="4" height="20.86"/><rect class="cls-9" x="66" y="84" width="5" height="5"/><rect class="cls-10" x="36" y="43" width="4" height="16.86"/><path class="cls-12" d="M65.5,95.25V77.17m-6,18.13V77.23m12.09-3.67H54.49V95.24h17.1Z"/><rect class="cls-2" x="54" y="73" width="18" height="4"/><path class="cls-9" d="M30.29,77.47a9.7,9.7,0,0,0-6,2.53l3.6,3.61a4.65,4.65,0,0,1,2.41-1Z"/><path class="cls-10" d="M31.32,77.47v5.11a4.65,4.65,0,0,1,2.44,1L37.37,80a9.7,9.7,0,0,0-6-2.49"/><path class="cls-10" d="M23.55,80.73a9.75,9.75,0,0,0-2.46,6h5.08a4.66,4.66,0,0,1,1-2.42Z"/><path class="cls-10" d="M38.1,80.69l-3.6,3.6a4.65,4.65,0,0,1,1,2.46H40.6a9.75,9.75,0,0,0-2.5-6.06"/><polygon class="cls-13" points="31.83 89.28 37.94 83.58 37.24 82.83 30.31 89.28 31.83 89.28"/><rect class="cls-10" x="55" y="83" width="17" height="1"/><rect class="cls-10" x="55" y="89" width="17" height="1"/></g></g></g></svg>