<svg xmlns="http://www.w3.org/2000/svg" viewBox="0 0 57.46 78.34"><defs><style>.cls-1{fill:#bcbec0;}.cls-2{fill:#97999c;}.cls-3{fill:#737577;}.cls-4{fill:#848689;}.cls-5{fill:#fff;}.cls-6{fill:#231f20;}.cls-7{fill:#afb1b4;}.cls-8{fill:#e9004c;}</style></defs><title>me-custimised-solution</title><g id="Шар_2" data-name="Шар 2"><g id="Layer_1" data-name="Layer 1"><path class="cls-1" d="M46.83,17.21l-1.21.86s-1.11.74-1.29,3l-.08.69a1.06,1.06,0,0,0,.82-.89,8.2,8.2,0,0,1,.32-2.62,1.8,1.8,0,0,1,.2-.18l.71-.51.53-.38Zm-5.73,0h0l1.33,1,.07.07a1.41,1.41,0,0,0-.18-.16l-1-.71Zm1.4,1a7.11,7.11,0,0,1,.34,2.56h0a1,1,0,0,0,.83,1l-.07-.67V21a4.36,4.36,0,0,0-1.09-2.76"/><path class="cls-2" d="M44.26,21.79a1.19,1.19,0,0,1-.29,0,1.21,1.21,0,0,1-.28,0c.1.83.2,1.65.28,2.27v0s.08-.61.28-2.28"/><polygon class="cls-3" points="45.09 25.18 44.12 25.18 44.12 25.2 42.85 25.2 42.85 26.17 45.09 26.17 45.09 25.18"/><path class="cls-4" d="M42.85,20.8h0c0,1.26,0,2.69,0,3.64a4.29,4.29,0,0,0,1.19.17,3.3,3.3,0,0,0,1-.16c0-.92,0-2.31,0-3.55a1.06,1.06,0,0,1-.82.89c-.2,1.66-.28,2.28-.28,2.28v0c-.08-.63-.19-1.45-.28-2.28a1,1,0,0,1-.83-1"/><path class="cls-3" d="M42.85,24.44c0,.27,0,.5,0,.67v.09h2.24v-.07c0-.17,0-.4,0-.66a3.29,3.29,0,0,1-1,.16,4.29,4.29,0,0,1-1.19-.18"/><path class="cls-3" d="M42.85,20.8h-.53v5.38h.53V25.11c0-.18,0-.41,0-.67,0-1,0-2.38,0-3.64"/><path class="cls-3" d="M46.57,20.8H45.09v.11c0,1.24,0,2.63,0,3.55,0,.26,0,.48,0,.66v1.07h1.49Z"/><path class="cls-3" d="M41.4,50.76h1.5s-.11-.92,1.12-.92,0-1.08,0-1.08"/><path class="cls-3" d="M42,49.12s-1.33.86,2.33.81,4.07-.69,4.07-.69"/><path class="cls-3" d="M46.55,50.76H45s.11-.92-1.12-.92,0-1.08,0-1.08"/><path class="cls-5" d="M44,15.23a4.84,4.84,0,0,0,4.48-3.47,22.19,22.19,0,0,0,.9-6.2C49.36,4.24,48.82.48,44,.3,39.14.48,38.6,4.24,38.6,5.56a22.17,22.17,0,0,0,.9,6.2A4.85,4.85,0,0,0,44,15.23"/><path class="cls-6" d="M44,15.23v.29a5.32,5.32,0,0,0,2-.46,5,5,0,0,0,2.79-3.21h0a22.46,22.46,0,0,0,.9-6.27,6,6,0,0,0-.92-3.21A5.52,5.52,0,0,0,44,0h0a5.53,5.53,0,0,0-4.74,2.34,6,6,0,0,0-.92,3.21,22.44,22.44,0,0,0,.9,6.27h0A5,5,0,0,0,42,15.06a5.32,5.32,0,0,0,2,.46v-.58a3.62,3.62,0,0,1-.52-.05,4.88,4.88,0,0,1-1.92-.75,4.44,4.44,0,0,1-1.76-2.46l-.28.08.28-.07a21.92,21.92,0,0,1-.89-6.13,5.48,5.48,0,0,1,.83-2.9A4.94,4.94,0,0,1,44,.58v0a4.94,4.94,0,0,1,4.27,2.08,5.48,5.48,0,0,1,.83,2.9,21.86,21.86,0,0,1-.89,6.13l.28.07-.28-.08a4.39,4.39,0,0,1-2.47,2.85,5,5,0,0,1-1.22.36,3.82,3.82,0,0,1-.52.05Z"/><path class="cls-7" d="M44,15.23a4.84,4.84,0,0,0,4.48-3.47,22.19,22.19,0,0,0,.9-6.2C49.36,4.24,48.82.48,44,.3,39.14.48,38.6,4.24,38.6,5.56a22.17,22.17,0,0,0,.9,6.2A4.85,4.85,0,0,0,44,15.23"/><path class="cls-3" d="M44,15.23v.29a5.32,5.32,0,0,0,2-.46,5,5,0,0,0,2.79-3.21h0a22.46,22.46,0,0,0,.9-6.27,6,6,0,0,0-.92-3.21A5.52,5.52,0,0,0,44,0h0a5.53,5.53,0,0,0-4.74,2.34,6,6,0,0,0-.92,3.21,22.44,22.44,0,0,0,.9,6.27h0A5,5,0,0,0,42,15.06a5.32,5.32,0,0,0,2,.46v-.58a3.62,3.62,0,0,1-.52-.05,4.88,4.88,0,0,1-1.92-.75,4.44,4.44,0,0,1-1.76-2.46l-.28.08.28-.07a21.92,21.92,0,0,1-.89-6.13,5.48,5.48,0,0,1,.83-2.9A4.94,4.94,0,0,1,44,.58v0a4.94,4.94,0,0,1,4.27,2.08,5.48,5.48,0,0,1,.83,2.9,21.86,21.86,0,0,1-.89,6.13l.28.07-.28-.08a4.39,4.39,0,0,1-2.47,2.85,5,5,0,0,1-1.22.36,3.82,3.82,0,0,1-.52.05Z"/><path class="cls-7" d="M44.62.34,44,.3a20.59,20.59,0,0,0-5.66.91c0,.62.35,1.45.35,2.24C38.67,4.78,38.6,6,38.6,6"/><path class="cls-3" d="M44.64,0,44,0h0c-.58,0-1.7.1-2.84.25a11.34,11.34,0,0,0-2.94.69L38,1v.19a5.46,5.46,0,0,0,.18,1.12,5.17,5.17,0,0,1,.17,1.12h0V3.5l.29,0h-.3c0,.66,0,1.29,0,1.76s0,.77,0,.77l.59,0S39,4.79,39,3.46v0l-.28,0H39v0l-.28,0H39a5.78,5.78,0,0,0-.18-1.25,5,5,0,0,1-.17-1h-.3l.13.27A11,11,0,0,1,41.22.84C42.33.69,43.44.61,44,.6V.3l0,.3.64,0Z"/><path class="cls-3" d="M56.36,44.24A61.73,61.73,0,0,0,57.41,30c0-.74,0-1.56-.08-2.36a27.08,27.08,0,0,0-1.11-6.6,5.68,5.68,0,0,0-4-3.23A33.61,33.61,0,0,1,48.66,16H48.6a5.88,5.88,0,0,0-.71.44L46.3,17.59l-.71.51a1.71,1.71,0,0,0-.2.18c-.4.7-.34,4.33-.32,6.16a3.89,3.89,0,0,1-2.23,0c0-1.87.09-5.6-.34-6.2l-.08-.07L40.52,16.8l-.33-.25-.3-.22-.21-.14h0c-.18-.12-.34-.2-.4-.18a33.27,33.27,0,0,1-3.59,1.84,5.68,5.68,0,0,0-4,3.23,14,14,0,0,0-.46,1.61h0v.06a33.1,33.1,0,0,0-.64,4.92c0,.63-.08,1.27-.09,1.88a61.83,61.83,0,0,0,1,14.64l3.36,2.36V74.14h0a4,4,0,0,0,8,0h0V49.3H45V74.14h0a4,4,0,1,0,8,0h0V46.58Z"/><path class="cls-3" d="M30.21,42.08H16.85c0-.17-.08-.35-.13-.52a5.5,5.5,0,0,0-2.6-3.38,5.86,5.86,0,0,0-2.71-.64,8.56,8.56,0,0,0-3.86,1,9,9,0,0,0-1.28.8,4.64,4.64,0,0,0-.41.35,1.3,1.3,0,0,0-.24.3L.11,60.39a3.22,3.22,0,0,0,2.25,3.94,30.22,30.22,0,0,0,3.53.72c1,.15,1.94.25,2.65.31L3.06,71.79h0a4,4,0,1,0,6.29,4.91L22.78,61,25,63.05h0a2.55,2.55,0,0,0,3.46-3.74h0l-11.93-11,.41-1.1H30.21a2.55,2.55,0,0,0,0-5.1Zm-13.74,13H14l.63-1.68Z"/><path class="cls-3" d="M15.31,37.41h0a5.19,5.19,0,0,0,1.92.36A4.86,4.86,0,0,0,21,36h0a22.07,22.07,0,0,0,3.27-5.27,6.15,6.15,0,0,0,.5-2.39,4.75,4.75,0,0,0-.69-2.52,6.23,6.23,0,0,0-2.71-2.29h0A7,7,0,0,0,18.84,23a4.76,4.76,0,0,0-3.29,1.28,6.15,6.15,0,0,0-1.42,2,22,22,0,0,0-1.64,6h0a5.89,5.89,0,0,0,0,.65,4.81,4.81,0,0,0,1.43,3.48A5.11,5.11,0,0,0,15.31,37.41Z"/><polygon class="cls-8" points="29.72 75.69 29.72 74.86 31.28 74.86 31.28 73.15 29.72 73.15 29.72 72.32 31.28 72.32 31.28 70.61 29.72 70.61 29.72 69.78 31.28 69.78 31.28 68.07 29.72 68.07 29.72 67.24 31.28 67.24 31.28 65.53 29.72 65.53 29.72 64.7 31.28 64.7 31.28 62.99 29.87 62.99 29.87 62.16 31.28 62.16 31.28 60.45 29.87 60.45 29.87 59.62 31.28 59.62 31.28 57.92 29.87 57.92 29.87 57.08 31.28 57.08 31.28 55.38 29.87 55.38 29.87 54.55 31.28 54.55 31.28 52.84 29.87 52.84 29.87 52.01 31.28 52.01 31.28 50.3 29.87 50.3 29.87 49.47 31.28 49.47 31.28 46.03 28.51 46.03 28.51 78.33 31.28 78.33 31.28 75.69 29.72 75.69"/></g></g></svg>