<svg xmlns="http://www.w3.org/2000/svg" viewBox="0 0 326.82 158.08"><defs><style>.cls-1{fill:#fff;}.cls-2{fill:#e9e9ea;}.cls-3{fill:#c7c8ca;}.cls-4{fill:#e9004c;}.cls-11,.cls-13,.cls-14,.cls-15,.cls-16,.cls-5,.cls-7{fill:none;stroke-miterlimit:10;}.cls-11,.cls-13,.cls-5,.cls-7{stroke:#231f20;}.cls-5{stroke-width:0.74px;}.cls-6{fill:#231f20;}.cls-7{stroke-width:0.71px;}.cls-8{fill:#e2e3e4;}.cls-9{fill:#ffe9b1;}.cls-10{fill:#737577;}.cls-11{stroke-width:0.66px;}.cls-12{fill:#333e48;}.cls-13{stroke-width:0.7px;}.cls-14,.cls-15,.cls-16{stroke:#e9004c;}.cls-14{stroke-width:2.16px;}.cls-15{stroke-width:2.26px;}.cls-16{stroke-width:2.13px;}.cls-17{fill:#bcbec0;}</style></defs><title>me-car</title><g id="Шар_2" data-name="Шар 2"><g id="Layer_1" data-name="Layer 1"><path class="cls-1" d="M185.84,15.22l3.33-4.87L178.58,1.46S174.31,6,171.66,6.93c-2.26.8-5.95,2.24-6.92,7.59l-.2-.16A9.56,9.56,0,0,0,159,17.75c-2.05,2.8-5.47,6.53-7.18,6.65V39.21h27s3.65-.47,4.33-3.27S185,25.1,185,25.1a7.74,7.74,0,0,0-.41-4l.17,0Z"/><rect class="cls-2" x="87.4" y="10.27" width="70.1" height="40.48"/><path class="cls-3" d="M157.84,49.31h-.53a1,1,0,0,1-.35.77,1.27,1.27,0,0,1-.87.33H89.43a1.26,1.26,0,0,1-.86-.33,1,1,0,0,1-.35-.77V8.81A1,1,0,0,1,88.57,8a1.26,1.26,0,0,1,.86-.33H156.1A1.27,1.27,0,0,1,157,8a1,1,0,0,1,.35.77V49.31h1.06V8.81a2.2,2.2,0,0,0-2.27-2.12H89.43a2.2,2.2,0,0,0-2.27,2.12V49.31a2.2,2.2,0,0,0,2.27,2.12H156.1a2.2,2.2,0,0,0,2.27-2.12Z"/><path class="cls-3" d="M157.57,10.47V8.29a1.68,1.68,0,0,0-1.74-1.61H89.17a1.68,1.68,0,0,0-1.74,1.61v2.17Z"/><path class="cls-4" d="M82.41,49.64s.43-6.48,2.8-8.92,6.58-4.26,8.3-5.27c1.11,1,2,2.41,5,2.51H99c2.95-.09,3.87-1.55,5-2.51,1.73,1,5.93,2.82,8.3,5.27s2.8,8.92,2.8,8.92H82.41Z"/><path class="cls-5" d="M82.41,49.64s.43-6.48,2.8-8.92,6.58-4.26,8.3-5.27c1.11,1,2,2.41,5,2.51H99c2.95-.09,3.87-1.55,5-2.51,1.73,1,5.93,2.82,8.3,5.27s2.8,8.92,2.8,8.92H82.41Z"/><rect class="cls-4" x="88.75" y="46.82" width="8.42" height="16.03"/><polyline class="cls-1" points="91.68 64.69 89.91 63.59 97.1 59.82 99.43 61.81 101.42 62.7 101.53 65.36 94.56 65.8"/><path class="cls-1" d="M109.27,57.12l2.72-3a22,22,0,0,0,.34-4.23c0-3.74-2.24-8.2-8.56-8.44h-.1c-6.3.24-8.53,4.7-8.53,8.44,0,1.79,0,3.33,1.2,8.37l0,.08A7.89,7.89,0,0,0,103.73,64a10.37,10.37,0,0,0,4.44-1.91Z"/><path class="cls-6" d="M120.52,42.75c-6.9.27-7.25,6-7.25,7.12,0,1.7,0,3.18,1.17,8.06a6.31,6.31,0,0,0,12.21,0c1.16-4.86,1.16-6.33,1.16-8,0-1.14-.35-6.85-7.28-7.12"/><path class="cls-1" d="M120.52,42.75l-.05-1.33a9.82,9.82,0,0,0-4.67,1.25,7.38,7.38,0,0,0-2.16,1.92,8.4,8.4,0,0,0-1.45,3.15,9.46,9.46,0,0,0-.26,2.13,22,22,0,0,0,.16,3,49.27,49.27,0,0,0,1,5.37v.08A8.07,8.07,0,0,0,115,61.54a7.79,7.79,0,0,0,3.53,2.11,7.7,7.7,0,0,0,2,.31,8.11,8.11,0,0,0,3.13-.73,7.6,7.6,0,0,0,2.4-1.71,8.13,8.13,0,0,0,1.84-3.23v-.08a49,49,0,0,0,1-5.35,22.22,22.22,0,0,0,.15-3,9.24,9.24,0,0,0-1.23-4.57,7.43,7.43,0,0,0-2.65-2.63,9.88,9.88,0,0,0-4.68-1.24h-.1l.05,1.33-.05,1.33a7.25,7.25,0,0,1,3.44.88,4.74,4.74,0,0,1,1.39,1.23,5.75,5.75,0,0,1,1,2.16,6.82,6.82,0,0,1,.19,1.52,19.41,19.41,0,0,1-.14,2.67,46.66,46.66,0,0,1-1,5.06l1.29.31-1.27-.39a5.48,5.48,0,0,1-1.24,2.19,5.14,5.14,0,0,1-2.34,1.39,5.86,5.86,0,0,1-.91.19l-.27,0h-.13a5.71,5.71,0,0,1-2.2-.59,4.85,4.85,0,0,1-1.46-1.1,5.49,5.49,0,0,1-1.14-2.08l-1.27.39,1.29-.31a47.12,47.12,0,0,1-1-5.08,19.64,19.64,0,0,1-.14-2.68,6.68,6.68,0,0,1,.85-3.21,4.74,4.74,0,0,1,1.7-1.7,7.18,7.18,0,0,1,3.42-.88l-.05-1.33-.05,1.33Z"/><path class="cls-3" d="M107.16,75.8h29.48a28.56,28.56,0,0,0-.85-4.33,9.79,9.79,0,0,0-2-4.15c-2.37-2.45-6.58-4.27-8.3-5.27-1.11,1-2,2.41-5,2.5H120c-3-.09-3.87-1.55-5-2.5-1.62.94-5.44,2.61-7.87,4.84Z"/><path class="cls-7" d="M107.16,75.8h29.48a28.56,28.56,0,0,0-.85-4.33,9.79,9.79,0,0,0-2-4.15c-2.37-2.45-6.58-4.27-8.3-5.27-1.11,1-2,2.41-5,2.5H120c-3-.09-3.87-1.55-5-2.5-1.62.94-5.44,2.61-7.87,4.84Z"/><path class="cls-3" d="M103.73,61.4a5.57,5.57,0,0,0,5.15-4,25.51,25.51,0,0,0,1-7.13c0-1.51-.62-5.83-6.18-6-5.56.21-6.18,4.53-6.18,6a25.49,25.49,0,0,0,1,7.13,5.57,5.57,0,0,0,5.15,4"/><path class="cls-6" d="M103.73,61.4v.33A6.13,6.13,0,0,0,106,61.2a5.71,5.71,0,0,0,3.2-3.69h0a25.83,25.83,0,0,0,1-7.2,6.94,6.94,0,0,0-1.06-3.69c-.9-1.38-2.57-2.58-5.44-2.69h0c-2.87.1-4.54,1.3-5.44,2.69a6.94,6.94,0,0,0-1.06,3.69,25.83,25.83,0,0,0,1,7.2h0a5.71,5.71,0,0,0,3.2,3.69,6.13,6.13,0,0,0,2.26.53v-.66a4.16,4.16,0,0,1-.6-.06,5.59,5.59,0,0,1-2.21-.86,5.1,5.1,0,0,1-2-2.83l-.32.1.32-.08a25.17,25.17,0,0,1-1-7A6.3,6.3,0,0,1,98.83,47c.8-1.21,2.21-2.28,4.91-2.39v0c2.7.11,4.11,1.18,4.91,2.39a6.3,6.3,0,0,1,1,3.33,25.17,25.17,0,0,1-1,7l.32.08-.32-.1a5,5,0,0,1-2.84,3.28,5.83,5.83,0,0,1-1.4.41l-.44.05h-.16Z"/><path class="cls-3" d="M119,75.5a27.7,27.7,0,0,0-.82-4.19,9.48,9.48,0,0,0-1.94-4c-2.3-2.37-6.37-4.13-8-5.11-1.08.92-2,2.34-4.83,2.43h-.48c-2.86-.09-3.75-1.5-4.83-2.43-1.57.92-5.28,2.53-7.62,4.7V75.5H91.8l-.48-.79,3.88-2.53s1.81.18.5,1.54a10,10,0,0,1-2.59,1.78Z"/><path class="cls-6" d="M98.1,62.19l.17.29-.22.12A13.34,13.34,0,0,0,99.66,64a5.94,5.94,0,0,0,3.26,1h.25v0h.25a5.93,5.93,0,0,0,3.26-1,13.27,13.27,0,0,0,1.61-1.4l-.22-.12.17-.29.22.25-.17.15c.87.49,2.18,1.12,3.58,1.91a19,19,0,0,1,4.18,3,9.2,9.2,0,0,1,1.86,3.88h0l.1.39a27.24,27.24,0,0,1,.67,3.39H119v.33l-.33,0c0-.12,0-.24,0-.36H100.49v.66h18.92l0-.36a27.83,27.83,0,0,0-.83-4.25l-.32.09.32-.09h0a9.79,9.79,0,0,0-2-4.16,19.62,19.62,0,0,0-4.33-3.13c-1.53-.87-3-1.55-3.79-2l-.2-.12-.18.15a17.61,17.61,0,0,1-1.72,1.5,5.26,5.26,0,0,1-2.91.85h-.46a5.26,5.26,0,0,1-2.91-.85,17.73,17.73,0,0,1-1.72-1.5l-.18-.15-.2.12c-.76.45-2.09,1.08-3.52,1.88a22.22,22.22,0,0,0-4.17,2.86l-.11.1v9.1h1v-.66H90.8v.33h-.33v-.33h.33V67l-.11.09-.23-.24h.33V67a21.94,21.94,0,0,1,3.93-2.68C96,63.63,97.23,63,98,62.59"/><path class="cls-1" d="M97.57,71.59s5-2.6,5.39-2.86,2.13,1.8,2.13,1.8l-5,2.69"/><rect class="cls-1" x="104.22" y="70.93" width="9.57" height="4.27"/><path class="cls-8" d="M101,72.9a41.18,41.18,0,0,0-4.31-1.74L96,72l-6.86,4.47L92,76.33l2.74-2.43,3.12,1.44-.72.74,3.14-.15s2-2.33.74-3"/><path class="cls-3" d="M120.32,61.4a5.57,5.57,0,0,0,5.15-4,25.51,25.51,0,0,0,1-7.13c0-1.51-.62-5.83-6.18-6-5.56.21-6.18,4.53-6.18,6a25.49,25.49,0,0,0,1,7.13,5.57,5.57,0,0,0,5.15,4"/><path class="cls-6" d="M120.32,61.4v.33a6.12,6.12,0,0,0,2.26-.53,5.71,5.71,0,0,0,3.21-3.69h0a25.89,25.89,0,0,0,1-7.2,7,7,0,0,0-1.06-3.69c-.9-1.38-2.57-2.58-5.44-2.69h0c-2.87.1-4.54,1.3-5.44,2.69a7,7,0,0,0-1.06,3.69,25.89,25.89,0,0,0,1,7.2h0a5.71,5.71,0,0,0,3.2,3.69,6.13,6.13,0,0,0,2.26.53v-.66a4.16,4.16,0,0,1-.6-.06,5.59,5.59,0,0,1-2.21-.86,5.1,5.1,0,0,1-2-2.83l-.32.1.32-.08a25.09,25.09,0,0,1-1-7,6.29,6.29,0,0,1,.95-3.33c.8-1.21,2.21-2.28,4.91-2.39v0c2.7.11,4.11,1.18,4.91,2.39a6.29,6.29,0,0,1,.95,3.33,25.2,25.2,0,0,1-1,7l.32.08-.32-.1a5,5,0,0,1-2.84,3.28,5.82,5.82,0,0,1-1.4.41l-.44.05h-.16Z"/><path class="cls-6" d="M109,51.89c-6.46.27-6.78,6-6.78,7.12a30.73,30.73,0,0,0,1.09,8.06,5.81,5.81,0,0,0,11.42,0,30.66,30.66,0,0,0,1.09-8c0-1.14-.33-6.85-6.81-7.12"/><path class="cls-1" d="M94.07,64A24.17,24.17,0,0,0,88,60.47L87.15,72s1.12,1.77,2.68,4h9.23c-.12-1.27-.27-2.39-.46-3.43l-2.69,1.31-6-7.63Z"/><path class="cls-1" d="M109,51.89l-.05-1.28a8.84,8.84,0,0,0-4.41,1.26,7.08,7.08,0,0,0-2,1.92,8.61,8.61,0,0,0-1.34,3.12,10,10,0,0,0-.24,2.1,23.53,23.53,0,0,0,.15,3,52.38,52.38,0,0,0,1,5.36v.08a8.15,8.15,0,0,0,1.71,3.19,7.24,7.24,0,0,0,3.33,2.12,6.86,6.86,0,0,0,1.9.32,7.27,7.27,0,0,0,3-.74,7.16,7.16,0,0,0,2.26-1.71A8.22,8.22,0,0,0,116,67.4v-.08a52.39,52.39,0,0,0,1-5.34,23.6,23.6,0,0,0,.14-3A9.63,9.63,0,0,0,116,54.5a7.19,7.19,0,0,0-2.48-2.63,8.89,8.89,0,0,0-4.43-1.26h-.11l.05,1.28-.05,1.28a6.33,6.33,0,0,1,3.17.87,4.5,4.5,0,0,1,1.3,1.23,6,6,0,0,1,.93,2.19,7.49,7.49,0,0,1,.18,1.55,21.08,21.08,0,0,1-.13,2.69,49.54,49.54,0,0,1-.93,5.07l1.25.28-1.23-.36a5.64,5.64,0,0,1-1.17,2.22,4.69,4.69,0,0,1-2.16,1.38,5,5,0,0,1-.83.18l-.24,0H109a4.93,4.93,0,0,1-2-.57,4.56,4.56,0,0,1-1.35-1.1,5.65,5.65,0,0,1-1.08-2.11l-1.23.36,1.25-.28a49.74,49.74,0,0,1-.93-5.09A21,21,0,0,1,103.5,59a7.18,7.18,0,0,1,.81-3.26A4.61,4.61,0,0,1,105.9,54a6.27,6.27,0,0,1,3.15-.87L109,51.89l-.05,1.28Z"/><path class="cls-2" d="M113.25,70.29l.44,1.35s2.93-1.5,4.59-10.25"/><path class="cls-1" d="M115,66.26l2.72-3a22,22,0,0,0,.33-4.23c0-3.74-2.24-8.2-8.56-8.44h-.1c-6.29.24-8.53,4.7-8.53,8.44,0,1.79,0,3.33,1.2,8.37l0,.08a7.89,7.89,0,0,0,7.37,5.64,10.37,10.37,0,0,0,4.44-1.91Z"/><path class="cls-1" d="M112.27,70.67l.94,1.37s3.72-2.64,3.06-6.14-3.54.17-3.54.17"/><path class="cls-3" d="M109.48,70.29a5.57,5.57,0,0,0,5.15-4,25.49,25.49,0,0,0,1-7.13c0-1.51-.62-5.83-6.18-6-5.56.21-6.18,4.53-6.18,6a25.51,25.51,0,0,0,1,7.13,5.57,5.57,0,0,0,5.15,4"/><path class="cls-6" d="M109.48,70.29v.33a6.09,6.09,0,0,0,2.26-.53,5.71,5.71,0,0,0,3.2-3.69h0a25.83,25.83,0,0,0,1-7.2,6.94,6.94,0,0,0-1.06-3.69c-.9-1.38-2.57-2.58-5.44-2.69h0c-2.87.1-4.54,1.3-5.44,2.69A6.94,6.94,0,0,0,103,59.18a25.83,25.83,0,0,0,1,7.2h0a5.71,5.71,0,0,0,3.2,3.69,6.1,6.1,0,0,0,2.26.53V70a4.16,4.16,0,0,1-.6-.06,5.59,5.59,0,0,1-2.21-.86,5.11,5.11,0,0,1-2-2.83l-.32.1.32-.08a25.17,25.17,0,0,1-1-7,6.3,6.3,0,0,1,1-3.33c.8-1.21,2.21-2.28,4.91-2.39v0c2.7.11,4.11,1.18,4.91,2.39a6.3,6.3,0,0,1,.95,3.33,25.17,25.17,0,0,1-1,7l.32.08-.32-.1a5,5,0,0,1-2.84,3.28,5.82,5.82,0,0,1-1.4.41l-.44.05h-.16Z"/><path class="cls-6" d="M100.94,60.17a5.09,5.09,0,0,1-2-2.83,25.24,25.24,0,0,1-1-7c0-1.29.42-5.5,5.84-5.71,5.44.21,5.86,4.43,5.86,5.71h.66c0-1-.31-6.14-6.52-6.38-6.19.24-6.5,5.36-6.5,6.38a25.86,25.86,0,0,0,1,7.22A5.7,5.7,0,0,0,101,60.95c0-.27,0-.53,0-.78"/><rect class="cls-8" x="97.12" y="73.56" width="1.87" height="2.39"/><path class="cls-1" d="M119.69,9.25h6.09a.68.68,0,0,0,0-1.35h-6.09a.68.68,0,0,0,0,1.35"/><path class="cls-9" d="M98.64,16.4c-5.65.22-6.28,4.6-6.28,6.14a25.9,25.9,0,0,0,1,7.24,5.4,5.4,0,0,0,10.46,0,25.9,25.9,0,0,0,1-7.24c0-1.54-.63-5.92-6.27-6.14"/><path class="cls-6" d="M98.64,16.4v-.33c-2.91.11-4.61,1.32-5.52,2.73A7,7,0,0,0,92,22.54a26.22,26.22,0,0,0,1.06,7.31h0a5.79,5.79,0,0,0,3.25,3.74,6.21,6.21,0,0,0,2.3.54v-.33l0,.33h0v-.33l0,.33h0a6.21,6.21,0,0,0,2.3-.54,5.79,5.79,0,0,0,3.25-3.74h0a26.3,26.3,0,0,0,1.06-7.31,7,7,0,0,0-1.07-3.74c-.91-1.4-2.61-2.62-5.52-2.73h0v.66c2.74.11,4.18,1.2,5,2.43a6.39,6.39,0,0,1,1,3.38,25.58,25.58,0,0,1-1,7.16l.32.08-.32-.1A5.12,5.12,0,0,1,100.67,33a5.9,5.9,0,0,1-1.42.42,4.23,4.23,0,0,1-.61.06v.33l0-.33h0a4.23,4.23,0,0,1-.61-.06,5.71,5.71,0,0,1-2.24-.87,5.19,5.19,0,0,1-2.06-2.87l-.32.1.32-.08a25.49,25.49,0,0,1-1-7.16,6.39,6.39,0,0,1,1-3.38c.81-1.23,2.25-2.31,5-2.43Z"/><path class="cls-9" d="M112.73,37l5.1-4.24a1,1,0,0,1,1.35.21,1,1,0,0,1,.05,1.13c-.12.14-2.53,2.58-2.53,2.58a11.72,11.72,0,0,1,1.53,4.61c-1.25,1.16-3.4,3.43-5.7,1.92s-2.54-6.07-1.66-9.14c.85.06,1.93.33,1.87,2.92"/><path class="cls-6" d="M112.73,37l.2.24L118,33l-.2-.24L118,33h0a.85.85,0,0,1,.4-.11.7.7,0,0,1,.54.27l.23-.2-.24.2a.6.6,0,0,1,.14.39.8.8,0,0,1,0,.24l0,.08v0h0l-.13.14-1.39,1.43-1,1-.17.17.12.2.06.11a15.48,15.48,0,0,1,.82,1.75,7.72,7.72,0,0,1,.61,2.6h.31l-.21-.23a17,17,0,0,1-1.75,1.52,3.82,3.82,0,0,1-2.14.82,2.55,2.55,0,0,1-1.43-.45,4.12,4.12,0,0,1-1.51-2.16,10,10,0,0,1-.48-3.22,12.69,12.69,0,0,1,.46-3.42l-.3-.08,0,.31a1.5,1.5,0,0,1,1,.39,2.81,2.81,0,0,1,.53,2V37l0,.68.52-.43-.2-.24H113c0-.08,0-.15,0-.22a3.38,3.38,0,0,0-.71-2.45,2.11,2.11,0,0,0-1.44-.57l-.25,0-.07.24a13.31,13.31,0,0,0-.48,3.59A10.61,10.61,0,0,0,110.6,41a4.71,4.71,0,0,0,1.76,2.47,3.18,3.18,0,0,0,1.76.55,4.42,4.42,0,0,0,2.5-.93,17.84,17.84,0,0,0,1.82-1.57l.1-.09v-.14a8.86,8.86,0,0,0-.8-3.17,15.2,15.2,0,0,0-.78-1.59l-.27.15.22.22,1.22-1.24.86-.88.3-.31.15-.16h0a.92.92,0,0,0,.16-.31,1.39,1.39,0,0,0,.07-.43,1.21,1.21,0,0,0-.28-.79h0a1.32,1.32,0,0,0-1-.48,1.43,1.43,0,0,0-.74.21h0l-5.12,4.25.2.24h0Z"/><rect class="cls-1" x="113.66" y="69.51" width="3.31" height="4.76"/><path class="cls-6" d="M141.93,43c-6.62.27-7,6-7,7.12,0,1.7,0,3.18,1.12,8.06a6,6,0,0,0,11.7,0c1.11-4.86,1.11-6.33,1.11-8,0-1.14-.34-6.85-7-7.12"/><rect class="cls-3" x="118.05" y="68.74" width="2.13" height="4.42"/><path class="cls-1" d="M142,43,142,41.63a9.39,9.39,0,0,0-4.57,1.26,7.27,7.27,0,0,0-2.1,1.92A8.52,8.52,0,0,0,133.9,48a9.68,9.68,0,0,0-.25,2.12,22.74,22.74,0,0,0,.15,3,50.63,50.63,0,0,0,1,5.36v.08a8.13,8.13,0,0,0,1.78,3.21,7.57,7.57,0,0,0,3.46,2.12,7.31,7.31,0,0,0,2,.32,7.74,7.74,0,0,0,3.08-.74,7.42,7.42,0,0,0,2.35-1.72,8.18,8.18,0,0,0,1.78-3.22v-.08a50.42,50.42,0,0,0,1-5.35,23,23,0,0,0,.15-3,9.42,9.42,0,0,0-1.19-4.54,7.33,7.33,0,0,0-2.58-2.64,9.46,9.46,0,0,0-4.59-1.26H142L142,43,142,44.28a6.77,6.77,0,0,1,3.29.87,4.6,4.6,0,0,1,1.34,1.22,5.88,5.88,0,0,1,1,2.17,7.17,7.17,0,0,1,.18,1.53,20.31,20.31,0,0,1-.13,2.68,48,48,0,0,1-1,5.06l1.31.3-1.29-.38a5.54,5.54,0,0,1-1.2,2.2,4.9,4.9,0,0,1-2.24,1.37,5.29,5.29,0,0,1-.87.18l-.25,0H142a5.29,5.29,0,0,1-2.09-.57,4.7,4.7,0,0,1-1.4-1.1,5.56,5.56,0,0,1-1.11-2.08l-1.29.38,1.31-.3a48.36,48.36,0,0,1-1-5.08,20,20,0,0,1-.13-2.68,6.87,6.87,0,0,1,.83-3.23,4.65,4.65,0,0,1,1.64-1.69,6.71,6.71,0,0,1,3.28-.87L142,43,142,44.28Z"/><path class="cls-3" d="M142,61.48a5.57,5.57,0,0,0,5.15-4,25.51,25.51,0,0,0,1-7.12c0-1.51-.62-5.83-6.18-6-5.56.21-6.18,4.53-6.18,6a25.49,25.49,0,0,0,1,7.13,5.57,5.57,0,0,0,5.15,4"/><path class="cls-10" d="M97.53,79.47s-.41-9.24-2.7-11.59a26.45,26.45,0,0,0-6.57-4.31c-1,1.17-3,2.56-6.7,2.6a10.19,10.19,0,0,1-6.21-2.6,26.52,26.52,0,0,0-6.58,4.31c-2.13,2.48-2.7,8.59-2.7,8.59S66,79,66,79.85"/><path class="cls-11" d="M97.53,79.47s-.41-9.24-2.7-11.59a26.45,26.45,0,0,0-6.57-4.31c-1,1.17-3,2.56-6.7,2.6a10.19,10.19,0,0,1-6.21-2.6,26.52,26.52,0,0,0-6.58,4.31c-2.13,2.48-2.7,8.59-2.7,8.59S66,79,66,79.85"/><path class="cls-6" d="M142,61.48v.33a6.1,6.1,0,0,0,2.26-.53,5.71,5.71,0,0,0,3.2-3.69h0a25.89,25.89,0,0,0,1-7.2,7,7,0,0,0-1.06-3.69c-.9-1.38-2.57-2.58-5.44-2.69h0c-2.87.1-4.54,1.3-5.44,2.69a6.94,6.94,0,0,0-1.06,3.69,25.83,25.83,0,0,0,1,7.2h0a5.71,5.71,0,0,0,3.2,3.69,6.1,6.1,0,0,0,2.26.53v-.66a4.16,4.16,0,0,1-.6-.06,5.59,5.59,0,0,1-2.21-.86,5.1,5.1,0,0,1-2-2.83l-.32.1.32-.08a25.17,25.17,0,0,1-1-7,6.3,6.3,0,0,1,.95-3.33c.8-1.21,2.21-2.28,4.91-2.39v0c2.7.11,4.11,1.18,4.91,2.39a6.29,6.29,0,0,1,.95,3.33,25.11,25.11,0,0,1-1,7l.32.08-.32-.1A5,5,0,0,1,144,60.67a5.83,5.83,0,0,1-1.4.41l-.44.05H142Z"/><path class="cls-1" d="M90.12,82.82c1.46-5.43,3.15-8.4,5.29-10a23.66,23.66,0,0,1,8.22-3.41l-1.1,11.47s-1.4,1.55-3.32,3.47Z"/><path class="cls-1" d="M116.84,59.08l-1.15,14,2.36-.34c.16-1.68.1-7.83,0-13.68Z"/><path class="cls-12" d="M93.14,85.39s.43-6.48,2.8-8.92,6.58-4.26,8.3-5.27c1.11,1,2,2.41,5,2.51h.5c2.95-.09,3.87-1.55,5-2.51,1.73,1,5.93,2.82,8.3,5.27s2.8,8.92,2.8,8.92H93.14Z"/><path class="cls-6" d="M93.14,85.39l.33,0s0-.1,0-.27a28.43,28.43,0,0,1,.65-3.95,10.24,10.24,0,0,1,2-4.49,19.64,19.64,0,0,1,4.32-3.12c1.55-.88,3-1.58,3.91-2.1l-.17-.29-.22.25a17.81,17.81,0,0,0,1.83,1.6,6.1,6.1,0,0,0,3.35,1h.26v0h.26a6.1,6.1,0,0,0,3.35-1,18.15,18.15,0,0,0,1.83-1.6l-.22-.25-.17.29c.89.51,2.36,1.21,3.91,2.1a19.61,19.61,0,0,1,4.32,3.12c1.1,1.12,1.81,3.32,2.21,5.22.2,1,.33,1.83.4,2.47,0,.32.06.58.08.76s0,.27,0,.27l.33,0v-.33H93.14v.33l.33,0-.33,0v.33h33l0-.35a28.74,28.74,0,0,0-.52-3.59c-.41-2-1.1-4.22-2.38-5.54A20.21,20.21,0,0,0,118.78,73c-1.57-.89-3.07-1.6-3.91-2.09l-.2-.12-.18.15a18.13,18.13,0,0,1-1.77,1.55,5.43,5.43,0,0,1-3,.87h-.47a5.43,5.43,0,0,1-3-.87,17.9,17.9,0,0,1-1.77-1.55l-.18-.15-.2.12c-.84.49-2.33,1.2-3.9,2.09a20.24,20.24,0,0,0-4.47,3.23c-1.27,1.32-2,3.59-2.38,5.54a28.84,28.84,0,0,0-.52,3.59l0,.35h.36Z"/><polygon class="cls-6" points="97.93 62.5 98.19 62.7 98.44 62.43 98.08 61.97 97.93 62.5"/><path class="cls-6" d="M82.22,43.62c-6.9.27-7.25,5.94-7.25,7.07,0,1.69,0,3.15,1.17,8a6.32,6.32,0,0,0,12.21,0c1.16-4.83,1.16-6.29,1.16-8,0-1.13-.35-6.81-7.28-7.07"/><path class="cls-1" d="M82.22,43.62l-.05-1.33a9.84,9.84,0,0,0-4.66,1.24,7.36,7.36,0,0,0-2.16,1.9,8.33,8.33,0,0,0-1.45,3.14,9.38,9.38,0,0,0-.26,2.12,21.76,21.76,0,0,0,.16,3,48.87,48.87,0,0,0,1,5.34v.08a8,8,0,0,0,1.84,3.2,8.1,8.1,0,0,0,5.53,2.41A8.11,8.11,0,0,0,85.36,64a7.61,7.61,0,0,0,2.4-1.69,8.09,8.09,0,0,0,1.84-3.21V59a48.2,48.2,0,0,0,1-5.32,22,22,0,0,0,.16-3,9.16,9.16,0,0,0-1.23-4.54A7.4,7.4,0,0,0,87,43.53a9.91,9.91,0,0,0-4.68-1.24h-.1l.05,1.33-.05,1.33a7.28,7.28,0,0,1,3.45.88A4.7,4.7,0,0,1,87,47a5.68,5.68,0,0,1,1,2.14,6.81,6.81,0,0,1,.18,1.51A19.3,19.3,0,0,1,88,53.34a46.09,46.09,0,0,1-1,5l1.29.31-1.27-.39a5.42,5.42,0,0,1-1.23,2.17,5.14,5.14,0,0,1-2.34,1.38,5.71,5.71,0,0,1-.91.18l-.27,0H82.2a5.75,5.75,0,0,1-2.2-.58,4.87,4.87,0,0,1-1.46-1.1A5.43,5.43,0,0,1,77.4,58.3l-1.27.39,1.29-.31a46.6,46.6,0,0,1-1-5,19.36,19.36,0,0,1-.14-2.66,6.59,6.59,0,0,1,.85-3.18,4.72,4.72,0,0,1,1.7-1.69,7.22,7.22,0,0,1,3.43-.88l-.05-1.33-.05,1.33Z"/><path class="cls-1" d="M82.24,62.14a5.57,5.57,0,0,0,5.15-4,25.49,25.49,0,0,0,1-7.13c0-1.51-.62-5.83-6.18-6-5.56.21-6.18,4.53-6.18,6a25.51,25.51,0,0,0,1,7.13,5.57,5.57,0,0,0,5.15,4"/><path class="cls-6" d="M82.24,62.14v.33a6.1,6.1,0,0,0,2.26-.53,5.71,5.71,0,0,0,3.2-3.69h0a25.83,25.83,0,0,0,1-7.2,6.94,6.94,0,0,0-1.06-3.69c-.9-1.38-2.57-2.58-5.44-2.69h0c-2.87.1-4.54,1.3-5.44,2.69A7,7,0,0,0,75.72,51a25.89,25.89,0,0,0,1,7.2h0A5.71,5.71,0,0,0,80,61.94a6.1,6.1,0,0,0,2.26.53V61.8a4.14,4.14,0,0,1-.6-.06,5.59,5.59,0,0,1-2.21-.86,5.11,5.11,0,0,1-2-2.83l-.32.1.32-.08a25.2,25.2,0,0,1-1-7,6.28,6.28,0,0,1,.95-3.33c.8-1.21,2.21-2.28,4.91-2.39v0c2.7.11,4.11,1.18,4.91,2.39A6.3,6.3,0,0,1,88.08,51a25.2,25.2,0,0,1-1,7l.32.08-.32-.1a5,5,0,0,1-2.84,3.28,5.83,5.83,0,0,1-1.4.41l-.44.05h-.16Z"/><path class="cls-3" d="M82.24,62.14a5.57,5.57,0,0,0,5.15-4,25.49,25.49,0,0,0,1-7.13c0-1.51-.62-5.83-6.18-6-5.56.21-6.18,4.53-6.18,6a25.51,25.51,0,0,0,1,7.13,5.57,5.57,0,0,0,5.15,4"/><path class="cls-6" d="M82.24,62.14v.33a6.1,6.1,0,0,0,2.26-.53,5.71,5.71,0,0,0,3.2-3.69h0a25.83,25.83,0,0,0,1-7.2,6.94,6.94,0,0,0-1.06-3.69c-.9-1.38-2.57-2.58-5.44-2.69h0c-2.87.1-4.54,1.3-5.44,2.69A7,7,0,0,0,75.72,51a25.89,25.89,0,0,0,1,7.2h0A5.71,5.71,0,0,0,80,61.94a6.1,6.1,0,0,0,2.26.53V61.8a4.14,4.14,0,0,1-.6-.06,5.59,5.59,0,0,1-2.21-.86,5.11,5.11,0,0,1-2-2.83l-.32.1.32-.08a25.2,25.2,0,0,1-1-7,6.28,6.28,0,0,1,.95-3.33c.8-1.21,2.21-2.28,4.91-2.39v0c2.7.11,4.11,1.18,4.91,2.39A6.3,6.3,0,0,1,88.08,51a25.2,25.2,0,0,1-1,7l.32.08-.32-.1a5,5,0,0,1-2.84,3.28,5.83,5.83,0,0,1-1.4.41l-.44.05h-.16Z"/><path class="cls-8" d="M168.8,70.77a5.64,5.64,0,0,0,5.22-4,25.84,25.84,0,0,0,1-7.23c0-1.53-.63-5.91-6.26-6.13-5.64.22-6.27,4.6-6.27,6.13a25.84,25.84,0,0,0,1,7.23,5.65,5.65,0,0,0,5.22,4"/><path class="cls-13" d="M168.8,70.77a5.64,5.64,0,0,0,5.22-4,25.84,25.84,0,0,0,1-7.23c0-1.53-.63-5.91-6.26-6.13-5.64.22-6.27,4.6-6.27,6.13a25.84,25.84,0,0,0,1,7.23A5.65,5.65,0,0,0,168.8,70.77Z"/><path class="cls-6" d="M168.57,52c-6.62.27-7,6-7,7.12,0,1.7,0,3.18,1.12,8.06a6,6,0,0,0,11.7,0c1.11-4.86,1.11-6.33,1.11-8,0-1.14-.34-6.85-7-7.12"/><path class="cls-1" d="M168.67,52l-.05-1.33A9.39,9.39,0,0,0,164,51.95a7.27,7.27,0,0,0-2.1,1.92,8.52,8.52,0,0,0-1.4,3.14,9.68,9.68,0,0,0-.25,2.12,22.74,22.74,0,0,0,.15,3,50.63,50.63,0,0,0,1,5.36v.08a8.13,8.13,0,0,0,1.78,3.21,7.57,7.57,0,0,0,3.46,2.12,7.31,7.31,0,0,0,2,.32,7.74,7.74,0,0,0,3.08-.74,7.42,7.42,0,0,0,2.35-1.72,8.18,8.18,0,0,0,1.78-3.22v-.08a50.42,50.42,0,0,0,1-5.35,23,23,0,0,0,.15-3,9.42,9.42,0,0,0-1.19-4.54,7.33,7.33,0,0,0-2.58-2.64,9.46,9.46,0,0,0-4.59-1.26h-.11l.05,1.33-.05,1.33a6.77,6.77,0,0,1,3.29.87,4.6,4.6,0,0,1,1.34,1.22,5.88,5.88,0,0,1,1,2.17,7.17,7.17,0,0,1,.18,1.53,20.31,20.31,0,0,1-.13,2.68,48,48,0,0,1-1,5.06l1.31.3-1.29-.38a5.54,5.54,0,0,1-1.2,2.2,4.9,4.9,0,0,1-2.24,1.37,5.3,5.3,0,0,1-.87.18l-.25,0h-.11a5.29,5.29,0,0,1-2.09-.57,4.7,4.7,0,0,1-1.4-1.1,5.56,5.56,0,0,1-1.11-2.08l-1.29.38,1.31-.3a48.36,48.36,0,0,1-1-5.08,20,20,0,0,1-.13-2.68,6.87,6.87,0,0,1,.83-3.23,4.65,4.65,0,0,1,1.64-1.69,6.71,6.71,0,0,1,3.28-.87L168.67,52l-.05,1.33Z"/><path class="cls-3" d="M168.69,70.53a5.57,5.57,0,0,0,5.15-4,25.51,25.51,0,0,0,1-7.12c0-1.51-.62-5.83-6.18-6-5.56.21-6.18,4.53-6.18,6a25.49,25.49,0,0,0,1,7.13,5.57,5.57,0,0,0,5.15,4"/><path class="cls-6" d="M168.69,70.53v.33a6.1,6.1,0,0,0,2.26-.53,5.71,5.71,0,0,0,3.2-3.69h0a25.89,25.89,0,0,0,1-7.2,7,7,0,0,0-1.06-3.69c-.9-1.38-2.58-2.58-5.44-2.69h0c-2.87.1-4.54,1.3-5.44,2.69a6.94,6.94,0,0,0-1.06,3.69,25.83,25.83,0,0,0,1,7.2h0a5.71,5.71,0,0,0,3.2,3.69,6.1,6.1,0,0,0,2.26.53V70.2a4.16,4.16,0,0,1-.6-.06,5.59,5.59,0,0,1-2.21-.86,5.1,5.1,0,0,1-2-2.83l-.32.1.32-.08a25.17,25.17,0,0,1-1-7,6.3,6.3,0,0,1,.95-3.33c.8-1.21,2.21-2.28,4.91-2.39v0c2.7.11,4.11,1.18,4.91,2.39a6.29,6.29,0,0,1,.95,3.33,25.11,25.11,0,0,1-1,7l.32.08-.32-.1a5,5,0,0,1-2.84,3.28,5.83,5.83,0,0,1-1.4.41l-.44.05h-.16Z"/><rect class="cls-6" x="110.01" y="22.92" width="11.31" height="0.62"/><rect class="cls-6" x="109.95" y="26.62" width="42.84" height="0.62"/><rect class="cls-6" x="141.47" y="30.32" width="11.31" height="0.62"/><path class="cls-1" d="M164.56,14.37A9.56,9.56,0,0,0,159,17.75c-2.05,2.8-5.47,6.53-7.18,6.65V39.21h27s3.65-.47,4.33-3.27S185,25.1,185,25.1s1-5.86-3.54-5.85-10.83,0-10.83,0"/><path class="cls-14" d="M164.56,14.37A9.56,9.56,0,0,0,159,17.75c-2.05,2.8-5.47,6.53-7.18,6.65V39.21h27s3.65-.47,4.33-3.27S185,25.1,185,25.1s1-5.86-3.54-5.85-10.83,0-10.83,0"/><path class="cls-15" d="M177,32.5h6.73M177,26h7.81"/><path class="cls-16" d="M184.74,21.12l1.13-5.9,3.33-4.87L178.6,1.46S174.33,6,171.68,6.93s-7.26,2.73-7.18,10.68,0,12,0,12a7.76,7.76,0,0,0,7-7.52l.09-2.38"/><polyline class="cls-4" points="172.44 18.87 170.47 21.53 170.47 18.19 172.73 18.39"/><path class="cls-6" d="M138.07,62.58h-2s-.42-1-.73-10,6.35-8.75,6.35-8.75a6.8,6.8,0,0,1,6.81,5.92c.15,5.92-1.28,11.86-2.12,12.78"/><path class="cls-6" d="M148.57,51s-.32,10.07-.65,11.59c-1.1,0-1.72,0-1.72,0"/><path class="cls-6" d="M114.82,59.08l-1.15,11.07,2.36-.27c.16-1.33.1-6.18,0-10.8Z"/><path class="cls-6" d="M105.58,70h-2s-.42-.91-.73-9.36,6.35-8.23,6.35-8.23A6.76,6.76,0,0,1,116,58c.15,5.57-1.28,11.15-2.12,12"/><path class="cls-6" d="M112.32,67.24l2.81,2.7s-3.92.66-5.53.68a4.17,4.17,0,0,1,.27-1.79"/><path class="cls-6" d="M106.55,67.24l-2.94,2.7s4.1.66,5.78.68a4,4,0,0,0-.29-1.79"/><path class="cls-1" d="M101,60c-.11,3.92-.21,8.79,0,10l2.09.2L101.76,60Z"/><path class="cls-6" d="M102.88,60.44c-.11,3.74-.21,8.4,0,9.52l2.09.19-1.24-9.71Z"/><path class="cls-10" d="M157.53,79.47s-.41-9.24-2.7-11.59a26.45,26.45,0,0,0-6.57-4.31c-1,1.17-3,2.56-6.7,2.6a10.19,10.19,0,0,1-6.21-2.6,26.52,26.52,0,0,0-6.58,4.31c-2.13,2.48-2.7,8.59-2.7,8.59S126,79,126,79.85"/><path class="cls-11" d="M157.53,79.47s-.41-9.24-2.7-11.59a26.45,26.45,0,0,0-6.57-4.31c-1,1.17-3,2.56-6.7,2.6a10.19,10.19,0,0,1-6.21-2.6,26.52,26.52,0,0,0-6.58,4.31c-2.13,2.48-2.7,8.59-2.7,8.59S126,79,126,79.85"/><path class="cls-1" d="M149.41,84.41c.7-5.58,2-8.76,3.86-10.6a23.67,23.67,0,0,1,7.67-4.52l.51,11.51s-1.17,1.73-2.8,3.9Z"/><path class="cls-4" d="M181.69,76a26.47,26.47,0,0,0-6.57-4.31c-1,1.17-3,2.56-6.7,2.6a10.19,10.19,0,0,1-6.21-2.6A26.52,26.52,0,0,0,155.63,76c-2.28,2.35-2.7,8.59-2.7,8.59h31.45s-.41-6.24-2.7-8.59"/><path class="cls-11" d="M181.69,76a26.47,26.47,0,0,0-6.57-4.31c-1,1.17-3,2.56-6.7,2.6a10.19,10.19,0,0,1-6.21-2.6A26.52,26.52,0,0,0,155.63,76c-2.28,2.35-2.7,8.59-2.7,8.59h31.45S184,78.34,181.69,76Z"/><path class="cls-4" d="M96.11,132.78a10.12,10.12,0,1,1,10.12,10.12A10.13,10.13,0,0,1,96.11,132.78Z"/><path class="cls-4" d="M255.11,132.78a10.12,10.12,0,1,1,10.12,10.12A10.13,10.13,0,0,1,255.11,132.78Z"/><path class="cls-17" d="M325.55,112l-3.15-3.15v0c-8.31-16.15-29.92-24.22-56.94-29.34h0c-19.73-23.08-32.84-28.25-71.13-32a1.82,1.82,0,0,0-2,1.84c0,8.67-.14,28.49-.14,29.63a0,0,0,0,1,0,0H58.43a4.35,4.35,0,0,0-4.35,4.35v28.6a0,0,0,0,1,0,0L51,115a4.33,4.33,0,0,0-1.27,3.07v10.36a4.39,4.39,0,0,0,1.28,3.1l4.33,4.33a4.33,4.33,0,0,0,3.07,1.27H81.31a25.29,25.29,0,0,0,49.84,0H240.31a25.29,25.29,0,0,0,49.84,0h27.94a4.39,4.39,0,0,0,4.39-4.39v-6.83a0,0,0,0,1,0,0l3.06-3.06a4.33,4.33,0,0,0,1.27-3.07v-4.69A4.33,4.33,0,0,0,325.55,112ZM200.81,56.67a0,0,0,0,1,0,0c29,3.61,38.2,6.31,52.53,22.24a0,0,0,0,1,0,.07h-52.5a0,0,0,0,1,0,0Zm-94.58,91.86A15.75,15.75,0,1,1,122,132.78,15.77,15.77,0,0,1,106.23,148.53Zm159,0A15.75,15.75,0,1,1,281,132.78,15.77,15.77,0,0,1,265.23,148.53Zm52.9-30.6a0,0,0,0,1,0,0L315.06,121a4.33,4.33,0,0,0-1.27,3.07v4.3a0,0,0,0,1,0,0h-23.6a25.29,25.29,0,0,0-49.84,0H131.15a25.29,25.29,0,0,0-49.84,0H60.21l-1.77-1.77a0,0,0,0,1,0,0v-6.75a0,0,0,0,1,0,0l3-3a4.39,4.39,0,0,0,1.29-3.1v-8.63a0,0,0,0,1,0,0H66.9a4.5,4.5,0,0,0,4.55-4,4.35,4.35,0,0,0-4.33-4.74h-4.3a0,0,0,0,1,0,0v-8.6a0,0,0,0,1,0,0H248.3c21.86,0,48,5.65,57.46,13l-5,4.24a4.35,4.35,0,0,0,4.25,4.44l7.89.16a0,0,0,0,1,0,0c.54,1.4.86-.2.85,1.2a4.28,4.28,0,0,0,1.29,3l3,4s0-1,0-1Z"/><path class="cls-2" d="M318.13,117.93a0,0,0,0,1,0,0L315.06,121a4.33,4.33,0,0,0-1.27,3.07v4.3a0,0,0,0,1,0,0h-23.6a25.29,25.29,0,0,0-49.84,0H131.15a25.29,25.29,0,0,0-49.84,0H60.21l-1.77-1.77a0,0,0,0,1,0,0v-6.75a0,0,0,0,1,0,0l3-3a4.39,4.39,0,0,0,1.29-3.1v-8.63a0,0,0,0,1,0,0H66.9a4.5,4.5,0,0,0,4.55-4,4.35,4.35,0,0,0-4.33-4.74h-4.3a0,0,0,0,1,0,0v-8.6a0,0,0,0,1,0,0H248.3c21.86,0,48,5.65,57.46,13l-5,4.24a4.35,4.35,0,0,0,4.25,4.44l7.89.16a0,0,0,0,1,0,0c.54,1.4.86-.2.85,1.2a4.28,4.28,0,0,0,1.29,3l3,4s0-1,0-1Z"/><rect class="cls-3" x="30.47" y="97.38" width="19.29" height="4.61" rx="2.3" ry="2.3"/><rect class="cls-3" x="10.61" y="77.55" width="37.25" height="4.61" rx="2.3" ry="2.3"/><rect class="cls-3" y="109.94" width="31.51" height="4.61" rx="2.3" ry="2.3"/><rect class="cls-3" x="26.51" y="122.51" width="20.75" height="4.61" rx="2.3" ry="2.3"/></g></g></svg>