<svg xmlns="http://www.w3.org/2000/svg" viewBox="0 0 84.12 114.89"><defs><style>.cls-1{fill:#333e48;}.cls-2{fill:#636f7b;}.cls-3{fill:#e9e9ea;}.cls-4{fill:#231f20;}.cls-5{fill:#e2e3e4;}.cls-6{fill:#fed771;}.cls-7{fill:#e9004c;}.cls-8{fill:#fff;}.cls-9{fill:#97999c;}.cls-10{fill:#c7c8ca;}</style></defs><title>me-Clarity</title><g id="Шар_2" data-name="Шар 2"><g id="Layer_1" data-name="Layer 1"><polygon class="cls-1" points="47.64 40.07 25.52 40.07 24.33 38.53 48.77 38.53 47.64 40.07"/><polygon class="cls-2" points="73.67 5.36 73.67 103.88 5.53 103.88 5.53 109.03 73.67 109.03 73.67 109.24 78.81 109.24 78.81 5.36 73.67 5.36"/><polygon class="cls-3" points="84.12 10.51 78.77 10.51 78.77 109.54 10.1 109.54 10.1 114.89 84.11 114.89 84.11 114.3 84.12 114.3 84.12 10.51"/><polygon class="cls-3" points="0.39 0.39 0.39 47.72 0.39 48.4 0.39 104.02 73.66 104.02 73.66 0.39 0.39 0.39"/><polygon class="cls-4" points="0.39 0.39 0 0.39 0 47.72 0 48.4 0 104.41 74.05 104.41 74.05 0 0 0 0 0.39 0.39 0.39 0.39 0.77 73.28 0.77 73.28 103.64 0.77 103.64 0.77 48.4 0.77 47.72 0.77 0.39 0.39 0.39 0.39 0.77 0.39 0.39"/><polygon class="cls-4" points="73.63 6.05 74.5 6.05 78.39 6.05 78.39 108.92 5.88 108.92 5.88 104.29 5.11 104.29 5.11 109.68 79.16 109.68 79.16 5.28 74.5 5.28 73.63 5.28 73.63 6.05"/><path class="cls-5" d="M65.16,21H62.05V85.12a1.39,1.39,0,0,1-1.39,1.4H13.55v3.13a3.27,3.27,0,0,0,3.26,3.27H65.16a3.27,3.27,0,0,0,3.26-3.27V24.22A3.27,3.27,0,0,0,65.16,21"/><path class="cls-6" d="M62.61,85.76a1.4,1.4,0,0,1-1.39,1.4H12.86a1.4,1.4,0,0,1-1.39-1.4v-67s.62-1.4,1.39-1.4H61.21a1.4,1.4,0,0,1,1.39,1.4Z"/><path class="cls-7" d="M62.61,85.76H61.45a.24.24,0,0,1-.24.24H12.86a.24.24,0,0,1-.24-.24v-67H11.46l1.05.47h0a3.22,3.22,0,0,1,.32-.54,1.15,1.15,0,0,1,.2-.21h0l-.19-.32v.36a.39.39,0,0,0,.19,0l-.19-.32v.36H61.21a.24.24,0,0,1,.24.24v67h2.31v-67a2.55,2.55,0,0,0-2.55-2.55H12.86a2,2,0,0,0-1.26.47,3.93,3.93,0,0,0-.88,1,5.38,5.38,0,0,0-.31.57l-.1.23V85.76a2.55,2.55,0,0,0,2.55,2.55H61.21a2.55,2.55,0,0,0,2.55-2.55Z"/><polygon class="cls-5" points="17.24 45.32 36.66 70.66 55.91 45.32 17.24 45.32"/><polygon class="cls-8" points="20.15 45.32 17.41 45.32 26.07 37.23 47.39 37.23 56.07 45.34 20.15 45.32"/><polygon class="cls-8" points="20.15 45.05 18.09 45.05 26.18 37.5 47.28 37.5 55.88 45.53 56.25 45.14 47.49 36.96 25.96 36.96 16.72 45.59 20.15 45.59 20.15 45.05"/><polygon class="cls-1" points="47.4 36.7 26.09 36.7 24.4 38.25 49.04 38.25 47.4 36.7"/><polygon class="cls-9" points="56.42 45.68 49.03 38.61 43.57 45.68 56.42 45.68"/><polygon class="cls-4" points="56.61 45.48 49 38.2 43.36 45.51 43.79 45.84 49.06 39.02 56.23 45.87 56.61 45.48"/><polygon class="cls-9" points="17.03 45.68 24.42 38.61 29.88 45.68 17.03 45.68"/><polygon class="cls-4" points="17.22 45.87 24.39 39.02 29.66 45.84 30.09 45.51 24.45 38.2 16.84 45.48 17.22 45.87"/><polygon class="cls-9" points="43.9 45.68 43.94 45.68 36.91 38.51 29.68 45.44 43.9 45.68"/><polygon class="cls-4" points="43.9 45.93 43.94 45.93 44.55 45.93 36.92 38.15 29.5 45.26 29.86 45.63 36.91 38.87 43.76 45.85 43.94 45.68 43.94 45.42 43.9 45.42 43.9 45.93"/><polygon class="cls-5" points="17.24 45.1 36.83 70.65 56.25 45.1 17.24 45.1"/><polygon class="cls-10" points="18.19 45.1 36.82 69.41 55.3 45.1 43.74 45.1 43.02 45.1 30.41 45.1 29.67 45.1 29.09 45.1 18.19 45.1"/><polygon class="cls-1" points="56.1 44.99 56.22 45.1 56.24 45.1 56.23 45.12 56.61 45.48 56.61 45.48 56.42 45.68 56.23 45.87 56.03 45.68 55.81 45.68 36.83 70.66 36.74 70.55 36.66 70.66 17.51 45.68 17.42 45.68 17.22 45.87 17.03 45.68 16.94 45.59 16.72 45.59 16.99 45.33 17.23 45.1 16.64 45.56 36.83 71.9 56.84 45.55 56.1 44.99"/><polygon class="cls-1" points="17.68 45.68 17.51 45.68 36.66 70.66 36.74 70.55 17.68 45.68"/><polygon class="cls-4" points="16.99 45.33 16.72 45.59 16.94 45.59 16.84 45.48 16.99 45.33"/><path class="cls-1" d="M55.35,45l-.05.07h.13Zm.55.52-.09.12H56Z"/><path class="cls-4" d="M55.65,44.64l-.29.39.07.07h.79L56.1,45Zm.59.47-.33.44.13.12.21.2.19-.2.19-.2Z"/><path class="cls-1" d="M18.12,45,18,45.1h.16Zm-.55.52-.15.14h.25Z"/><polygon class="cls-4" points="17.84 44.64 17.23 45.1 16.99 45.33 16.84 45.48 16.94 45.59 17.03 45.68 17.22 45.87 17.42 45.68 17.57 45.53 17.24 45.1 18.03 45.1 18.12 45.01 17.84 44.64"/><polygon class="cls-1" points="17.24 45.1 17.57 45.53 17.68 45.68 36.74 70.54 36.83 70.65 55.81 45.68 55.9 45.55 56.23 45.12 56.25 45.1 56.22 45.1 55.43 45.1 55.3 45.1 36.82 69.41 18.19 45.1 18.03 45.1 17.24 45.1"/><polygon class="cls-3" points="29.68 45.1 36.81 69.42 43.73 45.1 29.68 45.1"/></g></g></svg>