<svg xmlns="http://www.w3.org/2000/svg" viewBox="0 0 297.21 153.31"><defs><style>.cls-1{fill:#231f20;}.cls-2{fill:#fff;}</style></defs><title>me-card</title><g id="Шар_2" data-name="Шар 2"><g id="Layer_1" data-name="Layer 1"><path class="cls-1" d="M296.38,147.5h-.83a4.15,4.15,0,0,1-4.15,4.15H5.81a4.15,4.15,0,0,1-4.15-4.15V5.81A4.15,4.15,0,0,1,5.81,1.66H291.39a4.15,4.15,0,0,1,4.15,4.15V147.5h1.66V5.81A5.81,5.81,0,0,0,291.39,0H5.81A5.81,5.81,0,0,0,0,5.81V147.5a5.81,5.81,0,0,0,5.81,5.81H291.39a5.81,5.81,0,0,0,5.81-5.81Z"/><rect class="cls-1" x="4.7" y="4.43" width="288.02" height="144.36" rx="2.97" ry="2.97"/><path class="cls-1" d="M292.73,145.82h-.42a2.56,2.56,0,0,1-2.55,2.56H7.67a2.56,2.56,0,0,1-2.55-2.56V7.4A2.56,2.56,0,0,1,7.67,4.84H289.76a2.56,2.56,0,0,1,2.55,2.55V145.82h.83V7.4A3.39,3.39,0,0,0,289.76,4H7.67A3.39,3.39,0,0,0,4.29,7.4V145.82a3.38,3.38,0,0,0,3.38,3.39H289.76a3.39,3.39,0,0,0,3.39-3.39Z"/><rect class="cls-2" x="113.72" y="6.36" width="176.84" height="140.34" rx="1.27" ry="1.27"/><path class="cls-2" d="M38.93,74.57l19.88,33,19.06-33L58.82,44Zm20.05,51L28.16,74.39,59,27l29.54,47.3Z"/><path class="cls-1" d="M268.89,79.12c0,1.71,0,3-.66,3.76a2.68,2.68,0,0,1-2.11.83h-2.28v-9h2.28a2.68,2.68,0,0,1,2.11.84c.64.71.66,1.88.66,3.58m1.88,0c0-1.79.09-3.6-1.25-4.94a4.42,4.42,0,0,0-3.2-1.17H262V85.4h4.35a4.42,4.42,0,0,0,3.2-1.17c1.34-1.34,1.25-3.32,1.25-5.12M255.4,81.31h-3.81l1.93-5.5Zm3.38,4.09L254.24,73h-1.51L248.18,85.4h2l.85-2.49h4.89l.85,2.49Zm-13.44,0V83.71h-6V80h5.15V78.32H239.3V74.7h6V73h-7.92V85.4Zm-12.18,0V73h-1.88V78.3h-5V73h-1.88V85.4h1.88V80h5V85.4Zm-15.35-4.09H214l1.93-5.5Zm3.38,4.09L216.64,73h-1.51L210.59,85.4h2l.85-2.49h4.89l.85,2.49Zm-18.09,0V83.71h-6V80h5.15V78.32H197V74.7h6V73h-7.92V85.4Zm-11.47-3.53a3.24,3.24,0,0,0-1-2.54,4.1,4.1,0,0,0-2.32-.92l-1.41-.21a2.76,2.76,0,0,1-1.39-.57,1.47,1.47,0,0,1-.47-1.15c0-1.1.8-1.93,2.26-1.93a3.64,3.64,0,0,1,2.7,1l1.2-1.18a5.16,5.16,0,0,0-3.85-1.41c-2.57,0-4.14,1.48-4.14,3.64a3.08,3.08,0,0,0,.91,2.37,4.24,4.24,0,0,0,2.35,1l1.46.21a2.15,2.15,0,0,1,1.36.52,1.67,1.67,0,0,1,.49,1.29c0,1.2-.94,1.9-2.56,1.9A4.09,4.09,0,0,1,184,82.63l-1.25,1.24a5.61,5.61,0,0,0,4.38,1.64c2.59,0,4.45-1.36,4.45-3.64M177.9,76.65a1.89,1.89,0,0,1-2.1,1.93H173V74.7h2.78a1.9,1.9,0,0,1,2.1,1.95m2.26,8.75-2.85-5.48a3.25,3.25,0,0,0,2.47-3.29A3.54,3.54,0,0,0,175.93,73h-4.8V85.4H173V80.18h2.35L178,85.4ZM167,81.23V73h-1.88v8.13a2.57,2.57,0,1,1-5.13,0V73H158.1v8.21a4.45,4.45,0,0,0,8.89,0m-14.51-2c0,2.49-.12,3.18-.73,3.85a2.6,2.6,0,0,1-3.69,0c-.61-.66-.73-1.36-.73-3.85s.12-3.18.73-3.85a2.61,2.61,0,0,1,3.69,0c.61.66.73,1.36.73,3.85m1.88,0c0-2.38,0-3.76-1.18-5a4.69,4.69,0,0,0-6.53,0c-1.22,1.22-1.2,2.59-1.2,5s0,3.76,1.2,5a4.68,4.68,0,0,0,6.53,0c1.22-1.22,1.18-2.59,1.18-5m-12.21,2.49h-1.9a2.58,2.58,0,0,1-4.35,1.38c-.61-.66-.75-1.37-.75-3.86s.14-3.2.75-3.86a2.56,2.56,0,0,1,4.33,1.38h1.91a4.27,4.27,0,0,0-4.42-3.81,4.49,4.49,0,0,0-3.25,1.32c-1.22,1.22-1.2,2.59-1.2,5s0,3.76,1.2,5a4.49,4.49,0,0,0,3.25,1.32,4.28,4.28,0,0,0,4.42-3.81"/><path class="cls-1" d="M256,61.4V59.71h-6V49h-1.88V61.4Zm-13.61-6.19c0,2.49-.12,3.18-.73,3.84a2.6,2.6,0,0,1-3.69,0c-.61-.66-.73-1.36-.73-3.84s.12-3.19.73-3.85a2.61,2.61,0,0,1,3.69,0c.61.66.73,1.36.73,3.85m1.88,0c0-2.38,0-3.76-1.18-5a4.69,4.69,0,0,0-6.52,0c-1.22,1.22-1.2,2.59-1.2,5s0,3.76,1.2,5a4.69,4.69,0,0,0,6.52,0c1.22-1.22,1.18-2.59,1.18-5m-14.28,0c0,2.49-.12,3.18-.73,3.84a2.6,2.6,0,0,1-3.69,0c-.61-.66-.73-1.36-.73-3.84s.12-3.19.73-3.85a2.61,2.61,0,0,1,3.69,0c.61.66.73,1.36.73,3.85m1.88,0c0-2.38,0-3.76-1.18-5a4.69,4.69,0,0,0-6.52,0c-1.22,1.22-1.2,2.59-1.2,5s0,3.76,1.2,5a4.69,4.69,0,0,0,6.52,0c1.22-1.22,1.18-2.59,1.18-5m-14-2.44a2,2,0,0,1-2.19,2.05h-2.71V50.7h2.71a2,2,0,0,1,2.19,2.07m1.88,0a3.69,3.69,0,0,0-4-3.76H211V61.4h1.88V56.53h2.82a3.69,3.69,0,0,0,4-3.76M206.77,61.4V49h-1.88v8.7L199.17,49h-1.72V61.4h1.88V52.68l5.72,8.72ZM191.7,52.65a1.89,1.89,0,0,1-2.1,1.93h-2.78V50.7h2.78a1.9,1.9,0,0,1,2.1,1.95M194,61.4l-2.85-5.48a3.25,3.25,0,0,0,2.47-3.29A3.54,3.54,0,0,0,189.73,49h-4.8V61.4h1.88V56.18h2.35l2.61,5.22Zm-15.59-4.09h-3.81l1.93-5.5Zm3.38,4.09L177.21,49h-1.51L171.15,61.4h2l.85-2.49h4.89l.85,2.49Zm-13.44,0V59.71h-6V56h5.15V54.32h-5.15V50.7h6V49h-7.92V61.4ZM157,61.4V59.71h-6V49h-1.88V61.4Z"/><path class="cls-1" d="M254.5,98.84a.64.64,0,0,0,.42.22.53.53,0,0,0,.53-.52.57.57,0,0,0-.1-.32,2.71,2.71,0,0,0-2.22-.93c-1.56,0-2.25.83-2.25,1.81,0,2.39,3.58,1.72,3.58,3.17,0,.61-.43.91-1.32.91a2.23,2.23,0,0,1-1.61-.75.57.57,0,0,0-.43-.22.53.53,0,0,0-.52.54.54.54,0,0,0,.08.28,2.94,2.94,0,0,0,2.48,1.21c1.62,0,2.46-.75,2.46-2,0-2.48-3.58-1.87-3.58-3.17,0-.4.3-.78,1.12-.78A2,2,0,0,1,254.5,98.84Zm-9.41-1.23a.55.55,0,0,0-.48-.27.57.57,0,0,0-.57.57.53.53,0,0,0,.09.31L246,101v2.54a.57.57,0,1,0,1.14,0V101L249,98.23a.53.53,0,0,0,.09-.31.57.57,0,0,0-.57-.57.56.56,0,0,0-.48.27L246.56,100Zm-3.54,4.74.6,1.44a.58.58,0,0,0,.53.38.57.57,0,0,0,.52-.77l-2.31-5.69a.56.56,0,0,0-1,0l-2.31,5.69a.57.57,0,0,0,.52.77.58.58,0,0,0,.53-.38l.6-1.44Zm-.38-1h-1.61l.8-2.08Zm-9.63-3.88A.57.57,0,0,0,231,98v5.51a.57.57,0,0,0,.57.57h1.32c2,0,3.18-.88,3.18-3.33s-1.23-3.34-3.18-3.34Zm.57,1h.76c1.26,0,2,.58,2,2.31s-.75,2.3-2,2.3h-.76Zm-9,1.05a2.64,2.64,0,0,0-1.12.23l.26-1.3h2.56a.5.5,0,0,0,0-1h-2.94a.51.51,0,0,0-.49.41l-.49,2.56a.85.85,0,0,0,0,.17.53.53,0,0,0,.53.52.76.76,0,0,0,.47-.2,1.84,1.84,0,0,1,1.25-.4,1.37,1.37,0,0,1,0,2.74,1.57,1.57,0,0,1-1.47-.85.52.52,0,0,0-1,.25.51.51,0,0,0,.07.26,2.68,2.68,0,0,0,2.38,1.34,2.36,2.36,0,1,0,0-4.72m-6.74,3.72c-.85,0-1.33-.65-1.33-1.74a1.55,1.55,0,0,1,1.4-.83,1.29,1.29,0,1,1-.07,2.57m.15-3.57a2.12,2.12,0,0,0-1.5.59c0-1.26.52-2,1.5-2a1.7,1.7,0,0,1,1,.36.51.51,0,0,0,.31.11.52.52,0,0,0,.51-.51.49.49,0,0,0-.17-.38,2.46,2.46,0,0,0-1.71-.56c-1.65,0-2.63,1.06-2.63,3.61,0,1.94.74,3.33,2.48,3.33a2.17,2.17,0,0,0,2.48-2.32,2.12,2.12,0,0,0-2.33-2.26m-6.43-1.22-1.38,1.6a.5.5,0,0,0-.13.35.51.51,0,0,0,.53.51h.61a1,1,0,0,1,1.17,1.19c0,.7-.41,1.15-1.29,1.15a1.65,1.65,0,0,1-1.34-.67.59.59,0,0,0-.47-.26.53.53,0,0,0-.52.52.53.53,0,0,0,.09.3,2.72,2.72,0,0,0,2.24,1.1c1.6,0,2.41-.78,2.41-2.14a1.94,1.94,0,0,0-1.8-2.18l1.43-1.63a.48.48,0,0,0,.13-.34.5.5,0,0,0-.5-.5h-3.14a.5.5,0,0,0,0,1Zm-12.35-1a.57.57,0,0,0-.57.57v5.51a.57.57,0,0,0,.57.57H199c2,0,3.18-.88,3.18-3.33S201,97.43,199,97.43Zm.57,1H199c1.25,0,2,.58,2,2.31s-.76,2.3-2,2.3h-.76Zm-6.17,0h2.49a.51.51,0,0,0,0-1h-3.06A.57.57,0,0,0,191,98v5.51a.57.57,0,0,0,.57.57h3.16a.51.51,0,0,0,0-1h-2.6v-1.82H194a.5.5,0,0,0,0-1h-1.85Zm-5.65,5.77a3,3,0,0,0,2.44-1.07.49.49,0,0,0,.1-.3.53.53,0,0,0-.53-.54.58.58,0,0,0-.42.22,1.9,1.9,0,0,1-1.59.65c-1.3,0-1.89-.7-1.89-2.44s.59-2.45,1.89-2.45A1.87,1.87,0,0,1,188,99a.54.54,0,0,0,.4.2.53.53,0,0,0,.53-.52.56.56,0,0,0-.11-.33,2.71,2.71,0,0,0-2.36-1.07c-2,0-3.07,1.13-3.07,3.47s1.12,3.46,3.07,3.46m-7-5.77c.64,0,.9.51.9,1s-.26,1-.87,1h-1.32V98.45Zm-.66,3.08,1.78,2.43a.57.57,0,0,0,1-.37.56.56,0,0,0-.12-.35l-1.45-1.78a1.88,1.88,0,0,0,1.51-2,2,2,0,0,0-2.07-2.07h-1.87a.57.57,0,0,0-.57.57v5.59a.57.57,0,1,0,1.14,0v-2.06Zm-7-3.22c1.29,0,1.93.8,1.93,2.45s-.64,2.44-1.93,2.44-1.93-.8-1.93-2.44.64-2.45,1.93-2.45m0,5.91c2,0,3.11-1.15,3.11-3.46s-1.13-3.47-3.11-3.47-3.11,1.13-3.11,3.47,1.13,3.46,3.11,3.46m-7.64-2.93h1.85a.5.5,0,0,0,0-1h-1.85V98.45h2.49a.51.51,0,0,0,0-1h-3.06a.57.57,0,0,0-.57.57v5.59a.57.57,0,1,0,1.14,0Zm-4-3.95a.57.57,0,0,0-.56.56v3.92l-2.9-4.25a.52.52,0,0,0-.45-.24.57.57,0,0,0-.56.56v5.69a.56.56,0,1,0,1.12,0V99.7l2.89,4.22a.56.56,0,0,0,.46.25.57.57,0,0,0,.56-.56V97.91a.57.57,0,0,0-.56-.56m-9.48,1.11h2.49a.51.51,0,0,0,0-1h-3.06a.57.57,0,0,0-.57.57v5.51a.57.57,0,0,0,.57.57h3.17a.51.51,0,0,0,0-1h-2.6v-1.82h1.85a.5.5,0,0,0,0-1h-1.85Z"/></g></g></svg>