<svg xmlns="http://www.w3.org/2000/svg" xmlns:xlink="http://www.w3.org/1999/xlink" viewBox="0 0 65.7 89.7"><defs><style>.cls-1,.cls-6{fill:none;}.cls-2{fill:#8e969f;}.cls-3{fill:#e9e9ea;}.cls-4{fill:#231f20;}.cls-5{clip-path:url(#clip-path);}.cls-6{stroke:#231f20;stroke-miterlimit:10;stroke-width:0.25px;}.cls-7{fill:#afb1b4;}.cls-8{fill:#c7c8ca;}.cls-9{fill:#737577;}.cls-10{fill:#fed771;}.cls-11{fill:#6a7079;}.cls-12{fill:#e9004c;}</style><clipPath id="clip-path" transform="translate(0)"><rect class="cls-1" width="65.7" height="89.7"/></clipPath></defs><title>me-cohesive-teams</title><g id="Шар_2" data-name="Шар 2"><g id="Layer_1" data-name="Layer 1"><polygon class="cls-2" points="57.56 4.35 57.56 81.22 4.46 81.22 4.46 85.25 57.56 85.25 57.56 85.4 61.56 85.4 61.56 4.35 57.56 4.35"/><polygon class="cls-3" points="61.53 8.36 61.53 85.53 8.02 85.53 8.02 89.7 65.69 89.7 65.69 89.24 65.7 89.24 65.7 8.36 61.53 8.36"/><polygon class="cls-3" points="0.42 0.42 0.42 37.31 0.42 37.84 0.42 81.18 57.52 81.18 57.52 0.42 0.42 0.42"/><path class="cls-4" d="M57.23.72V80.88H.73V.72ZM.13.12v.3h0V81.48h57.7V.12Z" transform="translate(0)"/><g class="cls-5"><polygon class="cls-6" points="0.42 0.42 0.13 0.42 0.13 37.31 0.13 37.84 0.13 81.48 57.82 81.48 57.82 0.13 0.13 0.13 0.13 0.42 0.42 0.42 0.42 0.72 57.23 0.72 57.23 80.88 0.72 80.88 0.72 37.84 0.72 37.31 0.72 0.42 0.42 0.42 0.42 0.72 0.42 0.42"/></g><polygon class="cls-4" points="57.52 4.89 58.2 4.89 61.23 4.89 61.23 85.04 4.73 85.04 4.73 81.44 4.13 81.44 4.13 85.64 61.83 85.64 61.83 4.29 58.2 4.29 57.52 4.29 57.52 4.89"/><polygon class="cls-6" points="57.52 4.89 58.2 4.89 61.23 4.89 61.23 85.04 4.73 85.04 4.73 81.44 4.13 81.44 4.13 85.64 61.83 85.64 61.83 4.29 58.2 4.29 57.52 4.29 57.52 4.89"/><g class="cls-5"><path class="cls-7" d="M36.22,70.52l0,.08.08.16a1.74,1.74,0,0,1-.07-.23" transform="translate(0)"/><path class="cls-8" d="M53.33,59.76V19a2.55,2.55,0,0,0-1.51-2.33,2.51,2.51,0,0,0-1-.22h-1.3V56.75A1.61,1.61,0,0,1,48.87,58a2,2,0,0,1-1.28.44h-37v1.32a2.52,2.52,0,0,0,.17.9,2.55,2.55,0,0,0,2.38,1.64H50.79a2.55,2.55,0,0,0,2.54-2.54" transform="translate(0)"/><rect class="cls-9" x="8.89" y="13.67" width="39.97" height="43.94"/><path class="cls-10" d="M48.68,56.75h-.75l-.06,0v0h.06l-.06,0-.06.05a.46.46,0,0,1-.22,0H9.92a.42.42,0,0,1-.26-.08l0,0-.06,0h.06v0l-.06,0h.06V14.48H8.83l.71.39-.13-.07.13.07h0l-.13-.07.13.07a2,2,0,0,1,.24-.32l.16-.14h0l0-.13v.14h0l0-.13v.14H47.59a.42.42,0,0,1,.26.08l0,0,.06,0h-.06v0l.06,0h-.06V56.75h1.62V14.48a1.62,1.62,0,0,0-.62-1.25,2,2,0,0,0-1.28-.44H9.92a1.6,1.6,0,0,0-.86.26,2.75,2.75,0,0,0-.69.66,3.45,3.45,0,0,0-.25.38l-.1.18V56.75A1.61,1.61,0,0,0,8.64,58a2,2,0,0,0,1.28.44H47.59A2,2,0,0,0,48.87,58a1.61,1.61,0,0,0,.62-1.25Z" transform="translate(0)"/><path class="cls-11" d="M35.32,24.58H28.39a1.17,1.17,0,0,0-1.17,1.17V49.93a1.17,1.17,0,0,0,1.17,1.17h6.92a1.17,1.17,0,0,0,1.17-1.17V25.75a1.17,1.17,0,0,0-1.17-1.17" transform="translate(0)"/><rect class="cls-10" x="24.24" y="21.68" width="9.26" height="26.52" rx="1.17" ry="1.17"/><path class="cls-8" d="M42.3,37.06C40.2,31.89,35,26.95,35,26.95v6.72L38.38,37s2.79,2,4.49,1.76c.15-.17-.14-.87-.56-1.66" transform="translate(0)"/><path class="cls-8" d="M21.68,41.24l-.07-.08a2.69,2.69,0,0,1-.43-1,2.44,2.44,0,0,1,0-.35h0a1.87,1.87,0,0,1,.08-.41,3.56,3.56,0,0,0-1-3.64l-.16-.14h0c.6,3.15-1.14,3.31-1.79,2.81a5.81,5.81,0,0,1-.91-3.83l-.13,0s-1.51.5-1.18,2.69h0a6.38,6.38,0,0,0,.37,1.32,8.91,8.91,0,0,0,.65,1.23h0l.09.14.08.12.08.12.1.14.07.09.15.21,0,0,.13.17,0,0,.11.14h0l.1.12v0l.05.06h0l0,0,4.5,4V42.09a7.74,7.74,0,0,1-1-.85" transform="translate(0)"/><path class="cls-8" d="M17.34,22.47H16.06c.06,3,.84,3.71.84,3.71l5.79,8.31V27.88H21.38V26.51H20.13V25.15H18.77v-1.2h-1.4v-.46h0Z" transform="translate(0)"/><path class="cls-7" d="M36.26,70.52l0,.08.08.16a1.6,1.6,0,0,1-.06-.23" transform="translate(0)"/><path class="cls-7" d="M36.59,70.52l0,.08.08.16a1.74,1.74,0,0,1-.06-.23" transform="translate(0)"/><path class="cls-12" d="M25.74,67.57a.54.54,0,1,0-.54.54.54.54,0,0,0,.54-.54" transform="translate(0)"/><path class="cls-12" d="M27.66,69.48a.54.54,0,1,0-.54.54.54.54,0,0,0,.54-.54" transform="translate(0)"/><path class="cls-12" d="M25.74,69.48a.54.54,0,1,0-.54.54.54.54,0,0,0,.54-.54" transform="translate(0)"/><path class="cls-12" d="M29.58,71.39a.54.54,0,1,0-.54.54.54.54,0,0,0,.54-.54" transform="translate(0)"/><path class="cls-12" d="M27.66,71.39a.54.54,0,1,0-.54.54.54.54,0,0,0,.54-.54" transform="translate(0)"/><path class="cls-12" d="M25.74,71.39a.54.54,0,1,0-.54.54.54.54,0,0,0,.54-.54" transform="translate(0)"/><path class="cls-12" d="M25.74,73.3a.54.54,0,1,0-.54.54.54.54,0,0,0,.54-.54" transform="translate(0)"/><path class="cls-12" d="M27.66,73.3a.54.54,0,1,0-.54.54.54.54,0,0,0,.54-.54" transform="translate(0)"/><path class="cls-12" d="M25.74,75.22a.54.54,0,1,0-.54.54.54.54,0,0,0,.54-.54" transform="translate(0)"/><path class="cls-12" d="M23.77,71.39a.54.54,0,1,0-.54.54.54.54,0,0,0,.54-.54" transform="translate(0)"/><path class="cls-12" d="M21.68,71.39a.37.37,0,1,0-.37.37.37.37,0,0,0,.37-.37" transform="translate(0)"/><path class="cls-12" d="M20.08,71.39a.21.21,0,1,0-.42,0,.21.21,0,0,0,.42,0" transform="translate(0)"/><path class="cls-12" d="M32.24,75.22a.54.54,0,1,0,.54-.54.54.54,0,0,0-.54.54" transform="translate(0)"/><path class="cls-12" d="M30.4,73.3a.54.54,0,1,0,.54-.54.54.54,0,0,0-.54.54" transform="translate(0)"/><path class="cls-12" d="M32.24,73.3a.54.54,0,1,0,.54-.54.54.54,0,0,0-.54.54" transform="translate(0)"/><path class="cls-12" d="M30.4,71.39a.54.54,0,1,0,.54-.54.54.54,0,0,0-.54.54" transform="translate(0)"/><path class="cls-12" d="M32.24,71.39a.54.54,0,1,0,.54-.54.54.54,0,0,0-.54.54" transform="translate(0)"/><path class="cls-12" d="M32.24,69.49a.54.54,0,1,0,.54-.54.54.54,0,0,0-.54.54" transform="translate(0)"/><path class="cls-12" d="M30.4,69.48a.54.54,0,1,0,.54-.54.54.54,0,0,0-.54.54" transform="translate(0)"/><path class="cls-12" d="M32.24,67.57a.54.54,0,1,0,.54-.54.54.54,0,0,0-.54.54" transform="translate(0)"/></g></g></g></svg>