<svg xmlns="http://www.w3.org/2000/svg" xmlns:xlink="http://www.w3.org/1999/xlink" viewBox="0 0 76.67 55.2"><defs><style>.cls-1{fill:none;}.cls-2{fill:#737577;}.cls-3{clip-path:url(#clip-path);}.cls-4{fill:#fff;}.cls-5,.cls-7{fill:#231f20;}.cls-6{fill:#939598;}.cls-7{font-size:14.99px;font-family:DINPro-Medium, DINPro;}.cls-8{fill:#e9004c;}</style><clipPath id="clip-path" transform="translate(0 0)"><rect class="cls-1" width="76.67" height="55.2"/></clipPath></defs><title>me-efficient-investment</title><g id="Шар_2" data-name="Шар 2"><g id="Layer_1" data-name="Layer 1"><path class="cls-2" d="M9.29,4.18,4.17,41.91,67.38,51,72.5,13.29Zm64.09,9.23Z" transform="translate(0 0)"/><g class="cls-3"><path class="cls-2" d="M8.51,0A3.16,3.16,0,0,0,5.39,2.74L0,42.22l0,.43A3.16,3.16,0,0,0,2.7,45.8l65,9.37.45,0a3.15,3.15,0,0,0,3.11-2.75L76.63,13l0-.46A3.16,3.16,0,0,0,74,9.4h0L8.95,0ZM4.17,41.91,9.29,4.18,72.5,13.29,67.38,51Zm69.22-28.5h0Zm-2.11,39h0ZM8.95,0ZM76.64,13h0Z" transform="translate(0 0)"/><path class="cls-2" d="M11.91,44.93l48,6.66s8.22,1.84,9.64-2.41,5.1-36.71,5.1-36.71L65.48,9.92l-54,30.61Z" transform="translate(0 0)"/><path class="cls-4" d="M70.64,43.09a1.14,1.14,0,0,1-1.12,1.16H3.06a1.15,1.15,0,0,1-1.13-1.16V2.75A1.15,1.15,0,0,1,3.06,1.58H69.52a1.14,1.14,0,0,1,1.12,1.16Z" transform="translate(0 0)"/><polyline class="cls-5" points="7.13 17.88 32.86 17.88 32.86 16.48 7.13 16.48"/><polyline class="cls-5" points="6.99 26.23 32.86 26.23 32.86 24.83 6.99 24.83"/><rect class="cls-6" x="49.5" y="16.48" width="18.49" height="5.36"/></g><text class="cls-7" transform="translate(37.02 28.52)">S</text><g class="cls-3"><polyline class="cls-5" points="40.56 16.42 40.56 18.27 41.9 18.27 41.9 16.42"/><polyline class="cls-5" points="40.56 27.98 40.56 29.84 41.9 29.84 41.9 27.98"/><path class="cls-8" d="M70.64,2.75a1.14,1.14,0,0,0-1.12-1.16H3.06A1.14,1.14,0,0,0,1.94,2.75v4.2h68.7Z" transform="translate(0 0)"/><polyline class="cls-5" points="7.13 34.57 68 34.57 68 33.17 7.13 33.17"/></g></g></g></svg>