<svg xmlns="http://www.w3.org/2000/svg" xmlns:xlink="http://www.w3.org/1999/xlink" viewBox="0 0 108 150"><defs><style>.cls-1,.cls-11{fill:none;}.cls-2{fill:#e9e8e9;}.cls-3{fill:#757678;}.cls-4{fill:#221f1f;}.cls-5{clip-path:url(#clip-path);}.cls-6{fill:#c6c7c9;}.cls-7{fill:#747578;}.cls-8{fill:#e61a4f;}.cls-9{fill:#fed771;}.cls-10{fill:#fff;}.cls-11{stroke:#747578;stroke-miterlimit:10;}</style><clipPath id="clip-path"><rect class="cls-1" width="108" height="150"/></clipPath></defs><title>me-ERP</title><g id="Шар_2" data-name="Шар 2"><g id="Layer_1" data-name="Layer 1"><rect class="cls-2" x="13" y="14" width="95" height="136"/><rect class="cls-3" x="8" y="9" width="93" height="134"/><path class="cls-4" d="M100,142H9V10h91ZM102,8H7V144h95Z"/><rect class="cls-2" x="1" y="1" width="93" height="134"/><path class="cls-4" d="M2,2H93V134H2ZM0,136H95V0H0Z"/><g class="cls-5"><path class="cls-6" d="M82,121H20a5,5,0,0,1-5-5V30a5,5,0,0,1,5-5H82a5,5,0,0,1,5,5v86a5,5,0,0,1-5,5"/><rect class="cls-7" x="12.5" y="21.5" width="68" height="93" rx="3.5" ry="3.5"/><path class="cls-8" d="M77,23a2,2,0,0,1,2,2v86a2,2,0,0,1-2,2H16a2,2,0,0,1-2-2V25a2,2,0,0,1,2-2H77m0-3H16a5,5,0,0,0-5,5v86a5,5,0,0,0,5,5H77a5,5,0,0,0,5-5V25a5,5,0,0,0-5-5"/><rect class="cls-9" x="40.72" y="64.87" width="13.33" height="4.39"/><path class="cls-9" d="M48.83,39.6v-.34a.6.6,0,0,1,.35-.44h0a3.29,3.29,0,0,0,1.69-2.86,3.37,3.37,0,0,0-6.73,0,3.29,3.29,0,0,0,1.69,2.86h0a.59.59,0,0,1,.35.44v.34c-.06.56-1.07.65-1.07.65v.3h1.09c0,.4,0,.72,0,.72h2.65s0-.32,0-.72H49.9v-.3s-1-.1-1.07-.65"/><path class="cls-9" d="M58.77,51.39a3.29,3.29,0,0,1,2.86,1.69h0a.6.6,0,0,0,.44.36h.19V41a.76.76,0,0,0-.76-.76H34a.76.76,0,0,0-.76.76V53.44h.27a.6.6,0,0,0,.44-.36h0a3.29,3.29,0,0,1,2.86-1.69,3.37,3.37,0,0,1,0,6.73A3.29,3.29,0,0,1,34,56.43h0a.59.59,0,0,0-.44-.35h-.27V68.51a.76.76,0,0,0,.76.76H61.52a.76.76,0,0,0,.76-.76V56.07h-.19a.6.6,0,0,0-.44.35h0a3.28,3.28,0,0,1-2.86,1.69,3.37,3.37,0,0,1,0-6.73"/><path class="cls-10" d="M61.27,84.43V83.17l.72,0V82.09h.3s.1,1,.65,1.07h.34a.6.6,0,0,0,.44-.36h0a3.28,3.28,0,0,1,2.86-1.69,3.37,3.37,0,0,1,0,6.74,3.29,3.29,0,0,1-2.86-1.69h0a.6.6,0,0,0-.44-.35h-.34c-.55.06-.65,1.07-.65,1.07H62V85.79l-.72,0V84.43Z"/><path class="cls-10" d="M61.52,70H49.76l.11.08a4.23,4.23,0,0,1,1.94,3.53,4.31,4.31,0,0,1-8.61,0,4.23,4.23,0,0,1,1.94-3.53v0l.1-.06H34a.76.76,0,0,0-.76.76V98.24A.76.76,0,0,0,34,99H46.21v-.2a.61.61,0,0,0-.36-.44h0a3.29,3.29,0,0,1-1.69-2.86,3.37,3.37,0,0,1,6.73,0,3.29,3.29,0,0,1-1.69,2.86h0a.61.61,0,0,0-.36.44V99H61.52a.76.76,0,0,0,.76-.76V70.74a.76.76,0,0,0-.76-.76"/><path class="cls-7" d="M47.48,78.48a4.86,4.86,0,1,0-4.86-4.86,4.86,4.86,0,0,0,4.86,4.86"/><line class="cls-11" x1="49.92" y1="70.11" x2="64.03" y2="70.11"/><line class="cls-11" x1="30.84" y1="70.11" x2="44.95" y2="70.11"/><path class="cls-7" d="M62.39,58.61a4.86,4.86,0,1,1,0-7.73Z"/><path class="cls-7" d="M33.18,58.61a4.86,4.86,0,1,0,0-7.73Z"/><rect class="cls-7" x="30.66" y="50.84" width="7.14" height="7.78"/><path class="cls-10" d="M29,81.12a3.37,3.37,0,1,1-3.32,3.37A3.34,3.34,0,0,1,29,81.12"/><path class="cls-10" d="M32.62,83.17c-.55.06-2,0-2,0v2.65s1.46-.06,2,0,.65,1.07.65,1.07h.3V82.09h-.3s-.1,1-.65,1.07"/><path class="cls-10" d="M31.33,82.81v3.36h.52a.59.59,0,0,1,.44-.35c.55-.06,2,0,2,0V83.17s-1.46.06-2,0a.59.59,0,0,1-.44-.35Z"/><path class="cls-9" d="M49.18,70.67h0a.59.59,0,0,1-.35-.44v-.34c.06-.55,1.07-.65,1.07-.65v-.3H48.81c0-.4,0-.72,0-.72H46.18s0,.32,0,.72H45.11v.3s1,.1,1.07.65v.34a.59.59,0,0,1-.35.44h0a3.29,3.29,0,0,0-1.69,2.86,3.37,3.37,0,0,0,6.73,0,3.29,3.29,0,0,0-1.69-2.86"/></g></g></g></svg>