<svg xmlns="http://www.w3.org/2000/svg" xmlns:xlink="http://www.w3.org/1999/xlink" viewBox="0 0 73.68 73.95"><defs><style>.cls-1{fill:none;}.cls-2{clip-path:url(#clip-path);}.cls-3{fill:#fff;}.cls-4{fill:#737577;}.cls-5{fill:#fed771;}.cls-6{fill:#afb1b4;}</style><clipPath id="clip-path"><rect class="cls-1" width="73.68" height="73.94"/></clipPath></defs><title>me-Great-projects</title><g id="Шар_2" data-name="Шар 2"><g id="Layer_1" data-name="Layer 1"><g class="cls-2"><path class="cls-3" d="M68.26,36.67A31.35,31.35,0,1,0,36.91,68,31.35,31.35,0,0,0,68.26,36.67"/><path class="cls-4" d="M67.88,37a31,31,0,1,0-31,31,31,31,0,0,0,31-31"/><path class="cls-3" d="M25.68,52h1.07V34.47H25.68l.66.84L27,34.8a48,48,0,0,1,6.1-4A23.68,23.68,0,0,0,38,27.51a11.75,11.75,0,0,0,3.53-4.73A37.28,37.28,0,0,1,43,18.7a6,6,0,0,1,.77-1.27c.24-.28.4-.34.43-.34h.05c.16,0,.71.18,1.23,1.09a9.5,9.5,0,0,1,1,4.69c0,.36,0,.74,0,1.14l1.07.06-1-.37a20.18,20.18,0,0,1-2.63,4.91,14.79,14.79,0,0,1-1,1.23l-.28.3-.07.07h0l-1.1,1,1.32.71a14.43,14.43,0,0,0,2.25,1c.33.09.85.2,1.6.39a21.34,21.34,0,0,1,3.83,1.31,4.27,4.27,0,0,1,2.32,2l1-.34-1,.31.09.6a3.68,3.68,0,0,1-.63,1.88,6.41,6.41,0,0,1-1.26,1.46l-.2.17-.1.25c-.51,1.25-1.5,4-2.65,6.68-.58,1.34-1.19,2.65-1.79,3.72a8.25,8.25,0,0,1-1.57,2.18l-.06,0-.05.06,0,0,0,0h0l0,0,0,0a4.16,4.16,0,0,1-1.49.56,15.9,15.9,0,0,1-3.54.36,30,30,0,0,1-13.31-3.46l-.48,1h0l-.48,1a32.14,32.14,0,0,0,14.27,3.68,17.91,17.91,0,0,0,4.13-.44A8.41,8.41,0,0,0,45,55.76a3.19,3.19,0,0,0,1-.69l-.78-.73.67.83A9.85,9.85,0,0,0,48,52.38a55.4,55.4,0,0,0,2.74-6c.8-2,1.47-3.81,1.82-4.67l-1-.4.69.82a8.52,8.52,0,0,0,1.7-2,5.78,5.78,0,0,0,1-3,4.18,4.18,0,0,0-.18-1.23h0a5,5,0,0,0-2-2.43,16,16,0,0,0-4.34-1.9c-.7-.21-1.33-.37-1.84-.49l-1-.23a9.14,9.14,0,0,1-1.21-.49l-.46-.23-.18-.09-.51.94.73.78a20.17,20.17,0,0,0,4.55-7.34l.06-.15v-.16c0-.44,0-.86,0-1.27a11.54,11.54,0,0,0-1.26-5.77,3.77,3.77,0,0,0-3.08-2.16l-.43,0A2.93,2.93,0,0,0,42.16,16a10.38,10.38,0,0,0-1.52,2.75c-.43,1.06-.81,2.22-1.18,3.32a9.8,9.8,0,0,1-2.91,3.8,21.65,21.65,0,0,1-4.39,3A54.54,54.54,0,0,0,25,33.63l-.41.32V52.68l.59.3Z"/><path class="cls-5" d="M20.5,32.81A1.8,1.8,0,0,0,18.67,31l-14.36.18-.52,0V44.35L9.25,55.5l7.93-.4h0l1.79,0a1.8,1.8,0,0,0,1.78-1.82Z"/><path class="cls-6" d="M36.72,67.54A30.68,30.68,0,1,1,67.4,36.86,30.71,30.71,0,0,1,36.72,67.54M3.55,43.46l0-.09,0,.15ZM72.37,41c.87-.49,1.22-.65,1.3-1.09s-.7-1.06-1-1.29-1.73-1.15-1.71-2.09V36.4c-.07-.95,1.35-1.93,1.66-2.17s1.08-.88,1-1.32-.45-.59-1.33-1.06c-2.19-1-2-1.89-2-1.89l0,.09c-.21-.92,1-2.11,1.25-2.41s.91-1.06.74-1.47-.55-.5-1.5-.8a3.63,3.63,0,0,1-2.17-1.12c-.12-.27-.27-1,.7-2.58.47-.88.69-1.21.52-1.62s-1.16-.52-1.56-.55-2.08-.05-2.57-.85l.08.06s-.75-.54.14-2.77c.31-.95.46-1.3.22-1.68s-1.23-.3-1.63-.26-2.09.33-2.7-.4h0l0,0c-.68-.66-.28-2.34-.22-2.72s.22-1.38-.15-1.64-.73-.13-1.7.11c-2.29.73-2.78,0-2.78,0l.05.08c-.77-.54-.68-2.23-.68-2.62s0-1.39-.44-1.59-.74,0-1.65.41c-1.49.79-2.23.69-2.54.56a3.93,3.93,0,0,1-.9-2.15c-.24-1-.31-1.35-.71-1.55s-1.2.4-1.52.64S46.92,4.39,46,4.12h.1s-.91.11-1.76-2.14c-.41-.91-.54-1.27-1-1.4s-1.12.6-1.38.9S40.68,3.12,39.74,3h0c-1,0-1.78-1.54-2-1.87S36.95,0,36.5,0s-.63.39-1.19,1.22C34.11,3.3,33.23,3,33.23,3l.09,0c-.94.12-2-1.2-2.27-1.49s-1-1-1.39-.88-.56.49-1,1.41c-.63,1.74-1.31,2.08-1.59,2.15a3.61,3.61,0,0,1-2.22-1c-.83-.56-1.13-.8-1.56-.68s-.63,1.1-.7,1.49-.26,2.06-1.12,2.47l.07-.08s-.61.69-2.74-.42c-.92-.4-1.26-.58-1.66-.39s-.42,1.2-.42,1.59.11,2.11-.67,2.65l0,0c-.72.62-2.36,0-2.73-.06s-1.35-.35-1.65,0-.21.71-.07,1.69c.49,2.35-.33,2.76-.33,2.76l.09,0c-.62.71-2.29.45-2.68.41s-1.39-.1-1.62.28-.08.74.24,1.68a3.39,3.39,0,0,1,.34,2.5l-.06.1c-.44.84-2.17.91-2.56,1s-1.38.17-1.53.59.06.74.57,1.6c1.33,2,.72,2.68.72,2.68L4.85,25c-.31.89-2,1.27-2.34,1.38s-1.33.42-1.4.86.2.72.85,1.47c1.31,1.36,1.29,2.12,1.22,2.39A3.66,3.66,0,0,1,1.3,32.65c-.87.49-1.22.66-1.29,1.1S.71,34.8,1,35s1.74,1.15,1.72,2.09l0-.09s.35.85-1.59,2.28C.37,40,.05,40.18.05,40.62s.89.91,1.24,1.08,1.95.83,2.08,1.77h0v0c.23.92-1,2.13-1.26,2.42S1.21,47,1.38,47.4s.55.51,1.5.81c2.33.6,2.33,1.52,2.33,1.52v-.1c.37.87-.61,2.26-.82,2.59s-.71,1.2-.47,1.58.63.4,1.62.53c1.82.13,2.34.68,2.49.93a3.55,3.55,0,0,1-.36,2.46c-.32.95-.47,1.31-.24,1.68s1.23.32,1.62.28,2.06-.3,2.68.41l-.09,0s.82.4.33,2.76c-.14,1-.23,1.36.07,1.7s1.27.09,1.65,0,2-.67,2.73-.06l.08.05,0,0c.8.51.73,2.24.74,2.63s.06,1.4.46,1.58.74,0,1.65-.43c2.11-1.16,2.73-.49,2.73-.49l-.07-.08c.86.39,1.1,2.07,1.18,2.44s.31,1.36.74,1.47.73-.14,1.54-.72a3.45,3.45,0,0,1,2.27-1.06l-.25,0s.92-.12,1.79,2.12c.42.91.56,1.27,1,1.39s1.12-.61,1.38-.91S33,70.86,33.95,71l-.09,0s.88-.28,2.15,1.77c.58.82.78,1.15,1.22,1.19s1-.81,1.19-1.15,1-1.87,2-1.92h0c.95-.15,2.05,1.17,2.32,1.46s1,1,1.41.87.55-.5.94-1.42c.8-2.27,1.72-2.19,1.72-2.19h-.1c.9-.29,2.21.8,2.53,1s1.15.81,1.54.6.45-.59.67-1.56c.29-1.8.88-2.28,1.15-2.41a3.72,3.72,0,0,1,2.33.55c.92.39,1.27.57,1.66.36s.4-1.2.4-1.6-.15-2.08.61-2.64l0,.08s.46-.79,2.77-.12c1,.22,1.34.33,1.7.06s.19-1.26.1-1.65-.52-2,.14-2.73l0,0c.6-.74,2.3-.5,2.69-.47s1.39.08,1.62-.31.07-.74-.26-1.68c-.95-2.21-.22-2.77-.22-2.77l-.08.05c.47-.82,2.16-.89,2.55-.93s1.39-.17,1.54-.59-.06-.74-.56-1.6A3.62,3.62,0,0,1,68.73,49c.09-.28.49-.93,2.26-1.42.95-.33,1.32-.43,1.48-.84s-.51-1.16-.78-1.45-1.5-1.45-1.32-2.37l0,.1s-.19-.9,2-2"/></g></g></g></svg>