<svg xmlns="http://www.w3.org/2000/svg" xmlns:xlink="http://www.w3.org/1999/xlink" viewBox="0 0 108 150"><defs><style>.cls-1,.cls-11,.cls-15,.cls-16,.cls-9{fill:none;}.cls-2{fill:#e9e8e9;}.cls-3{fill:#757678;}.cls-4{fill:#221f1f;}.cls-5{clip-path:url(#clip-path);}.cls-6{fill:#c6c7c9;}.cls-7{fill:#fff;}.cls-8{fill:#333e48;}.cls-11,.cls-9{stroke:#333e48;}.cls-11,.cls-15,.cls-16,.cls-9{stroke-miterlimit:10;}.cls-16,.cls-9{stroke-width:1.01px;}.cls-10{fill:#e9004c;}.cls-11{stroke-width:0.95px;}.cls-12{fill:#231f20;}.cls-13{fill:#ffe9b1;}.cls-14{fill:#96999b;}.cls-15,.cls-16{stroke:#231f20;}.cls-15{stroke-width:1px;}.cls-17{fill:#747578;}</style><clipPath id="clip-path"><rect class="cls-1" width="108" height="150"/></clipPath></defs><title>me-HR</title><g id="Шар_2" data-name="Шар 2"><g id="Layer_1" data-name="Layer 1"><rect class="cls-2" x="13" y="14" width="95" height="136"/><rect class="cls-3" x="8" y="9" width="93" height="134"/><path class="cls-4" d="M100,142H9V10h91ZM102,8H7V144h95Z"/><rect class="cls-2" x="1" y="1" width="93" height="134"/><path class="cls-4" d="M2,2H93V134H2ZM0,136H95V0H0Z"/><g class="cls-5"><path class="cls-6" d="M82,121H20a5,5,0,0,1-5-5V30a5,5,0,0,1,5-5H82a5,5,0,0,1,5,5v86a5,5,0,0,1-5,5"/><rect class="cls-7" x="12.5" y="21.5" width="68" height="93" rx="3.5" ry="3.5"/><path class="cls-3" d="M77,23a2,2,0,0,1,2,2v86a2,2,0,0,1-2,2H16a2,2,0,0,1-2-2V25a2,2,0,0,1,2-2H77m0-3H16a5,5,0,0,0-5,5v86a5,5,0,0,0,5,5H77a5,5,0,0,0,5-5V25a5,5,0,0,0-5-5"/><path class="cls-8" d="M76.46,84.53a24.91,24.91,0,0,0-.74-3.79A8.58,8.58,0,0,0,74,77.1c-2.08-2.14-5.76-3.74-7.28-4.62-1,.83-1.78,2.11-4.37,2.19h-.44c-2.58-.08-3.39-1.36-4.37-2.19-.81.47-2.23,1.14-3.7,2a16.34,16.34,0,0,0-3.56,2.59c-2,2-2.34,7.45-2.34,7.45H76.46Z"/><path class="cls-9" d="M76.46,84.53a24.91,24.91,0,0,0-.74-3.79A8.58,8.58,0,0,0,74,77.1c-2.08-2.14-5.76-3.74-7.28-4.62-1,.83-1.78,2.11-4.37,2.19h-.44c-2.58-.08-3.39-1.36-4.37-2.19-.81.47-2.23,1.14-3.7,2a16.34,16.34,0,0,0-3.56,2.59c-2,2-2.34,7.45-2.34,7.45H76.46Z"/><path class="cls-10" d="M41.9,76.61a23.4,23.4,0,0,0-5.81-3.81c-.91,1-2.66,2.27-5.92,2.3a9,9,0,0,1-5.49-2.3,23.43,23.43,0,0,0-5.82,3.82c-2,2.08-2.39,7.6-2.39,7.6H44.29s-.37-5.52-2.39-7.6"/><path class="cls-11" d="M41.9,76.61a23.4,23.4,0,0,0-5.81-3.81c-.91,1-2.66,2.27-5.92,2.3a9,9,0,0,1-5.49-2.3,23.43,23.43,0,0,0-5.82,3.82c-2,2.08-2.39,7.6-2.39,7.6H44.29S43.92,78.7,41.9,76.61Z"/><path class="cls-12" d="M42.83,74.24H41.07s-.38-.85-.65-8.71,5.66-7.66,5.66-7.66a6.05,6.05,0,0,1,6.08,5.18c.14,5.18-1.14,10.38-1.89,11.19"/><path class="cls-13" d="M41.23,66.47s.32,4.53,3.24,6.3c1.33.85,2,.64,2,.64l-.32-6.94"/><path class="cls-13" d="M51.29,66.47S51,71,48.09,72.77c-1.32.85-1.94.64-1.94.64l.31-6.94"/><path class="cls-13" d="M43.18,69.23,41.5,66.47s4.05-.28,5.74-1.91,3-.8,2.23,1"/><rect class="cls-13" x="47.54" y="65.73" width="3.72" height="0.86"/><rect class="cls-13" x="45.08" y="66.96" width="2.28" height="3.48"/><path class="cls-12" d="M44,62.26l-3,3.94a21.5,21.5,0,0,0,5.36-.83c1.82-.71,2.8-1.05,3.13-.61A1,1,0,0,1,49.25,66c-.26.17,2.09-.12,2.09-.12l-.29-3.12"/><path class="cls-13" d="M50.86,66.83l.38,0a10.07,10.07,0,0,0,.09-1.07h-.47"/><path class="cls-12" d="M46.23,61.39s-1.63,4.13-2.36,4.28c.51.06,4.25.71,5.78,0s.56-2.38.56-2.38"/><path class="cls-12" d="M52.15,63.13s.38,9.5.16,11l-1.58.15"/><polyline class="cls-13" points="48.97 63.89 49.37 66.25 49.71 66.31"/><path class="cls-12" d="M47.36,58a5.9,5.9,0,0,1,4.8,5"/><path class="cls-12" d="M46.08,57.87s-6.06,0-5.67,7.23"/><rect class="cls-12" x="49.97" y="72.64" width="1.04" height="1.59"/><path class="cls-7" d="M46.35,74.24s5.41-.09,5.94-.14.07.43.07.43l-6,.45"/><path class="cls-12" d="M40.46,63.13s-.38,9.5-.16,11l1.58.15"/><path class="cls-7" d="M46.32,74.24s-5.41-.09-5.94-.14-.07.43-.07.43l6,.45"/><rect class="cls-13" x="49.04" y="65.99" width="0.36" height="0.35"/><path class="cls-13" d="M49.45,65.85l1.89.06c-.19.36-.37.66-.37.66l-1.56-.12"/><polyline class="cls-12" points="50.09 65.49 50.26 65.88 51.46 65.93 51.5 65.65"/><rect class="cls-7" x="51.82" y="74.07" width="2.02" height="3.07"/><path class="cls-7" d="M63.38,87c-.48-5.06-1.52-8-3.19-9.69a21.4,21.4,0,0,0-6.8-4.3l-.77,10.39S53.62,85,55,87Z"/><path class="cls-14" d="M61.93,71.87a5,5,0,0,0,4.62-3.57,22.87,22.87,0,0,0,.92-6.39c0-1.36-.56-5.23-5.54-5.43-5,.19-5.55,4.07-5.55,5.43a22.84,22.84,0,0,0,.93,6.39,5,5,0,0,0,4.62,3.57"/><path class="cls-15" d="M61.93,71.87a5,5,0,0,0,4.62-3.57,22.87,22.87,0,0,0,.92-6.39c0-1.36-.56-5.23-5.54-5.43-5,.19-5.55,4.07-5.55,5.43a22.84,22.84,0,0,0,.93,6.39A5,5,0,0,0,61.93,71.87Z"/><path class="cls-7" d="M29.22,87c.48-5.06,1.52-8,3.19-9.69a21.39,21.39,0,0,1,6.8-4.3L40,83.43S39,85,37.56,87Z"/><rect class="cls-7" x="38.78" y="74.36" width="2.24" height="4.2"/><path class="cls-14" d="M56.44,63.58l-.16-4a5.68,5.68,0,0,1,5-3l.66,0a19.7,19.7,0,0,1,5.56,1.08c0,.64-.09,1.36-.09,2.18,0,1.36.09,2.28.09,2.28"/><path class="cls-16" d="M56.44,63.58l-.16-4a5.68,5.68,0,0,1,5-3l.66,0a19.7,19.7,0,0,1,5.56,1.08c0,.64-.09,1.36-.09,2.18,0,1.36.09,2.28.09,2.28"/><path class="cls-2" d="M30.5,72a5,5,0,0,0,4.62-3.57A22.87,22.87,0,0,0,36,62c0-1.36-.55-5.23-5.54-5.43C25.51,56.8,25,60.67,25,62a22.85,22.85,0,0,0,.93,6.39A5,5,0,0,0,30.5,72"/><path class="cls-15" d="M30.5,72a5,5,0,0,0,4.62-3.57A22.87,22.87,0,0,0,36,62c0-1.36-.55-5.23-5.54-5.43C25.51,56.8,25,60.67,25,62a22.85,22.85,0,0,0,.93,6.39A5,5,0,0,0,30.5,72Z"/><path class="cls-17" d="M57.75,79.06a23.35,23.35,0,0,0-5.81-3.81c-.9,1-2.66,2.27-5.92,2.3a9,9,0,0,1-5.49-2.3,23.43,23.43,0,0,0-5.82,3.81c-2,2.08-2.39,7.6-2.39,7.6H60.14s-.37-5.52-2.39-7.6"/><path class="cls-11" d="M57.75,79.06a23.35,23.35,0,0,0-5.81-3.81c-.9,1-2.66,2.27-5.92,2.3a9,9,0,0,1-5.49-2.3,23.43,23.43,0,0,0-5.82,3.81c-2,2.08-2.39,7.6-2.39,7.6H60.14S59.77,81.14,57.75,79.06Z"/></g></g></g></svg>