<svg xmlns="http://www.w3.org/2000/svg" xmlns:xlink="http://www.w3.org/1999/xlink" viewBox="0 0 108 150"><defs><style>.cls-1,.cls-12{fill:none;}.cls-2{fill:#e9e8e9;}.cls-3{fill:#757678;}.cls-4{fill:#221f1f;}.cls-5{clip-path:url(#clip-path);}.cls-6{fill:#c6c7c9;}.cls-7{fill:#fff;}.cls-8{fill:#333e48;}.cls-9{fill:#848587;}.cls-10{fill:#96999b;}.cls-11{fill:#747578;}.cls-12{stroke:#e9004c;stroke-linecap:round;stroke-miterlimit:10;stroke-width:4px;}</style><clipPath id="clip-path"><rect class="cls-1" width="108" height="150"/></clipPath></defs><title>me-IT</title><g id="Шар_2" data-name="Шар 2"><g id="Layer_1" data-name="Layer 1"><rect class="cls-2" x="13" y="14" width="95" height="136"/><rect class="cls-3" x="8" y="9" width="93" height="134"/><path class="cls-4" d="M100,142H9V10h91ZM102,8H7V144h95Z"/><rect class="cls-2" x="1" y="1" width="93" height="134"/><path class="cls-4" d="M2,2H93V134H2ZM0,136H95V0H0Z"/><g class="cls-5"><path class="cls-6" d="M82,121H20a5,5,0,0,1-5-5V30a5,5,0,0,1,5-5H82a5,5,0,0,1,5,5v86a5,5,0,0,1-5,5"/><rect class="cls-7" x="12.5" y="21.5" width="68" height="93" rx="3.5" ry="3.5"/><path class="cls-3" d="M77,23a2,2,0,0,1,2,2v86a2,2,0,0,1-2,2H16a2,2,0,0,1-2-2V25a2,2,0,0,1,2-2H77m0-3H16a5,5,0,0,0-5,5v86a5,5,0,0,0,5,5H77a5,5,0,0,0,5-5V25a5,5,0,0,0-5-5"/><polygon class="cls-8" points="56.76 54.02 35.5 54.02 34.36 52.54 57.85 52.54 56.76 54.02"/><rect class="cls-9" x="43" y="57.24" width="7.82" height="1.76"/><path class="cls-10" d="M60.44,38H33.56a.55.55,0,0,0-.56.54V57.46c0,.3.56.54.56.54H60.44a.55.55,0,0,0,.56-.54V38.54a.55.55,0,0,0-.56-.54"/><rect class="cls-11" x="41" y="60" width="12" height="3"/><path class="cls-11" d="M59.52,38.94h-5.6L40.68,57.06H59.52a.49.49,0,0,0,.48-.49V39.43a.48.48,0,0,0-.48-.49"/><rect class="cls-9" x="43" y="94.24" width="7.82" height="1.76"/><path class="cls-10" d="M60.44,75H33.56a.55.55,0,0,0-.56.54V94.46c0,.3.56.54.56.54H60.44a.55.55,0,0,0,.56-.54V75.54a.55.55,0,0,0-.56-.54"/><rect class="cls-11" x="41" y="97" width="12" height="3"/><path class="cls-11" d="M59.52,75.94h-5.6L40.68,94.06H59.52a.49.49,0,0,0,.48-.49V76.43a.48.48,0,0,0-.48-.49"/><path class="cls-12" d="M56.08,48h8S67,47.68,67,51.2V82s-.84,2.86-3,3-8,0-8,0"/></g></g></g></svg>