<svg xmlns="http://www.w3.org/2000/svg" xmlns:xlink="http://www.w3.org/1999/xlink" viewBox="0 0 185.73 45.31"><defs><style>.cls-1{fill:none;}.cls-2{clip-path:url(#clip-path);}.cls-3{fill:#e9004c;}.cls-4{fill:#333e48;}</style><clipPath id="clip-path" transform="translate(0)"><rect class="cls-1" width="185.73" height="45.31"/></clipPath></defs><title>me-logo</title><g id="Шар_2" data-name="Шар 2"><g id="Layer_1" data-name="Layer 1"><g class="cls-2"><path class="cls-3" d="M31.09,2.95a2.75,2.75,0,1,0-2.75,2.75,2.75,2.75,0,0,0,2.75-2.75" transform="translate(0)"/><path class="cls-3" d="M40.9,12.71a2.75,2.75,0,1,0-2.75,2.75,2.75,2.75,0,0,0,2.75-2.75" transform="translate(0)"/><path class="cls-3" d="M31.09,12.71a2.74,2.74,0,1,0-2.75,2.75,2.75,2.75,0,0,0,2.75-2.75" transform="translate(0)"/><path class="cls-3" d="M50.7,22.48A2.75,2.75,0,1,0,48,25.23a2.75,2.75,0,0,0,2.75-2.75" transform="translate(0)"/><path class="cls-3" d="M40.9,22.48a2.75,2.75,0,1,0-2.75,2.75,2.75,2.75,0,0,0,2.75-2.75" transform="translate(0)"/><path class="cls-3" d="M31.09,22.48a2.74,2.74,0,1,0-2.75,2.75,2.75,2.75,0,0,0,2.75-2.75" transform="translate(0)"/><path class="cls-3" d="M31.09,32.21A2.75,2.75,0,1,0,28.34,35a2.75,2.75,0,0,0,2.75-2.75" transform="translate(0)"/><path class="cls-3" d="M40.9,32.25A2.75,2.75,0,1,0,38.15,35a2.75,2.75,0,0,0,2.75-2.74" transform="translate(0)"/><path class="cls-3" d="M31.09,42a2.75,2.75,0,1,0-2.75,2.74A2.75,2.75,0,0,0,31.09,42" transform="translate(0)"/><path class="cls-3" d="M21,22.48a2.74,2.74,0,1,0-2.75,2.75A2.75,2.75,0,0,0,21,22.48" transform="translate(0)"/><path class="cls-3" d="M10.36,22.48a1.88,1.88,0,1,0-1.88,1.88,1.88,1.88,0,0,0,1.88-1.88" transform="translate(0)"/><path class="cls-3" d="M2.15,22.48a1.07,1.07,0,1,0-1.08,1.07,1.08,1.08,0,0,0,1.08-1.07" transform="translate(0)"/><path class="cls-3" d="M64.27,42A2.74,2.74,0,1,0,67,39.27,2.74,2.74,0,0,0,64.27,42" transform="translate(0)"/><path class="cls-3" d="M54.87,32.25a2.74,2.74,0,1,0,2.74-2.75,2.75,2.75,0,0,0-2.74,2.75" transform="translate(0)"/><path class="cls-3" d="M64.27,32.25A2.74,2.74,0,1,0,67,29.5a2.74,2.74,0,0,0-2.74,2.75" transform="translate(0)"/><path class="cls-3" d="M54.87,22.48a2.74,2.74,0,1,0,2.74-2.74,2.75,2.75,0,0,0-2.74,2.74" transform="translate(0)"/><path class="cls-3" d="M64.27,22.48A2.74,2.74,0,1,0,67,19.74a2.75,2.75,0,0,0-2.74,2.74" transform="translate(0)"/><path class="cls-3" d="M64.27,12.74A2.74,2.74,0,1,0,67,10a2.75,2.75,0,0,0-2.74,2.74" transform="translate(0)"/><path class="cls-3" d="M54.87,12.71A2.74,2.74,0,1,0,57.62,10a2.74,2.74,0,0,0-2.74,2.75" transform="translate(0)"/><path class="cls-3" d="M64.27,2.95A2.74,2.74,0,1,0,67,.2a2.75,2.75,0,0,0-2.74,2.74" transform="translate(0)"/><polygon class="cls-4" points="76.28 25.43 88.24 25.43 88.24 26.76 77.78 26.76 77.78 34.54 86.69 34.54 86.69 35.87 77.78 35.87 77.78 43.81 88.24 43.81 88.24 45.15 76.28 45.15 76.28 25.43"/><polygon class="cls-4" points="96.59 36.37 91.44 45.15 89.75 45.15 95.79 35.04 90.14 25.43 91.88 25.43 96.59 33.71 101.33 25.43 103.04 25.43 97.4 35.04 103.49 45.15 101.74 45.15 96.59 36.37"/><path class="cls-4" d="M113.55,26.76H108v8.69h5.56c2.74,0,4.63-1.38,4.63-4.35s-1.88-4.35-4.62-4.35m.17,10H108v8.36h-1.5V25.43h7.23c3.4,0,6,2,6,5.68s-2.55,5.68-6,5.68" transform="translate(0)"/><path class="cls-4" d="M130.73,26.76h-5.81v8h5.81c2.55,0,4.35-1.25,4.35-4s-1.8-4-4.35-4m-.38,9.3h-5.43v9.08h-1.49V25.43h7.5c3.21,0,5.65,1.86,5.65,5.29A5.08,5.08,0,0,1,132,36l4.76,9.11h-1.74Z" transform="translate(0)"/><polygon class="cls-4" points="141.08 25.43 153.04 25.43 153.04 26.76 142.57 26.76 142.57 34.54 151.49 34.54 151.49 35.87 142.57 35.87 142.57 43.81 153.04 43.81 153.04 45.15 141.08 45.15 141.08 25.43"/><path class="cls-4" d="M162,45.31a8.37,8.37,0,0,1-6.56-2.6l1.05-1.05A6.92,6.92,0,0,0,162.11,44c3.13,0,5.07-1.5,5.07-4.07a3.45,3.45,0,0,0-1.08-2.77,4.77,4.77,0,0,0-2.85-1l-2.3-.36a6.73,6.73,0,0,1-3.52-1.44,4.49,4.49,0,0,1-1.55-3.63c0-3.32,2.32-5.4,6.12-5.4a7.8,7.8,0,0,1,5.68,2.13l-1,1a6.27,6.27,0,0,0-4.79-1.83c-2.88,0-4.57,1.55-4.57,4.07a3.17,3.17,0,0,0,1,2.57,6.63,6.63,0,0,0,2.94,1.22l2.13.33A6,6,0,0,1,167,36a4.84,4.84,0,0,1,1.72,3.82c0,3.35-2.52,5.45-6.64,5.45" transform="translate(0)"/><path class="cls-4" d="M177.57,45.31a8.37,8.37,0,0,1-6.56-2.6l1.05-1.05A6.92,6.92,0,0,0,177.65,44c3.13,0,5.07-1.5,5.07-4.07a3.45,3.45,0,0,0-1.08-2.77,4.77,4.77,0,0,0-2.85-1l-2.3-.36A6.74,6.74,0,0,1,173,34.29a4.49,4.49,0,0,1-1.55-3.63c0-3.32,2.32-5.4,6.12-5.4a7.8,7.8,0,0,1,5.68,2.13l-1,1a6.26,6.26,0,0,0-4.79-1.83c-2.88,0-4.57,1.55-4.57,4.07a3.16,3.16,0,0,0,1,2.57,6.61,6.61,0,0,0,2.94,1.22l2.13.33A6,6,0,0,1,182.5,36a4.84,4.84,0,0,1,1.72,3.82c0,3.35-2.52,5.45-6.64,5.45" transform="translate(0)"/><polygon class="cls-4" points="91.07 20.96 91.07 8.85 87.1 16.73 84.35 16.73 80.36 8.85 80.36 20.96 76.3 20.96 76.3 0.17 80.3 0.17 85.73 11.42 91.13 0.17 95.13 0.17 95.13 20.96 91.07 20.96"/><polygon class="cls-4" points="98.91 20.96 98.91 0.17 112.6 0.17 112.6 3.8 102.97 3.8 102.97 8.67 108.41 8.67 108.41 12.29 102.97 12.29 102.97 17.34 112.6 17.34 112.6 20.96 98.91 20.96"/><polygon class="cls-4" points="124.85 3.8 124.85 20.96 120.8 20.96 120.8 3.8 115.37 3.8 115.37 0.18 130.28 0.18 130.28 3.8 124.85 3.8"/><polygon class="cls-4" points="144.09 20.96 144.09 12.26 137.06 12.26 137.06 20.96 133 20.96 133 0.17 137.06 0.17 137.06 8.67 144.09 8.67 144.09 0.17 148.15 0.17 148.15 20.96 144.09 20.96"/><path class="cls-4" d="M162,4.73a3.37,3.37,0,0,0-2.6-1.11,3.44,3.44,0,0,0-2.63,1.11c-.79.88-1,1.84-1,5.84s.2,5,1,5.84a3.45,3.45,0,0,0,2.63,1.11,3.37,3.37,0,0,0,2.6-1.11c.79-.88,1-1.84,1-5.84s-.23-5-1-5.84m3,14.13a8.07,8.07,0,0,1-11.24,0c-2.1-2.1-2-4.7-2-8.29s-.06-6.19,2-8.29a8.07,8.07,0,0,1,11.24,0c2.1,2.1,2.07,4.7,2.07,8.29s0,6.19-2.07,8.29" transform="translate(0)"/><path class="cls-4" d="M180.79,5.08a3.63,3.63,0,0,0-3-1.28h-3.07V17.34h3.07a3.63,3.63,0,0,0,3-1.29c.76-.93.88-2.42.88-5.58s-.12-4.47-.87-5.4M183.62,19a7.57,7.57,0,0,1-5.49,2h-7.5V.18h7.5a7.58,7.58,0,0,1,5.49,2c2.34,2.34,2.1,5.2,2.1,8.32s.23,6.16-2.1,8.5" transform="translate(0)"/></g></g></g></svg>