<svg xmlns="http://www.w3.org/2000/svg" xmlns:xlink="http://www.w3.org/1999/xlink" viewBox="0 0 11.53 20.47"><defs><style>.cls-1{fill:none;}.cls-2{clip-path:url(#clip-path);}.cls-3{fill:#e9004c;}</style><clipPath id="clip-path" transform="translate(0)"><rect class="cls-1" width="11.53" height="20.47"/></clipPath></defs><title>melist-style</title><g id="Шар_2" data-name="Шар 2"><g id="Шар_1-2" data-name="Шар 1"><g class="cls-2"><path class="cls-3" d="M2.52,1.26A1.26,1.26,0,1,0,1.26,2.52,1.26,1.26,0,0,0,2.52,1.26" transform="translate(0)"/><path class="cls-3" d="M7,5.75A1.26,1.26,0,1,0,5.77,7,1.26,1.26,0,0,0,7,5.75" transform="translate(0)"/><path class="cls-3" d="M2.52,5.75A1.26,1.26,0,1,0,1.26,7,1.26,1.26,0,0,0,2.52,5.75" transform="translate(0)"/><path class="cls-3" d="M11.53,10.24a1.26,1.26,0,1,0-1.26,1.26,1.26,1.26,0,0,0,1.26-1.26" transform="translate(0)"/><path class="cls-3" d="M7,10.24A1.26,1.26,0,1,0,5.77,11.5,1.26,1.26,0,0,0,7,10.24" transform="translate(0)"/><path class="cls-3" d="M2.52,10.24A1.26,1.26,0,1,0,1.26,11.5a1.26,1.26,0,0,0,1.26-1.26" transform="translate(0)"/><path class="cls-3" d="M2.52,14.71A1.26,1.26,0,1,0,1.26,16a1.26,1.26,0,0,0,1.26-1.26" transform="translate(0)"/><path class="cls-3" d="M7,14.72A1.26,1.26,0,1,0,5.77,16,1.26,1.26,0,0,0,7,14.72" transform="translate(0)"/><path class="cls-3" d="M2.52,19.21a1.26,1.26,0,1,0-1.26,1.26,1.26,1.26,0,0,0,1.26-1.26" transform="translate(0)"/></g></g></g></svg>