<svg xmlns="http://www.w3.org/2000/svg" xmlns:xlink="http://www.w3.org/1999/xlink" viewBox="0 0 61.27 61.27"><defs><style>.cls-1,.cls-7{fill:none;}.cls-2{clip-path:url(#clip-path);}.cls-3{fill:#737577;}.cls-4{fill:#ff989e;}.cls-5{fill:#e9004c;}.cls-6{fill:#fff;}.cls-7{stroke:#231f20;stroke-miterlimit:10;stroke-width:0.7px;}.cls-8{font-size:14.1px;fill:#231f20;font-family:DINPro-Medium, DINPro;}</style><clipPath id="clip-path" transform="translate(0)"><rect class="cls-1" width="61.27" height="61.27"/></clipPath></defs><title>me-minimized-risk</title><g id="Шар_2" data-name="Шар 2"><g id="Layer_1" data-name="Layer 1"><g class="cls-2"><path class="cls-3" d="M61.27,30.64A30.64,30.64,0,1,0,30.63,61.27,30.64,30.64,0,0,0,61.27,30.64" transform="translate(0)"/><path class="cls-4" d="M30.64,6.13A24.51,24.51,0,0,0,6.13,30.64h49A24.51,24.51,0,0,0,30.64,6.13" transform="translate(0)"/><path class="cls-5" d="M30.59,30.64H55.15A24.48,24.48,0,0,0,42.8,9.38Z" transform="translate(0)"/><path class="cls-6" d="M30.68,30.64H6.13A24.48,24.48,0,0,1,18.47,9.38Z" transform="translate(0)"/><line class="cls-7" x1="16.53" y1="26.31" x2="30.31" y2="29.95"/><path class="cls-3" d="M33,30.64A2.33,2.33,0,1,0,30.64,33,2.33,2.33,0,0,0,33,30.64" transform="translate(0)"/><path class="cls-6" d="M40.08,50.51l-8-13.92c-.09-.19-.18-.36-.27-.51l0,0,0,0c-.26-.39-1.24-1.62-2.25.11-1.18,2-1.77,3.05-1.77,3.05L21.19,50.51s-.92,2.17,1.25,2.25H38.83c2.17-.08,1.25-2.25,1.25-2.25" transform="translate(0)"/></g><text class="cls-8" transform="translate(27.95 50.25)">!</text></g></g></svg>