<svg xmlns="http://www.w3.org/2000/svg" xmlns:xlink="http://www.w3.org/1999/xlink" viewBox="0 0 84.15 114.95"><defs><style>.cls-1,.cls-5{fill:none;}.cls-2{fill:#89909b;}.cls-3{fill:#e9e9ea;}.cls-4{clip-path:url(#clip-path);}.cls-5{stroke:#e2e3e4;stroke-miterlimit:10;stroke-width:0.25px;}.cls-11,.cls-6{fill:#231f20;}.cls-7{fill:#d5d7d8;}.cls-8{fill:#fed771;}.cls-9{fill:#e9004c;}.cls-10{fill:#afb1b4;}.cls-11{font-size:8.04px;font-family:DINPro-Medium, DINPro;}.cls-12{fill:#fff;}</style><clipPath id="clip-path" transform="translate(0 0)"><rect class="cls-1" width="84.15" height="114.95"/></clipPath></defs><title>me-Options</title><g id="Шар_2" data-name="Шар 2"><g id="Layer_1" data-name="Layer 1"><polygon class="cls-2" points="73.7 5.43 73.7 104.35 5.57 104.35 5.57 109.52 73.7 109.52 73.7 109.73 78.84 109.73 78.84 5.43 73.7 5.43"/><polygon class="cls-3" points="78.8 10.57 78.8 109.6 10.13 109.6 10.13 114.95 84.14 114.95 84.14 114.37 84.15 114.37 84.15 10.57 78.8 10.57"/><polygon class="cls-3" points="0.39 0.39 0.39 47.72 0.39 48.4 0.39 104.02 73.66 104.02 73.66 0.39 0.39 0.39"/><g class="cls-4"><polygon class="cls-5" points="0.39 0.39 0.39 47.72 0.39 48.4 0.39 104.02 73.66 104.02 73.66 0.39 0.39 0.39"/></g><polygon class="cls-6" points="73.66 6.11 74.53 6.11 78.42 6.11 78.42 108.98 5.91 108.98 5.91 104.35 5.14 104.35 5.14 109.75 79.19 109.75 79.19 5.34 74.53 5.34 73.66 5.34 73.66 6.11"/><g class="cls-4"><path class="cls-7" d="M65.2,21h-1.4v64.8a2.55,2.55,0,0,1-2.55,2.55H13.58v1.33A3.27,3.27,0,0,0,16.84,93H65.2a3.27,3.27,0,0,0,3.26-3.26V24.29A3.27,3.27,0,0,0,65.2,21" transform="translate(0 0)"/><path class="cls-8" d="M62.64,85.82a1.39,1.39,0,0,1-1.39,1.4H12.89a1.39,1.39,0,0,1-1.39-1.4v-67s.62-1.4,1.39-1.4H61.24a1.4,1.4,0,0,1,1.39,1.4Z" transform="translate(0 0)"/><path class="cls-9" d="M62.64,85.82H61.48a.24.24,0,0,1-.24.24H12.89a.24.24,0,0,1-.24-.24v-67H11.5l1.05.47h0a3.34,3.34,0,0,1,.32-.54,1.14,1.14,0,0,1,.19-.21h0l-.19-.32v.36a.4.4,0,0,0,.19,0l-.19-.32v.36H61.24a.24.24,0,0,1,.24.24v67h2.31v-67a2.55,2.55,0,0,0-2.55-2.55H12.89a2,2,0,0,0-1.26.47,4,4,0,0,0-.88,1,5.08,5.08,0,0,0-.31.57l-.1.22V85.82a2.55,2.55,0,0,0,2.55,2.55H61.24a2.55,2.55,0,0,0,2.55-2.55Z" transform="translate(0 0)"/><rect class="cls-10" x="18.35" y="29.71" width="8.63" height="8.63"/><polyline class="cls-6" points="41.47 38.38 55.7 38.38 55.7 37.61 41.47 37.61"/><polyline class="cls-6" points="18.35 44.63 55.7 44.63 55.7 43.86 18.35 43.86"/><rect class="cls-10" x="18.35" y="48.01" width="8.63" height="8.64"/><polyline class="cls-6" points="41.47 56.57 55.7 56.57 55.7 55.8 41.47 55.8"/><rect class="cls-10" x="18.35" y="66.28" width="8.63" height="8.63"/><polyline class="cls-6" points="32.65 74.86 55.7 74.86 55.7 74.08 32.65 74.08"/><polyline class="cls-6" points="41.53 62.86 55.76 62.86 55.76 62.09 41.53 62.09"/></g><text class="cls-11" transform="translate(31.88 38.38)">A</text><text class="cls-11" transform="translate(31.88 56.52)">B</text><text class="cls-11" transform="translate(32.16 71.98)">C</text><g class="cls-4"><polygon class="cls-12" points="28.45 28.1 22.98 35.72 20.27 33.47 19.78 34.06 23.12 36.84 29.07 28.55 28.45 28.1"/><polygon class="cls-6" points="0.39 0.39 0 0.39 0 47.72 0 48.4 0 104.41 74.05 104.41 74.05 0 0 0 0 0.39 0.39 0.39 0.39 0.77 73.28 0.77 73.28 103.64 0.77 103.64 0.77 48.4 0.77 47.72 0.77 0.39 0.39 0.39 0.39 0.77 0.39 0.39"/></g></g></g></svg>