<svg xmlns="http://www.w3.org/2000/svg" viewBox="0 0 61.9 62.73"><defs><style>.cls-1{fill:#d5d7d8;}.cls-2{fill:#737577;}.cls-3{fill:#bcbec0;}.cls-4{fill:#e9004c;}.cls-5{fill:#fed771;}.cls-6{fill:#fff;}.cls-7{fill:none;stroke:#fff;stroke-miterlimit:10;stroke-width:1.68px;}.cls-8{fill:#e9e9ea;}.cls-9{fill:#231f20;}</style></defs><title>me-PMO-setups </title><g id="Шар_2" data-name="Шар 2"><g id="Layer_1" data-name="Layer 1"><path class="cls-1" d="M61.9,31.78a31,31,0,1,0-31,31,31,31,0,0,0,31-31"/><path class="cls-2" d="M49.52,31.78A18.57,18.57,0,1,0,31,50.35,18.57,18.57,0,0,0,49.52,31.78"/><path class="cls-3" d="M29.87,48.19,25.6,27.73l-9.47-3L14.86,30l-1.94-.94,0-1.17-5-4.8-6.64,0,0,0A30.91,30.91,0,0,0,18.41,60l7.16-11.24Z"/><path class="cls-4" d="M37.2,46.84l4.46-3,.8,2-.78.88.44,6.91L47,58.12l0,0A30.95,30.95,0,0,0,50.32,7.61L32.19,38.27Z"/><path class="cls-5" d="M42.42,53.39,42,45.53,44.54,43l1.06-3.55L25.19,35l-6.54,7.45,4.26,3.28-1.65,1.39-1.08-.46-6.4,2.6-2.72,6.05v0a30.86,30.86,0,0,0,36,2.77Z"/><path class="cls-2" d="M43.51,25.46l0,.12-.08-.12ZM33.5,7.32,31,13.19V31.64h13.2V27.33l1,3.06,1.22-4.56,1.31.35-.32.13L49,27l6.64.34,5-4.33-.06-.2-.19-.55h0A31,31,0,0,0,37.57,1.54h0A31.23,31.23,0,0,0,32.78.88h0q-.82,0-1.65-.05Z"/><path class="cls-6" d="M49.71,31.78A18.76,18.76,0,1,0,31,50.53,18.76,18.76,0,0,0,49.71,31.78"/><path class="cls-7" d="M.23,22.87l7.6-.51,6,5.26M11.06,56.7l2.3-7.26,7-3.6M61.2,22.14l-5.81,4.92-7-.53M41.72,46.16l.37,7.6,5.16,4.76M31,.3l2.69,7.12-2.83,6.42"/><path class="cls-8" d="M48.21,31.78A17.26,17.26,0,1,0,31,49,17.26,17.26,0,0,0,48.21,31.78"/><path class="cls-9" d="M39.47,31.62c0,1.29-.06,1.65-.38,2a1.35,1.35,0,0,1-1.91,0c-.32-.34-.38-.7-.38-2s.06-1.65.38-2a1.35,1.35,0,0,1,1.91,0c.32.34.38.7.38,2m1,0c0-1.23,0-1.94-.61-2.57a2.43,2.43,0,0,0-3.37,0c-.63.63-.62,1.34-.62,2.57s0,1.94.62,2.57a2.43,2.43,0,0,0,3.38,0c.63-.63.61-1.34.61-2.57m-6.6,3.2V28.42h-1l-1.84,4-1.87-4h-1v6.41h1V30.54l1.51,3.12h.72l1.48-3.12v4.28Zm-8.36-4.46a1,1,0,0,1-1.13,1.06h-1.4V29.29h1.4a1,1,0,0,1,1.13,1.07m1,0a1.9,1.9,0,0,0-2.05-1.94H22v6.41h1V32.31H24.4a1.9,1.9,0,0,0,2.05-1.94"/></g></g></svg>