<svg xmlns="http://www.w3.org/2000/svg" xmlns:xlink="http://www.w3.org/1999/xlink" viewBox="0 0 108 150"><defs><style>.cls-1{fill:none;}.cls-2{fill:#e9e8e9;}.cls-3{fill:#757678;}.cls-4{fill:#221f1f;}.cls-5{clip-path:url(#clip-path);}.cls-6{fill:#c6c7c9;}.cls-7{fill:#fff;}.cls-8{fill:#333e48;}.cls-9{fill:#231f20;}.cls-10{fill:#e9004c;}</style><clipPath id="clip-path"><rect class="cls-1" width="108" height="150"/></clipPath></defs><title>me-Projectmanagement</title><g id="Шар_2" data-name="Шар 2"><g id="Layer_1" data-name="Layer 1"><rect class="cls-2" x="13" y="14" width="95" height="136"/><rect class="cls-3" x="8" y="9" width="93" height="134"/><path class="cls-4" d="M100,142H9V10h91ZM102,8H7V144h95Z"/><rect class="cls-2" x="1" y="1" width="93" height="134"/><path class="cls-4" d="M2,2H93V134H2ZM0,136H95V0H0Z"/><g class="cls-5"><path class="cls-6" d="M82,121H20a5,5,0,0,1-5-5V30a5,5,0,0,1,5-5H82a5,5,0,0,1,5,5v86a5,5,0,0,1-5,5"/><rect class="cls-7" x="12.5" y="21.5" width="68" height="93" rx="3.5" ry="3.5"/><path class="cls-3" d="M77,23a2,2,0,0,1,2,2v86a2,2,0,0,1-2,2H16a2,2,0,0,1-2-2V25a2,2,0,0,1,2-2H77m0-3H16a5,5,0,0,0-5,5v86a5,5,0,0,0,5,5H77a5,5,0,0,0,5-5V25a5,5,0,0,0-5-5"/><polygon class="cls-8" points="60 52 32 52 30 50 62 50 60 52"/><polygon class="cls-8" points="22 54 22 59 25 63 28 59 49 59 52 63 55 59 55 54 22 54"/><polygon class="cls-8" points="38 77 38 82 41 86 44 82 65 82 68 86 71 82 71 77 38 77"/><rect class="cls-9" x="38" y="71" width="16.93" height="2"/><rect class="cls-9" x="46" y="89" width="16.93" height="2"/><polyline class="cls-9" points="22 67 39 67 39 66 22 66"/><rect class="cls-9" x="46" y="96" width="17" height="1"/><polyline class="cls-9" points="46.27 90.77 62.65 90.77 62.65 89.4 46.27 89.4"/><polygon class="cls-10" points="22 41 22 46 25.01 50.01 28 46 64 46 67 50 70 46 70 41 22 41"/></g></g></g></svg>