<svg xmlns="http://www.w3.org/2000/svg" xmlns:xlink="http://www.w3.org/1999/xlink" viewBox="0 0 149.3 74.47"><defs><style>.cls-1,.cls-11,.cls-6{fill:none;}.cls-2{clip-path:url(#clip-path);}.cls-3{fill:#bcbec0;}.cls-4{fill:#e9004c;}.cls-5{fill:#97999c;}.cls-11,.cls-6{stroke:#231f20;stroke-miterlimit:10;}.cls-6{stroke-width:0.81px;}.cls-7{fill:#e9e9ea;}.cls-8{fill:#ffe9b1;}.cls-9{fill:#231f20;}.cls-10{fill:#737577;}.cls-11{stroke-width:0.78px;}</style><clipPath id="clip-path" transform="translate(0 0)"><rect class="cls-1" width="149.3" height="74.47"/></clipPath></defs><title>me-professional-services_1</title><g id="Шар_2" data-name="Шар 2"><g id="Layer_1" data-name="Layer 1"><g class="cls-2"><path class="cls-3" d="M32.17,61.57a4.77,4.77,0,1,1,2.45-6.29,4.77,4.77,0,0,1-2.45,6.29m9.37-9.4h0c-.57-1.25-1.45-1.25-1.45-1.25l-1.46.4a3.74,3.74,0,0,1-1.92-.46,3.31,3.31,0,0,1-1.14-1.34c.17-.92.53-2.41.53-2.41s0-.87-1.32-1.39h0l-.06,0-.06,0h0a1.78,1.78,0,0,0-1.91.14S31.54,48,31.19,48.43a2.33,2.33,0,0,1-2.28,0c-.36-.43-1.68-2.55-1.68-2.55a1.78,1.78,0,0,0-1.91-.05h0l-.05,0-.06,0h0C24,46.49,24,47.36,24,47.36s.68,2.4.75,3c0,.24-.25.64-.57,1s-.76.64-1,.62c-.56,0-3-.62-3-.62s-.87,0-1.39,1.31h0l0,.05,0,.06h0a1.79,1.79,0,0,0,.14,1.91s2.18,1.22,2.62,1.56a2.32,2.32,0,0,1,.05,2.28c-.43.36-2.55,1.68-2.55,1.68a1.79,1.79,0,0,0-.05,1.91h0l0,0,0,.06h0c.57,1.25,1.45,1.25,1.45,1.25s2.4-.68,3-.75c.24,0,.64.25,1,.57s.64.76.62,1c0,.56-.62,3-.62,3s0,.87,1.32,1.39h0l.05,0,.06,0h0a1.79,1.79,0,0,0,1.91-.14S29,66.41,29.3,66a2.32,2.32,0,0,1,2.28-.05c.36.43,1.68,2.55,1.68,2.55a1.78,1.78,0,0,0,1.91.05h0l.05,0,.06,0h0c1.25-.57,1.25-1.45,1.25-1.45s-.68-2.4-.75-3c0-.24.24-.64.57-1s.77-.64,1-.62c.56,0,3,.62,3,.62s.87,0,1.39-1.31h0l0-.06,0-.05h0a1.78,1.78,0,0,0-.14-1.91S39.46,58.49,39,58.15A1.88,1.88,0,0,1,38.69,57,1.91,1.91,0,0,1,39,55.87c.43-.36,2.55-1.68,2.55-1.68a1.78,1.78,0,0,0,.05-1.91h0l0-.05,0-.05" transform="translate(0 0)"/><path class="cls-3" d="M18.76,37.16A7.25,7.25,0,1,1,26,29.91a7.24,7.24,0,0,1-7.24,7.25m18.76-7.34h0c0-2.09-1.24-2.62-1.24-2.62S35.15,27,34,26.86A5.74,5.74,0,0,1,31.61,25a5,5,0,0,1-.76-2.57c.8-1.16,2.21-3,2.21-3s.48-1.24-1-2.74h0L32,16.65,32,16.58h0c-1.5-1.46-2.74-1-2.74-1s-3,2.28-3.78,2.69a2.89,2.89,0,0,1-1.77-.24c-.69-.34-1.32-.73-1.42-1.08-.24-.82-.77-4.57-.77-4.57s-.53-1.22-2.62-1.25h-.18C16.58,11.19,16,12.4,16,12.4s-.53,3.75-.77,4.57c-.1.35-.74.74-1.43,1.08a2.89,2.89,0,0,1-1.77.24c-.75-.41-3.78-2.69-3.78-2.69s-1.24-.48-2.74,1h0l-.06.06-.07.06h0c-1.46,1.5-1,2.74-1,2.74s2.28,3,2.69,3.78A2.89,2.89,0,0,1,6.91,25c-.34.69-.73,1.32-1.08,1.42-.82.24-4.57.77-4.57.77S0,27.73,0,29.82H0s0,.06,0,.09S0,30,0,30H0c0,2.09,1.24,2.62,1.24,2.62s3.75.53,4.57.77c.35.1.74.74,1.08,1.42a2.88,2.88,0,0,1,.24,1.77c-.41.75-2.69,3.78-2.69,3.78s-.48,1.24,1,2.73h0l.07.06.06.07h0c1.5,1.46,2.74,1,2.74,1s3-2.28,3.78-2.69a2.9,2.9,0,0,1,1.78.25c.69.34,1.32.73,1.42,1.08.24.82.77,4.57.77,4.57s.53,1.22,2.62,1.24h.18c2.09,0,2.62-1.24,2.62-1.24s.53-3.75.77-4.57c.1-.35.73-.74,1.42-1.08a2.9,2.9,0,0,1,1.78-.25c.75.41,3.78,2.69,3.78,2.69s1.24.48,2.74-1h0l.06-.07.07-.06h0c1.46-1.5,1-2.73,1-2.73s-2.28-3-2.69-3.78a2.86,2.86,0,0,1,.24-1.77c.34-.69.73-1.33,1.08-1.43.82-.24,4.57-.77,4.57-.77s1.22-.53,1.24-2.62h0s0-.06,0-.09,0-.06,0-.09" transform="translate(0 0)"/><path class="cls-4" d="M80.81,15.77s-6.14-2.32-6.56-4S73,2.68,73,2.68,72.07.23,67.93,0V0h-.18l-.18,0V0c-4.15-.09-5.29,2.29-5.29,2.29s-1.31,7.41-1.84,9-6.82,3.49-6.82,3.49l13.63-.45Z" transform="translate(0 0)"/><path class="cls-4" d="M66.43,23.1a14.38,14.38,0,1,0,.52,0h-.52m0,38.65h-.86a24.25,24.25,0,1,1,.86,0" transform="translate(0 0)"/><path class="cls-4" d="M79.28,59.65S73,61.53,72.46,63.14s-1.85,9-1.85,9-1.14,2.38-5.28,2.29v0H65v0c-4.14-.2-5.12-2.65-5.12-2.65s-.79-7.49-1.21-9.13-6.56-4-6.56-4l13.57,1.4Z" transform="translate(0 0)"/><path class="cls-4" d="M45,22.87S42.66,29,41,29.43s-9.13,1.21-9.13,1.21-2.45,1-2.65,5.12h0c0,.06,0,.12,0,.18s0,.12,0,.18h0c-.09,4.15,2.29,5.29,2.29,5.29s7.41,1.31,9,1.85S44,50.07,44,50.07l-.45-13.64Z" transform="translate(0 0)"/><path class="cls-4" d="M88.86,24.4s1.88,6.28,3.49,6.82,9,1.85,9,1.85,2.38,1.14,2.29,5.29h0c0,.06,0,.12,0,.17s0,.12,0,.18h0c-.2,4.15-2.65,5.12-2.65,5.12s-7.49.79-9.12,1.21-4,6.56-4,6.56L89.31,38Z" transform="translate(0 0)"/><path class="cls-4" d="M61.43,11.9s-6,2.7-7.44,1.84-7.31-5.6-7.31-5.6-2.42-1-5.5,1.75h0L41,10l-.13.12h0c-3,2.87-2.12,5.36-2.12,5.36s4.32,6.17,5.08,7.68-2.35,7.29-2.35,7.29l9.32-10Z" transform="translate(0 0)"/><path class="cls-4" d="M91.38,44S88.26,49.78,89,51.3,94.09,59,94.09,59,95,61.47,92,64.34h0l-.14.11a1.31,1.31,0,0,1-.13.13s0,0,0,0c-3.08,2.8-5.5,1.75-5.5,1.75s-5.85-4.74-7.31-5.6-7.44,1.84-7.44,1.84L82,54Z" transform="translate(0 0)"/><path class="cls-4" d="M41.11,42.26s2.7,6,1.84,7.43S37.35,57,37.35,57s-1,2.42,1.75,5.5h0l.13.12.12.14h0c2.87,3,5.36,2.13,5.36,2.13s6.17-4.32,7.68-5.07,7.29,2.35,7.29,2.35l-10-9.33Z" transform="translate(0 0)"/><path class="cls-4" d="M73.22,12.31s5.78,3.11,7.29,2.35S88.2,9.59,88.2,9.59s2.49-.87,5.36,2.13h0a1.3,1.3,0,0,1,.12.13l.13.13h0c2.79,3.07,1.75,5.49,1.75,5.49s-4.74,5.85-5.6,7.31,1.84,7.44,1.84,7.44L83.18,21.63Z" transform="translate(0 0)"/><path class="cls-4" d="M35.31,39.6V42s3.2.71,4.55,2.25,3.42,3.89,2.49,6.64,4.35,1,4.35,1L45,40.72" transform="translate(0 0)"/><path class="cls-5" d="M148.85,70a42,42,0,0,0-1.26-6.39,14.47,14.47,0,0,0-3-6.13c-3.51-3.61-9.72-6.3-12.27-7.78-1.64,1.41-3,3.56-7.36,3.7h-.74c-4.36-.14-5.72-2.29-7.36-3.7-1.36.79-3.76,1.93-6.25,3.36a27.57,27.57,0,0,0-6,4.37C101.31,60.86,100.71,70,100.71,70h48.15Z" transform="translate(0 0)"/><path class="cls-6" d="M148.85,70a42,42,0,0,0-1.26-6.39,14.47,14.47,0,0,0-3-6.13c-3.51-3.61-9.72-6.3-12.27-7.78-1.64,1.41-3,3.56-7.36,3.7h-.74c-4.36-.14-5.72-2.29-7.36-3.7-1.36.79-3.76,1.93-6.25,3.36a27.57,27.57,0,0,0-6,4.37C101.31,60.86,100.71,70,100.71,70h48.15Z" transform="translate(0 0)"/><rect class="cls-7" x="107.3" y="52.37" width="3.41" height="5.17"/><path class="cls-7" d="M126.79,74.22c-.8-8.53-2.57-13.44-5.38-16.34a36.09,36.09,0,0,0-11.47-7.25l-1.31,17.52s1.71,2.69,4.08,6.07Z" transform="translate(0 0)"/><path class="cls-8" d="M133.86,28a9.52,9.52,0,0,0-6.31-4.84,12.9,12.9,0,0,0-3.2-.5,13.08,13.08,0,0,0-3,.46A25.17,25.17,0,0,0,115,24.9c0,1.07.15,2.07.15,3.45,0,.89,0,1.67-.05,2.29a9.89,9.89,0,0,0-.08,1.2v.06a1.43,1.43,0,0,0,0,.3c0,2.15.08,4.23,1.56,10.43a8,8,0,0,0,15.58,0c1.54-6.47,1.56-8.46,1.56-10.72Z" transform="translate(0 0)"/><path class="cls-6" d="M133.86,28a9.52,9.52,0,0,0-6.31-4.84,12.9,12.9,0,0,0-3.2-.5,13.08,13.08,0,0,0-3,.46A25.17,25.17,0,0,0,115,24.9c0,1.07.15,2.07.15,3.45,0,.89,0,1.67-.05,2.29a9.89,9.89,0,0,0-.08,1.2v.06a1.43,1.43,0,0,0,0,.3c0,2.15.08,4.23,1.56,10.43a8,8,0,0,0,15.58,0c1.54-6.47,1.56-8.46,1.56-10.72Z" transform="translate(0 0)"/><path class="cls-9" d="M91.94,53.14H89s-.62-1.41-1.08-14.4,9.37-12.67,9.37-12.67a10,10,0,0,1,10.05,8.57c.23,8.57-1.89,17.16-3.13,18.5" transform="translate(0 0)"/><path class="cls-8" d="M89.28,40.3s.52,7.49,5.35,10.41c2.2,1.41,3.25,1.05,3.25,1.05L97.37,40.3" transform="translate(0 0)"/><path class="cls-8" d="M105.91,40.3s-.52,7.49-5.28,10.41c-2.18,1.41-3.21,1.05-3.21,1.05l.52-11.47" transform="translate(0 0)"/><path class="cls-8" d="M92.52,44.86,89.73,40.3s6.7-.47,9.49-3.16,4.91-1.32,3.68,1.62" transform="translate(0 0)"/><rect class="cls-8" x="99.72" y="39.07" width="6.15" height="1.42"/><rect class="cls-8" x="95.66" y="41.11" width="3.77" height="5.75"/><path class="cls-9" d="M93.88,33.34l-5,6.52s5.85-.2,8.86-1.38,4.63-1.74,5.18-1a1.66,1.66,0,0,1-.42,2.12c-.44.28,3.46-.2,3.46-.2l-.47-5.16" transform="translate(0 0)"/><path class="cls-8" d="M105.2,40.89l.64.08a16.42,16.42,0,0,0,.15-1.78h-.78" transform="translate(0 0)"/><path class="cls-9" d="M97.55,31.9s-2.7,6.83-3.9,7.07c.84.09,7,1.18,9.55-.06s.92-3.94.92-3.94" transform="translate(0 0)"/><path class="cls-9" d="M107.34,34.77s.62,15.7.26,18.13l-2.61.24" transform="translate(0 0)"/><polyline class="cls-8" points="102.08 36.03 102.74 39.93 103.31 40.02"/><path class="cls-9" d="M99.42,26.29s7.08,1.13,7.93,8.35" transform="translate(0 0)"/><path class="cls-9" d="M97.31,26.07s-10,0-9.38,12" transform="translate(0 0)"/><rect class="cls-9" x="103.74" y="50.51" width="1.72" height="2.64"/><path class="cls-7" d="M97.75,53.14s8.95-.14,9.83-.24.12.71.12.71l-9.95.74" transform="translate(0 0)"/><path class="cls-9" d="M88,34.77s-.62,15.7-.27,18.13l2.61.24" transform="translate(0 0)"/><path class="cls-7" d="M97.7,54.35V53.14S92.93,53.06,90,53l.57.83Z" transform="translate(0 0)"/><rect class="cls-8" x="102.2" y="39.5" width="0.6" height="0.58"/><path class="cls-8" d="M102.88,39.27l3.12.1c-.31.6-.62,1.09-.62,1.09l-2.57-.2" transform="translate(0 0)"/><polygon class="cls-9" points="104.22 39.31 106.2 39.4 106.27 38.95 103.94 38.67 104.22 39.31"/><rect class="cls-7" x="106.8" y="52.86" width="3.35" height="5.07"/><path class="cls-10" d="M116.6,61.12c-2.6-2.68-6.75-4.82-9.61-6.3-1.5,1.72-4.4,3.75-9.79,3.8-5,0-9.09-3.81-9.09-3.81-2.86,1.48-7,3.63-9.62,6.31-3.34,3.44-3.95,12.57-3.95,12.57h46s-.61-9.13-3.95-12.57" transform="translate(0 0)"/><path class="cls-11" d="M116.6,61.12c-2.6-2.68-6.75-4.82-9.61-6.3-1.5,1.72-4.4,3.75-9.79,3.8-5,0-9.09-3.81-9.09-3.81-2.86,1.48-7,3.63-9.62,6.31-3.34,3.44-3.95,12.57-3.95,12.57h46S119.94,64.56,116.6,61.12Z" transform="translate(0 0)"/><path class="cls-4" d="M87.39,53.72l3.47.54L90,53a12,12,0,0,1-2.42-.11" transform="translate(0 0)"/><rect class="cls-4" x="57.12" y="14.16" width="19.84" height="5.53"/></g></g></g></svg>