<svg xmlns="http://www.w3.org/2000/svg" xmlns:xlink="http://www.w3.org/1999/xlink" viewBox="0 0 108 150"><defs><style>.cls-1{fill:none;}.cls-2{fill:#e9e9ea;}.cls-3{fill:#747577;}.cls-4{fill:#231f20;}.cls-5{clip-path:url(#clip-path);}.cls-6{fill:#c7c8ca;}.cls-7{fill:#fff;}.cls-8{fill:#e9004c;}.cls-9{fill:#f5556b;}</style><clipPath id="clip-path"><rect class="cls-1" width="108" height="150"/></clipPath></defs><title>me-strategy</title><g id="Шар_2" data-name="Шар 2"><g id="Layer_1" data-name="Layer 1"><rect class="cls-2" x="13" y="14" width="95" height="136"/><rect class="cls-3" x="8" y="9" width="93" height="134"/><path class="cls-4" d="M100,142H9V10h91ZM102,8H7V144h95Z"/><rect class="cls-2" x="1" y="1" width="93" height="134"/><path class="cls-4" d="M2,2H93V134H2ZM0,136H95V0H0Z"/><g class="cls-5"><path class="cls-6" d="M82,121H20a5,5,0,0,1-5-5V30a5,5,0,0,1,5-5H82a5,5,0,0,1,5,5v86a5,5,0,0,1-5,5"/><rect class="cls-7" x="12.5" y="21.5" width="68" height="93" rx="3.5" ry="3.5"/><path class="cls-3" d="M77,23a2,2,0,0,1,2,2v86a2,2,0,0,1-2,2H16a2,2,0,0,1-2-2V25a2,2,0,0,1,2-2H77m0-3H16a5,5,0,0,0-5,5v86a5,5,0,0,0,5,5H77a5,5,0,0,0,5-5V25a5,5,0,0,0-5-5"/><path class="cls-8" d="M54.38,43.34h0A10.85,10.85,0,0,0,53,42.7c-2.74-1.25-8.84-4-11.12-4.46h0c-1.3-.49-1.12.44-.44,2.1a9.8,9.8,0,0,1,.78,4.35h0c-1.31.54-2.8,1.16-3.41,1.43A3.36,3.36,0,0,0,37,47.83a7.22,7.22,0,0,1-2.1,3c-1.45,1.12-3.94,3.19-4.6,3.6s-2.63.94-2.5,3.17,0,3.05,1.71,4.74,5.37,1.42,8.28-.93l7.23.16.87,0,.18.33c-3.24,3.25-9.63,10.7-9.77,19a5.23,5.23,0,0,0,0,1.5v0h0a3.7,3.7,0,0,0,.13.49H59.7a64.28,64.28,0,0,1,2.24-16c1.81-6,.34-19.18-7.56-23.55"/><polygon class="cls-8" points="60 93 60 87 36 87 36 93.03 32 93 32 100 64 100 64 93 60 93"/><path class="cls-9" d="M53.9,43.09c12.43,9.81,1.36,21.23-1.84,27.47a25.94,25.94,0,0,0-2.84,12.39H59.7a64.25,64.25,0,0,1,2.24-16c1.81-6,.34-19.17-7.56-23.55h0l-.47-.24"/></g></g></g></svg>