<svg xmlns="http://www.w3.org/2000/svg" xmlns:xlink="http://www.w3.org/1999/xlink" viewBox="0 0 126.4 72.89"><defs><style>.cls-1,.cls-10,.cls-14,.cls-16,.cls-4,.cls-7{fill:none;}.cls-2{clip-path:url(#clip-path);}.cls-3{fill:#97999c;}.cls-10,.cls-14,.cls-4,.cls-7{stroke:#231f20;}.cls-10,.cls-14,.cls-16,.cls-4,.cls-7{stroke-miterlimit:10;}.cls-4{stroke-width:0.86px;}.cls-5{fill:#333e48;}.cls-6{fill:#e9004c;}.cls-7{stroke-width:0.81px;}.cls-8{fill:#fff;}.cls-9{fill:#e9e9ea;}.cls-10{stroke-width:0.85px;}.cls-11{fill:#231f20;}.cls-12{fill:#ffe9b1;}.cls-13{fill:#737577;}.cls-14{stroke-width:0.79px;}.cls-15{fill:#c7c8ca;}.cls-16{stroke:#fff;stroke-width:2.58px;}</style><clipPath id="clip-path"><rect class="cls-1" width="126.4" height="72.89"/></clipPath></defs><title>me-staff-outsourcing</title><g id="Шар_2" data-name="Шар 2"><g id="Layer_1" data-name="Layer 1"><g class="cls-2"><path class="cls-3" d="M87.44,12.68c.19,1.08.26,2.42.67,4.15a6.59,6.59,0,0,0,6.19,4.85,6.9,6.9,0,0,0,6.38-4.93s1.56-5.85,1.28-8.54S101.79,2,96.19.51C93.66,0,88.66,2.28,87.26,1.89c-.77-.21-.36,2-.14,4.44.2,2.18.17,4.9.32,6.35"/><path class="cls-4" d="M87.44,12.68c.19,1.08.26,2.42.67,4.15a6.59,6.59,0,0,0,6.19,4.85,6.9,6.9,0,0,0,6.38-4.93s1.56-5.85,1.28-8.54S101.79,2,96.19.51C93.66,0,88.66,2.28,87.26,1.89c-.77-.21-.36,2-.14,4.44C87.32,8.51,87.29,11.23,87.44,12.68Z"/><path class="cls-5" d="M114.11,39a34.52,34.52,0,0,0-1-5.24,11.84,11.84,0,0,0-2.42-5c-2.87-3-8-5.16-10-6.37-1.34,1.15-2.46,2.92-6,3H94c-3.57-.11-4.68-1.88-6-3-1.11.65-3.08,1.58-5.11,2.75a22.6,22.6,0,0,0-4.92,3.58C75.18,31.51,74.69,39,74.69,39h39.43Z"/><path class="cls-4" d="M114.11,39a34.52,34.52,0,0,0-1-5.24,11.84,11.84,0,0,0-2.42-5c-2.87-3-8-5.16-10-6.37-1.34,1.15-2.46,2.92-6,3H94c-3.57-.11-4.68-1.88-6-3-1.11.65-3.08,1.58-5.11,2.75a22.6,22.6,0,0,0-4.92,3.58C75.18,31.51,74.69,39,74.69,39h39.43Z"/><path class="cls-6" d="M66.39,28.06c-2.17-2.24-5.64-4-8-5.26-1.25,1.43-3.68,3.13-8.18,3.18-4.16,0-7.59-3.18-7.59-3.18-2.39,1.24-5.87,3-8,5.27-2.79,2.88-3.3,10.5-3.3,10.5H69.69s-.51-7.62-3.3-10.5"/><path class="cls-7" d="M66.39,28.06c-2.17-2.24-5.64-4-8-5.26-1.25,1.43-3.68,3.13-8.18,3.18-4.16,0-7.59-3.18-7.59-3.18-2.39,1.24-5.87,3-8,5.27-2.79,2.88-3.3,10.5-3.3,10.5H69.69S69.18,30.94,66.39,28.06Z"/><rect class="cls-8" x="80.09" y="24.55" width="2.79" height="4.23"/><path class="cls-8" d="M95.3,42.44c-.66-7-2.1-11-4.41-13.38a29.51,29.51,0,0,0-9.39-5.94L80.43,37.47s1.4,2.21,3.35,5Z"/><path class="cls-8" d="M48.87,42.44c.66-7,2.1-11,4.41-13.38a29.53,29.53,0,0,1,9.39-5.94l1.07,14.34s-1.4,2.21-3.34,5Z"/><rect class="cls-8" x="62.07" y="24.68" width="6.06" height="6.07"/><path class="cls-9" d="M50.64,21.68A6.89,6.89,0,0,0,57,16.75c1.28-5.35,1.28-7,1.28-8.83S57.53.7,50.64.43C43.75.7,43,6,43,7.92s0,3.48,1.28,8.83a6.9,6.9,0,0,0,6.38,4.93"/><path class="cls-10" d="M50.64,21.68A6.89,6.89,0,0,0,57,16.75c1.28-5.35,1.28-7,1.28-8.83S57.53.7,50.64.43C43.75.7,43,6,43,7.92s0,3.48,1.28,8.83A6.9,6.9,0,0,0,50.64,21.68Z"/><path class="cls-11" d="M67.09,23.75H64.62s-.53-1.14-.91-11.64S71.64,1.89,71.64,1.89s7.06-.28,8.51,6.92c.19,6.92-1.6,13.86-2.65,14.94"/><path class="cls-11" d="M64.84,13.38s.44,6.05,4.53,8.41c1.87,1.14,2.76.85,2.76.85l-.44-9.27"/><path class="cls-11" d="M78.93,13.38s-.44,6.05-4.48,8.41c-1.84,1.14-2.72.85-2.72.85l.44-9.27"/><path class="cls-11" d="M67.58,17.07l-2.36-3.69s5.67-.38,8-2.55,4.16-1.07,3.12,1.31"/><rect class="cls-11" x="73.68" y="12.39" width="5.21" height="1.15"/><rect class="cls-11" x="70.24" y="14.03" width="3.19" height="4.65"/><path class="cls-11" d="M68.76,8.18l-3.55,5.2a29.38,29.38,0,0,0,6.92-1.55c2.3-1.07,3.55-1.58,4-1.06a1.21,1.21,0,0,1-.21,1.62c-.33.24,2.72-.35,2.72-.35L78,8.18"/><polygon class="cls-11" points="76.76 11.87 75.8 12.48 79.08 12.48 79.13 11.87 76.76 11.87"/><path class="cls-11" d="M78.33,13.85l.54.06A12.71,12.71,0,0,0,79,12.48h-.66"/><path class="cls-11" d="M70.95,6.64S70,12.55,69.1,13c.71-.09,6-.49,7.85-2s0-3.27,0-3.27"/><path class="cls-11" d="M80.17,10.33s-.5,11.65-.93,13.43h-2"/><path class="cls-11" d="M67.09,23.75H64.62s-.53-1.14-.91-11.64S71.64,1.89,71.64,1.89s7.06-.28,8.51,6.92c.19,6.92-1.6,13.86-2.65,14.94"/><path class="cls-12" d="M64.84,13.38s.44,6.05,4.53,8.41c1.87,1.14,2.76.85,2.76.85l-.44-9.27"/><path class="cls-12" d="M78.93,13.38s-.44,6.05-4.48,8.41c-1.84,1.14-2.72.85-2.72.85l.44-9.27"/><path class="cls-12" d="M67.58,17.07l-2.36-3.69s5.67-.38,8-2.55,4.16-1.07,3.12,1.31"/><rect class="cls-12" x="73.68" y="12.39" width="5.21" height="1.15"/><rect class="cls-12" x="70.24" y="14.03" width="3.19" height="4.65"/><path class="cls-11" d="M68.76,8.18l-3.55,5.2a29.38,29.38,0,0,0,6.92-1.55c2.3-1.07,3.55-1.58,4-1.06a1.21,1.21,0,0,1-.21,1.62c-.33.24,2.72-.35,2.72-.35L78,8.18"/><polygon class="cls-11" points="76.76 11.87 75.8 12.48 79.08 12.48 79.13 11.87 76.76 11.87"/><path class="cls-12" d="M78.33,13.85l.54.06A12.71,12.71,0,0,0,79,12.48h-.66"/><path class="cls-11" d="M70.95,6.64S70,12.55,69.1,13c.71-.09,6-.49,7.85-2s0-3.27,0-3.27"/><path class="cls-11" d="M80.17,10.33s-.5,11.65-.93,13.43h-2"/><path class="cls-13" d="M88.06,31.55c-2.2-2.27-5.72-4.08-8.14-5.34-1.27,1.45-3.73,3.17-8.3,3.22-4.22,0-7.7-3.23-7.7-3.23-2.42,1.26-5.95,3.07-8.15,5.34-2.83,2.92-3.35,10.65-3.35,10.65h39s-.51-7.73-3.34-10.65"/><path class="cls-14" d="M88.06,31.55c-2.2-2.27-5.72-4.08-8.14-5.34-1.27,1.45-3.73,3.17-8.3,3.22-4.22,0-7.7-3.23-7.7-3.23-2.42,1.26-5.95,3.07-8.15,5.34-2.83,2.92-3.35,10.65-3.35,10.65h39S90.89,34.47,88.06,31.55Z"/><path class="cls-15" d="M0,60V35.15s38.3-2,44.14-1.82,13.63,1.64,19,5.29a60.91,60.91,0,0,0,10.51,5.65s5.47.36,9.85.36A19.39,19.39,0,0,1,94.11,48.1c4.92-1.64,16.6-7.55,16.6-7.55s8.76-4.85,15.69,4.09c-8.21,6.2-35.2,25.54-35.2,25.54s-.55,5.29-42,1.09C42.13,70.54,29.73,60,29.73,60"/><rect class="cls-15" y="33.32" width="43.23" height="26.7"/><path class="cls-16" d="M57.27,51.93l14.47,3.65a33.49,33.49,0,0,0,9.16,0c4.39-.73,15.38-2.48,15.38-2.48a8.45,8.45,0,0,0-2.52-7.19"/></g></g></g></svg>