<svg xmlns="http://www.w3.org/2000/svg" xmlns:xlink="http://www.w3.org/1999/xlink" viewBox="0 0 92.07 60.13"><defs><style>.cls-1{fill:none;}.cls-2{clip-path:url(#clip-path);}.cls-3{fill:#e9004c;}.cls-4{fill:#737577;}</style><clipPath id="clip-path" transform="translate(0)"><rect class="cls-1" width="92.07" height="60.13"/></clipPath></defs><title>me-Time-saved_1</title><g id="Шар_2" data-name="Шар 2"><g id="Layer_1" data-name="Layer 1"><g class="cls-2"><path class="cls-3" d="M58,29.54c-.09.19-.19.38-.3.56l-.19.32-.25.39-.22.32-.28.37-.24.31-.3.34-.27.3-.33.32-.3.28-.35.3-.32.26-.37.28-.34.24-.4.25-.36.22-.42.23-.38.2-.44.2-.39.17-.47.18-.4.15-.49.15-.4.12-.52.12-.41.09-.55.09-.4.07-.62.06-.35,0-.87,0h-.59l-.52,0-.53-.05-.44,0-.55-.09-.39-.07-.53-.12L42.14,36l-.52-.16-.37-.11-.51-.19-.35-.13-.5-.22-.33-.15-.48-.25-.32-.17-.44-.27L38,34.18l-.4-.29-.31-.22-.37-.31-.3-.25-.34-.32L36,32.53l-.3-.33-.28-.3-.26-.33-.26-.34-.22-.32-.25-.37-.18-.32c-.09-.15-.18-.3-.26-.46l-.21.1h0l-.25.12L31.1,31.11h0a14.76,14.76,0,0,0,4.47,5A17.81,17.81,0,0,0,46,39.38c6.69,0,12.45-3.5,15-8.49Z" transform="translate(0)"/><path class="cls-4" d="M90.87,25a21.37,21.37,0,0,0-4.35-6.16l-10-10.31-3-3.1,0,0a10.57,10.57,0,0,0-13.16-1.1,25.33,25.33,0,0,0-28.48,0A10.57,10.57,0,0,0,18.65,5.49l0,0-3,3.1-10,10.31A21.34,21.34,0,0,0,1.2,25,13.25,13.25,0,0,0,0,30.45a11.69,11.69,0,0,0,1.25,5.26,9.45,9.45,0,0,0,1.32,2l0,0L25.16,60.13H66.91L89.48,37.76l0,0a9.39,9.39,0,0,0,1.32-2,11.69,11.69,0,0,0,1.25-5.26A13.26,13.26,0,0,0,90.87,25M61.64,9.69a22,22,0,0,1,6.43,14.23l0,0,0,0c0,.44,0,.89,0,1.34a22,22,0,0,1-6.38,15.54L58.87,43.3a22.09,22.09,0,0,1-25.46.18h0L30,40.6A22,22,0,0,1,23.9,25.32c0-.44,0-.87,0-1.3l0,0L24,24h0L24,23.84A22.11,22.11,0,0,1,61.64,9.69M73,28.35a4.19,4.19,0,0,1,.81,1.08A1.33,1.33,0,0,1,74,30a.84.84,0,0,1-.08.35,1.6,1.6,0,0,1-.37.49l-.17.14,0,0-.1.06L69.81,34a25.24,25.24,0,0,0,1.48-7.3c.52.49,1.09,1,1.72,1.67m-4.94-4.43,0,0ZM18.75,31h0a1.89,1.89,0,0,1-.42-.41A1,1,0,0,1,18.1,30a1.33,1.33,0,0,1,.15-.58,4.15,4.15,0,0,1,.81-1.08c.61-.62,1.15-1.14,1.66-1.62a25.21,25.21,0,0,0,1.46,7.18l-3.33-2.84ZM24,23.84,24,24ZM88,34.26a7.6,7.6,0,0,1-.61,1l-.18.24v0L65.59,56.92H26.48L4.93,35.55l-.06-.07a7.5,7.5,0,0,1-1-1.65,8.49,8.49,0,0,1-.7-3.38,10,10,0,0,1,.93-4.11,18.18,18.18,0,0,1,3.71-5.22l7.47-7.66h0L20.64,8,20.7,8l0,0h0A7.35,7.35,0,0,1,29,6.52a25.25,25.25,0,0,0-8.18,15.81,49.86,49.86,0,0,0-4.09,3.76A7.29,7.29,0,0,0,15.36,28a4.53,4.53,0,0,0-.47,2,4,4,0,0,0,.37,1.68,4.93,4.93,0,0,0,1.7,2l10.88,9.27a25.3,25.3,0,0,0,32.9,3h0l.09-.08a25.43,25.43,0,0,0,3.1-2.64l11.18-9.52a5.09,5.09,0,0,0,.95-.84,4.59,4.59,0,0,0,.75-1.15A4.06,4.06,0,0,0,77.18,30a4.54,4.54,0,0,0-.47-2A7.32,7.32,0,0,0,75.3,26.1a49.69,49.69,0,0,0-4.15-3.81A25.27,25.27,0,0,0,63,6.53a7.36,7.36,0,0,1,8.36,1.4h0l0,0,.06.06,5.33,5.44h0l7.47,7.66a18.14,18.14,0,0,1,3.71,5.23,10,10,0,0,1,.93,4.1,8.48,8.48,0,0,1-.9,3.82" transform="translate(0)"/><path class="cls-3" d="M41.41,18.57l-.2.41a4.48,4.48,0,0,1-7.69.07l-.2-.39-1.88.87.23.43a6.65,6.65,0,0,0,11.39-.09l.21-.42Z" transform="translate(0)"/><path class="cls-3" d="M58.68,18.57l-.2.41a4.48,4.48,0,0,1-7.69.07l-.2-.39-1.88.87.23.43a6.65,6.65,0,0,0,11.4-.09l.21-.42Z" transform="translate(0)"/></g></g></g></svg>