<svg xmlns="http://www.w3.org/2000/svg" xmlns:xlink="http://www.w3.org/1999/xlink" viewBox="0 0 61.09 61.08"><defs><style>.cls-1{fill:none;}.cls-2{clip-path:url(#clip-path);}.cls-3{fill:#737577;}.cls-4{fill:#e9004c;}</style><clipPath id="clip-path" transform="translate(0 0)"><rect class="cls-1" width="61.09" height="61.08"/></clipPath></defs><title>me-Time-saved</title><g id="Шар_2" data-name="Шар 2"><g id="Layer_1" data-name="Layer 1"><g class="cls-2"><path class="cls-3" d="M59.69,30.54h1.4A30.54,30.54,0,1,0,30.54,61.09,30.55,30.55,0,0,0,61.09,30.54h-2.8a27.75,27.75,0,1,1-8.13-19.62,27.64,27.64,0,0,1,8.13,19.62Z" transform="translate(0 0)"/><path class="cls-4" d="M53.86,30.49A23.31,23.31,0,0,0,30.54,7.23V30.49Z" transform="translate(0 0)"/><rect class="cls-3" x="28.86" y="49.81" width="2.85" height="2.85"/><rect class="cls-3" x="40.01" y="46.96" width="2.85" height="2.85" transform="translate(-19.54 29.94) rotate(-32.59)"/><rect class="cls-3" x="18.14" y="46.96" width="2.85" height="2.85" transform="translate(-31.74 38.81) rotate(-57.41)"/><rect class="cls-3" x="8.16" y="28.99" width="2.85" height="2.85"/><rect class="cls-3" x="11.01" y="18.28" width="2.85" height="2.85" transform="translate(-10.86 19.56) rotate(-57.39)"/><rect class="cls-3" x="11.01" y="39.71" width="2.85" height="2.85" transform="translate(-20.2 13.18) rotate(-32.6)"/><rect class="cls-3" x="18.14" y="10.83" width="2.85" height="2.85" transform="translate(-3.52 12.47) rotate(-32.59)"/><rect class="cls-3" x="47.57" y="39.1" width="2.85" height="2.85" transform="matrix(0.5, -0.86, 0.86, 0.5, -10.68, 62.47)"/></g></g></g></svg>