<svg xmlns="http://www.w3.org/2000/svg" xmlns:xlink="http://www.w3.org/1999/xlink" viewBox="0 0 156.31 117.78"><defs><style>.cls-1,.cls-13,.cls-14,.cls-15,.cls-16,.cls-18,.cls-6,.cls-9{fill:none;}.cls-2{fill:#c7c8ca;}.cls-3{clip-path:url(#clip-path);}.cls-4{fill:#fff;}.cls-5{fill:#e9004c;}.cls-13,.cls-18,.cls-6,.cls-9{stroke:#231f20;}.cls-13,.cls-14,.cls-15,.cls-16,.cls-18,.cls-6,.cls-9{stroke-miterlimit:10;}.cls-6{stroke-width:0.93px;}.cls-7{fill:#e9e9ea;}.cls-8{fill:#231f20;}.cls-9{stroke-width:0.89px;}.cls-10{fill:#e2e3e4;}.cls-11{fill:#ffe9b1;}.cls-12{fill:#333e48;}.cls-13{stroke-width:0.87px;}.cls-14,.cls-15,.cls-16{stroke:#e9004c;}.cls-14{stroke-width:2.7px;}.cls-15{stroke-width:2.83px;}.cls-16{stroke-width:2.67px;}.cls-17{fill:#737577;}.cls-18{stroke-width:0.83px;}</style><clipPath id="clip-path" transform="translate(0 0)"><rect class="cls-1" width="156.31" height="117.78"/></clipPath></defs><title>me-Training-Hands-on-coaching </title><g id="Шар_2" data-name="Шар 2"><g id="Layer_1" data-name="Layer 1"><rect class="cls-2" x="27.28" y="12.83" width="87.63" height="50.6"/><g class="cls-3"><path class="cls-4" d="M115.33,61.63h-.66a1.31,1.31,0,0,1-.44,1,1.58,1.58,0,0,1-1.08.41H29.82a1.58,1.58,0,0,1-1.08-.41,1.32,1.32,0,0,1-.44-1V11a1.32,1.32,0,0,1,.44-1,1.59,1.59,0,0,1,1.08-.41h83.33a1.59,1.59,0,0,1,1.08.41,1.31,1.31,0,0,1,.44,1V61.63H116V11a2.75,2.75,0,0,0-2.84-2.65H29.82A2.75,2.75,0,0,0,27,11V61.63a2.75,2.75,0,0,0,2.84,2.65h83.33A2.75,2.75,0,0,0,116,61.63Z" transform="translate(0 0)"/><path class="cls-4" d="M115,13.8V11.08a2.1,2.1,0,0,0-2.18-2H29.49a2.1,2.1,0,0,0-2.18,2V13.8Z" transform="translate(0 0)"/><path class="cls-5" d="M21,62s.54-8.1,3.5-11.16,8.22-5.33,10.38-6.58c1.39,1.19,2.54,3,6.23,3.13h.62c3.69-.12,4.84-1.94,6.23-3.13,2.16,1.25,7.41,3.53,10.38,6.58S61.88,62,61.88,62H21Z" transform="translate(0 0)"/><path class="cls-6" d="M21,62s.54-8.1,3.5-11.16,8.22-5.33,10.38-6.58c1.39,1.19,2.54,3,6.23,3.13h.62c3.69-.12,4.84-1.94,6.23-3.13,2.16,1.25,7.41,3.53,10.38,6.58S61.88,62,61.88,62H21Z" transform="translate(0 0)"/><rect class="cls-5" x="28.97" y="58.53" width="10.53" height="20.04"/><polyline class="cls-7" points="32.63 80.86 30.42 79.48 39.41 74.78 42.31 77.27 44.8 78.37 44.94 81.69 36.23 82.25"/><path class="cls-7" d="M54.61,71.39,58,67.62a27.44,27.44,0,0,0,.42-5.28c0-4.68-2.8-10.25-10.7-10.55H47.6c-7.87.3-10.66,5.88-10.66,10.55,0,2.23,0,4.17,1.5,10.46l0,.1A9.86,9.86,0,0,0,47.69,80a13,13,0,0,0,5.55-2.38Z" transform="translate(0 0)"/><path class="cls-8" d="M68.68,53.44c-8.63.33-9.07,7.47-9.07,8.9,0,2.13,0,4,1.46,10.08a7.88,7.88,0,0,0,15.26,0c1.45-6.08,1.45-7.92,1.45-10,0-1.42-.44-8.56-9.1-8.9" transform="translate(0 0)"/><path class="cls-7" d="M68.68,53.44l-.06-1.66a12.26,12.26,0,0,0-5.83,1.56,9.2,9.2,0,0,0-2.7,2.39,10.51,10.51,0,0,0-1.81,3.94A11.81,11.81,0,0,0,58,62.33a27.67,27.67,0,0,0,.19,3.75,61.94,61.94,0,0,0,1.31,6.71v.05l0,.05a10.09,10.09,0,0,0,2.3,4,10.11,10.11,0,0,0,6.91,3A10.14,10.14,0,0,0,72.61,79a9.53,9.53,0,0,0,3-2.13,10.18,10.18,0,0,0,2.3-4l0-.05v-.05a61.71,61.71,0,0,0,1.3-6.69,27.74,27.74,0,0,0,.19-3.75,11.54,11.54,0,0,0-1.53-5.71,9.27,9.27,0,0,0-3.31-3.29,12.35,12.35,0,0,0-5.85-1.56h-.13l.06,1.66-.06,1.66a9,9,0,0,1,4.3,1.1,5.92,5.92,0,0,1,1.74,1.54,7.2,7.2,0,0,1,1.23,2.7,8.55,8.55,0,0,1,.23,1.9A24.45,24.45,0,0,1,76,65.67,58.15,58.15,0,0,1,74.72,72l1.61.38-1.58-.49a6.85,6.85,0,0,1-1.54,2.74,6.44,6.44,0,0,1-2.92,1.74,7.22,7.22,0,0,1-1.14.23l-.33,0h-.16a7.09,7.09,0,0,1-2.75-.73,6.08,6.08,0,0,1-1.82-1.38,6.85,6.85,0,0,1-1.42-2.6l-1.58.49L62.69,72a58.68,58.68,0,0,1-1.24-6.35,24.2,24.2,0,0,1-.17-3.35,8.35,8.35,0,0,1,1.06-4,5.93,5.93,0,0,1,2.13-2.12,9,9,0,0,1,4.28-1.1l-.06-1.66-.06,1.66Z" transform="translate(0 0)"/><path class="cls-2" d="M52,94.75H88.83a35.57,35.57,0,0,0-1.06-5.41,12.23,12.23,0,0,0-2.5-5.19c-3-3.06-8.22-5.33-10.38-6.59-1.39,1.19-2.54,3-6.23,3.13H68c-3.69-.12-4.84-1.94-6.23-3.13-2,1.18-6.81,3.27-9.83,6.06Z" transform="translate(0 0)"/><path class="cls-9" d="M52,94.75H88.83a35.57,35.57,0,0,0-1.06-5.41,12.23,12.23,0,0,0-2.5-5.19c-3-3.06-8.22-5.33-10.38-6.59-1.39,1.19-2.54,3-6.23,3.13H68c-3.69-.12-4.84-1.94-6.23-3.13-2,1.18-6.81,3.27-9.83,6.06Z" transform="translate(0 0)"/><path class="cls-2" d="M47.69,76.75a7,7,0,0,0,6.44-5c1.29-5.4,1.29-7,1.29-8.91s-.77-7.29-7.72-7.56C40.73,55.58,40,61,40,62.86s0,3.51,1.29,8.91a7,7,0,0,0,6.44,5" transform="translate(0 0)"/><path class="cls-8" d="M47.69,76.75v.42a7.63,7.63,0,0,0,2.83-.66,7.14,7.14,0,0,0,4-4.61h0c1.29-5.4,1.3-7.11,1.3-9a8.68,8.68,0,0,0-1.32-4.61c-1.12-1.73-3.22-3.23-6.8-3.36h0c-3.58.13-5.68,1.63-6.8,3.36a8.68,8.68,0,0,0-1.32,4.61c0,1.9,0,3.6,1.3,9h0a7.14,7.14,0,0,0,4,4.61,7.63,7.63,0,0,0,2.83.66v-.83a5.17,5.17,0,0,1-.74-.07,7,7,0,0,1-2.76-1.08,6.38,6.38,0,0,1-2.53-3.54l-.4.12.4-.1c-1.28-5.39-1.28-6.93-1.28-8.81a7.87,7.87,0,0,1,1.19-4.16c1-1.51,2.77-2.85,6.14-3l0-.41,0,.41c3.37.14,5.14,1.47,6.14,3A7.87,7.87,0,0,1,55,62.86c0,1.88,0,3.42-1.28,8.81l.4.1-.4-.12a6.3,6.3,0,0,1-3.55,4.1,7.26,7.26,0,0,1-1.75.52l-.55.06h-.2Z" transform="translate(0 0)"/><path class="cls-2" d="M66.83,94.38a34.53,34.53,0,0,0-1-5.24,11.87,11.87,0,0,0-2.42-5c-2.87-3-8-5.17-10.06-6.38-1.35,1.15-2.46,2.92-6,3h-.6c-3.57-.12-4.69-1.88-6-3-2,1.14-6.59,3.16-9.53,5.87V94.38h1.66l-.6-1L37,90.23s2.26.23.62,1.92a12.54,12.54,0,0,1-3.23,2.23Z" transform="translate(0 0)"/><path class="cls-8" d="M40.65,77.73l.21.36-.27.15a16.41,16.41,0,0,0,2,1.75,7.4,7.4,0,0,0,4.07,1.2H47v0h.31A7.41,7.41,0,0,0,51.37,80a16.47,16.47,0,0,0,2-1.75l-.27-.15.21-.36.27.32-.21.19c1.09.61,2.73,1.4,4.47,2.39a23.75,23.75,0,0,1,5.23,3.77,11.51,11.51,0,0,1,2.32,4.84h0l.13.48A34.3,34.3,0,0,1,66.37,94h.46v.41l-.41,0c0-.15,0-.3,0-.45H43.64v.83H67.29l0-.45a35,35,0,0,0-1-5.31l-.4.11.4-.11h0a12.23,12.23,0,0,0-2.52-5.2,24.51,24.51,0,0,0-5.42-3.92c-1.91-1.08-3.72-1.94-4.73-2.53l-.26-.15-.22.19a22.13,22.13,0,0,1-2.15,1.88,6.55,6.55,0,0,1-3.63,1.06H46.7a6.55,6.55,0,0,1-3.64-1.06,22.12,22.12,0,0,1-2.15-1.88l-.22-.19-.26.15c-1,.56-2.61,1.35-4.39,2.34a27.76,27.76,0,0,0-5.21,3.58l-.13.12V94.79H32V94h-.42v.41h-.42V94h.42V83.79l-.13.11-.28-.31h.42v.19a27.43,27.43,0,0,1,4.91-3.35c1.62-.9,3.12-1.64,4.14-2.21" transform="translate(0 0)"/><path class="cls-7" d="M40,89.49s6.21-3.25,6.74-3.57,2.67,2.25,2.67,2.25l-6.31,3.36" transform="translate(0 0)"/><rect class="cls-7" x="48.31" y="88.66" width="11.97" height="5.34"/><path class="cls-10" d="M44.31,91.13A51.72,51.72,0,0,0,38.92,89L38,90l-8.57,5.59L33,95.42l3.43-3,3.9,1.81-.9.92,3.92-.19s2.53-2.92.93-3.78" transform="translate(0 0)"/><path class="cls-2" d="M68.43,76.75a7,7,0,0,0,6.44-5c1.29-5.4,1.29-7,1.29-8.91s-.77-7.29-7.72-7.56c-7,.27-7.73,5.67-7.73,7.56s0,3.51,1.29,8.91a7,7,0,0,0,6.44,5" transform="translate(0 0)"/><path class="cls-8" d="M68.43,76.75v.42a7.62,7.62,0,0,0,2.83-.66,7.14,7.14,0,0,0,4-4.61h0c1.29-5.4,1.3-7.11,1.3-9a8.68,8.68,0,0,0-1.32-4.61C74.12,56.52,72,55,68.44,54.89h0c-3.58.13-5.68,1.63-6.8,3.36a8.68,8.68,0,0,0-1.32,4.61c0,1.9,0,3.6,1.3,9h0a7.14,7.14,0,0,0,4,4.61,7.63,7.63,0,0,0,2.83.66v-.83a5.17,5.17,0,0,1-.74-.07,7,7,0,0,1-2.76-1.08,6.37,6.37,0,0,1-2.53-3.54l-.4.12.4-.1c-1.28-5.39-1.28-6.93-1.28-8.81a7.86,7.86,0,0,1,1.19-4.16c1-1.51,2.77-2.85,6.14-3l0-.41,0,.41c3.37.14,5.14,1.47,6.14,3a7.87,7.87,0,0,1,1.19,4.16c0,1.88,0,3.42-1.28,8.81l.4.1-.4-.12a6.31,6.31,0,0,1-3.55,4.1,7.27,7.27,0,0,1-1.75.52l-.55.06h-.2Z" transform="translate(0 0)"/><path class="cls-8" d="M54.28,64.86c-8.07.33-8.48,7.47-8.48,8.9,0,2.13,0,4,1.36,10.08a7.67,7.67,0,0,0,7.13,5.88,7.68,7.68,0,0,0,7.14-5.91c1.36-6.08,1.36-7.92,1.36-10,0-1.43-.41-8.56-8.51-8.9" transform="translate(0 0)"/><path class="cls-7" d="M35.61,79.94A30.23,30.23,0,0,0,28,75.59L27,90s1.4,2.21,3.35,5H41.86c-.15-1.58-.34-3-.57-4.29l-3.36,1.64-7.47-9.54Z" transform="translate(0 0)"/><path class="cls-10" d="M54.28,64.86l-.07-1.6a11,11,0,0,0-5.52,1.58,8.86,8.86,0,0,0-2.53,2.4,10.75,10.75,0,0,0-1.68,3.9,12.47,12.47,0,0,0-.29,2.63,29.43,29.43,0,0,0,.18,3.73,65.51,65.51,0,0,0,1.22,6.7v.1a10.21,10.21,0,0,0,2.13,4,9.06,9.06,0,0,0,4.16,2.65,8.59,8.59,0,0,0,2.38.4A9,9,0,0,0,58,90.4a8.93,8.93,0,0,0,2.83-2.14,10.3,10.3,0,0,0,2.14-4v-.1a64.78,64.78,0,0,0,1.21-6.67,29.51,29.51,0,0,0,.18-3.72A12,12,0,0,0,63,68.12a9,9,0,0,0-3.1-3.29,11.1,11.1,0,0,0-5.53-1.57h-.13l.07,1.6-.07,1.6a7.92,7.92,0,0,1,4,1.09,5.63,5.63,0,0,1,1.62,1.54A7.53,7.53,0,0,1,61,71.83a9.24,9.24,0,0,1,.22,1.93A26.29,26.29,0,0,1,61,77.12a62.27,62.27,0,0,1-1.16,6.34l1.56.35-1.54-.45a7,7,0,0,1-1.46,2.77,5.86,5.86,0,0,1-2.7,1.72,6.16,6.16,0,0,1-1,.23l-.3,0h-.13a6.18,6.18,0,0,1-2.51-.72A5.67,5.67,0,0,1,50,86a7.08,7.08,0,0,1-1.35-2.63l-1.54.45,1.56-.35a62.53,62.53,0,0,1-1.16-6.36,26.22,26.22,0,0,1-.16-3.36,9,9,0,0,1,1-4.08,5.77,5.77,0,0,1,2-2.13,7.86,7.86,0,0,1,3.94-1.08l-.07-1.6-.07,1.6Z" transform="translate(0 0)"/><path class="cls-7" d="M59.59,87.86l.55,1.69s3.66-1.87,5.74-12.81" transform="translate(0 0)"/><path class="cls-7" d="M61.8,82.82,65.2,79a27.45,27.45,0,0,0,.42-5.28c0-4.68-2.8-10.25-10.7-10.55H54.8c-7.87.3-10.66,5.88-10.66,10.55,0,2.23,0,4.17,1.5,10.46l0,.1a9.86,9.86,0,0,0,9.21,7.05A13,13,0,0,0,60.43,89Z" transform="translate(0 0)"/><path class="cls-7" d="M58.37,88.33,59.54,90s4.65-3.31,3.82-7.67-4.42.21-4.42.21" transform="translate(0 0)"/><path class="cls-2" d="M54.88,87.86a7,7,0,0,0,6.44-5c1.29-5.4,1.29-7,1.29-8.91s-.77-7.29-7.72-7.56c-7,.27-7.73,5.67-7.73,7.56s0,3.51,1.29,8.91a7,7,0,0,0,6.44,5" transform="translate(0 0)"/><path class="cls-8" d="M54.88,87.86v.42a7.62,7.62,0,0,0,2.83-.66,7.14,7.14,0,0,0,4-4.61h0C63,77.58,63,75.88,63,74a8.68,8.68,0,0,0-1.32-4.61c-1.12-1.73-3.22-3.23-6.8-3.36h0c-3.58.13-5.68,1.63-6.8,3.36A8.68,8.68,0,0,0,46.74,74c0,1.9,0,3.6,1.3,9h0a7.13,7.13,0,0,0,4,4.61,7.62,7.62,0,0,0,2.83.66v-.83a5.16,5.16,0,0,1-.74-.07,7,7,0,0,1-2.76-1.08,6.38,6.38,0,0,1-2.53-3.54l-.4.12.4-.1c-1.28-5.39-1.28-6.93-1.28-8.81a7.86,7.86,0,0,1,1.19-4.16c1-1.51,2.77-2.84,6.14-3l0-.41,0,.41c3.37.14,5.14,1.47,6.14,3A7.87,7.87,0,0,1,62.19,74c0,1.88,0,3.42-1.28,8.81l.4.1-.4-.12a6.3,6.3,0,0,1-3.55,4.1,7.23,7.23,0,0,1-1.75.52l-.55.06h-.2Z" transform="translate(0 0)"/><path class="cls-8" d="M44.21,75.21a6.36,6.36,0,0,1-2.55-3.54c-1.28-5.35-1.28-7-1.28-8.81,0-1.61.53-6.88,7.29-7.14C54.47,56,55,61.25,55,62.86h.83c0-1.28-.39-7.67-8.16-8-7.73.3-8.12,6.69-8.12,8,0,1.91,0,3.56,1.31,9a7.13,7.13,0,0,0,3.4,4.29c0-.34,0-.67,0-1" transform="translate(0 0)"/><path class="cls-10" d="M54.79,109.38c-.66-7-2.11-11-4.41-13.39A29.57,29.57,0,0,0,41,90l-1.07,14.36s1.4,2.21,3.35,5Z" transform="translate(0 0)"/><rect class="cls-10" x="39.43" y="91.95" width="2.33" height="2.99"/><rect class="cls-7" x="65.94" y="91.44" width="14.81" height="4.15"/><path class="cls-5" d="M70.81,12.28h7.62a.85.85,0,0,0,0-1.69H70.81a.85.85,0,0,0,0,1.69" transform="translate(0 0)"/><path class="cls-11" d="M41.33,20.5c-7.06.27-7.84,5.76-7.84,7.67s0,3.56,1.31,9a7.06,7.06,0,0,0,6.54,5.06,7.06,7.06,0,0,0,6.54-5.06c1.31-5.48,1.31-7.13,1.31-9s-.79-7.4-7.84-7.67" transform="translate(0 0)"/><path class="cls-8" d="M41.33,20.5l0-.41c-3.64.13-5.76,1.65-6.9,3.41a8.8,8.8,0,0,0-1.34,4.68c0,1.93,0,3.65,1.32,9.14h0A7.24,7.24,0,0,0,38.46,42a7.7,7.7,0,0,0,2.87.67v-.41l0,.41h0v-.41l0,.41h0A7.7,7.7,0,0,0,44.2,42a7.24,7.24,0,0,0,4.06-4.68h0c1.31-5.49,1.32-7.21,1.32-9.14a8.8,8.8,0,0,0-1.34-4.68c-1.14-1.75-3.26-3.28-6.9-3.41h0l0,.41,0,.41c3.42.14,5.22,1.5,6.24,3a8,8,0,0,1,1.21,4.22c0,1.91,0,3.47-1.3,8.95l.4.1-.4-.12a6.41,6.41,0,0,1-3.6,4.16,7.35,7.35,0,0,1-1.78.53,5.17,5.17,0,0,1-.76.07v.42l0-.41h0a5.29,5.29,0,0,1-.76-.07,7.12,7.12,0,0,1-2.81-1.1,6.49,6.49,0,0,1-2.58-3.59l-.4.12.4-.1c-1.3-5.47-1.3-7-1.3-8.95a8,8,0,0,1,1.21-4.22c1-1.54,2.82-2.89,6.24-3l0-.41,0,.41Z" transform="translate(0 0)"/><path class="cls-11" d="M58.94,46.23l6.38-5.3A1.29,1.29,0,0,1,67,41.2a1.21,1.21,0,0,1,.06,1.41c-.16.18-3.16,3.23-3.16,3.23s1.9,3.26,1.92,5.76c-1.57,1.45-4.25,4.29-7.13,2.4s-3.18-7.59-2.08-11.42c1.07.07,2.41.42,2.33,3.66" transform="translate(0 0)"/><path class="cls-8" d="M58.94,46.23l.25.3,6.38-5.3-.25-.3.21.32h0a1,1,0,0,1,.5-.14.87.87,0,0,1,.68.34L67,41.2l-.3.25a.74.74,0,0,1,.17.49,1,1,0,0,1,0,.29l0,.1v0h0l0,0,0,0h0l0,0,0,0h0l-.17.18-1.74,1.78-1.24,1.26-.21.21.15.25.08.14a19.28,19.28,0,0,1,1,2.19,9.64,9.64,0,0,1,.76,3.25h.39l-.26-.28a21.46,21.46,0,0,1-2.19,1.9,4.78,4.78,0,0,1-2.68,1,3.19,3.19,0,0,1-1.78-.57A5.13,5.13,0,0,1,57,51a12.51,12.51,0,0,1-.6-4A15.89,15.89,0,0,1,57,42.68l-.37-.11,0,.39a1.89,1.89,0,0,1,1.31.48A3.5,3.5,0,0,1,58.56,46v.26l0,.85.65-.54-.25-.3h.39c0-.1,0-.19,0-.28a4.22,4.22,0,0,0-.89-3.06,2.64,2.64,0,0,0-1.81-.71l-.31,0-.09.3a16.62,16.62,0,0,0-.6,4.48,13.26,13.26,0,0,0,.65,4.28,5.89,5.89,0,0,0,2.2,3.09,4,4,0,0,0,2.21.69,5.52,5.52,0,0,0,3.13-1.17,22.31,22.31,0,0,0,2.27-2l.12-.12V51.6a11.11,11.11,0,0,0-1-4,19.32,19.32,0,0,0-1-2l-.33.19.28.27,1.52-1.55,1.08-1.1.38-.39.19-.21h0a1.14,1.14,0,0,0,.2-.39,1.73,1.73,0,0,0,.09-.53,1.51,1.51,0,0,0-.35-1h0a1.65,1.65,0,0,0-1.25-.6,1.78,1.78,0,0,0-.93.27h0l-6.4,5.31.25.3h0Z" transform="translate(0 0)"/><rect class="cls-7" x="60.1" y="86.88" width="4.14" height="5.95"/><path class="cls-8" d="M95.45,53.7c-8.27.33-8.69,7.47-8.69,8.9,0,2.13,0,4,1.4,10.08a7.49,7.49,0,0,0,14.63,0c1.39-6.08,1.39-7.92,1.39-10,0-1.42-.42-8.56-8.73-8.9" transform="translate(0 0)"/><rect class="cls-2" x="65.6" y="85.92" width="2.67" height="5.53"/><path class="cls-7" d="M95.57,53.7,95.5,52a11.77,11.77,0,0,0-5.72,1.57A9.11,9.11,0,0,0,87.16,56a10.64,10.64,0,0,0-1.75,3.93,12.18,12.18,0,0,0-.31,2.64,28.77,28.77,0,0,0,.19,3.74A63.67,63.67,0,0,0,86.55,73v.1a10.15,10.15,0,0,0,2.23,4,9.46,9.46,0,0,0,4.32,2.66,9.2,9.2,0,0,0,2.46.4,9.68,9.68,0,0,0,3.85-.92,9.29,9.29,0,0,0,2.94-2.15,10.24,10.24,0,0,0,2.23-4V73a63.08,63.08,0,0,0,1.26-6.68,28.69,28.69,0,0,0,.19-3.74,11.77,11.77,0,0,0-1.48-5.68,9.17,9.17,0,0,0-3.22-3.3A11.84,11.84,0,0,0,95.63,52H95.5l.07,1.66-.07,1.66a8.45,8.45,0,0,1,4.12,1.09A5.79,5.79,0,0,1,101.29,58a7.34,7.34,0,0,1,1.2,2.71,8.87,8.87,0,0,1,.23,1.91,25.14,25.14,0,0,1-.16,3.35,60.07,60.07,0,0,1-1.2,6.33l1.64.37-1.61-.47a6.94,6.94,0,0,1-1.5,2.75,6.11,6.11,0,0,1-2.8,1.72,6.67,6.67,0,0,1-1.08.23l-.32,0h-.14a6.61,6.61,0,0,1-2.62-.72,5.87,5.87,0,0,1-1.75-1.37,6.93,6.93,0,0,1-1.38-2.6l-1.61.47,1.64-.37a60.17,60.17,0,0,1-1.21-6.35,25.24,25.24,0,0,1-.17-3.35,8.62,8.62,0,0,1,1-4,5.82,5.82,0,0,1,2-2.11,8.38,8.38,0,0,1,4.09-1.09l-.07-1.66-.07,1.66Z" transform="translate(0 0)"/><path class="cls-2" d="M95.59,76.85a7,7,0,0,0,6.44-5c1.29-5.4,1.29-7,1.29-8.91s-.77-7.29-7.72-7.56c-7,.27-7.72,5.67-7.72,7.56s0,3.51,1.29,8.91a7,7,0,0,0,6.44,5" transform="translate(0 0)"/><path class="cls-8" d="M95.59,76.85v.42a7.63,7.63,0,0,0,2.83-.66,7.14,7.14,0,0,0,4-4.61h0c1.29-5.4,1.3-7.11,1.3-9a8.67,8.67,0,0,0-1.32-4.61c-1.12-1.73-3.22-3.23-6.8-3.36h0c-3.58.13-5.68,1.63-6.8,3.36A8.68,8.68,0,0,0,87.45,63c0,1.9,0,3.6,1.3,9h0a7.14,7.14,0,0,0,4,4.61,7.63,7.63,0,0,0,2.83.66v-.83a5.17,5.17,0,0,1-.74-.07,7,7,0,0,1-2.76-1.08,6.39,6.39,0,0,1-2.53-3.54l-.4.12.4-.1c-1.28-5.39-1.28-6.93-1.28-8.81a7.87,7.87,0,0,1,1.19-4.16c1-1.51,2.77-2.84,6.14-3l0-.41,0,.41c3.37.14,5.14,1.47,6.14,3A7.86,7.86,0,0,1,102.9,63c0,1.88,0,3.42-1.28,8.81l.4.1-.4-.12a6.3,6.3,0,0,1-3.55,4.1,7.17,7.17,0,0,1-1.75.52l-.55.06h-.2Z" transform="translate(0 0)"/><path class="cls-2" d="M.45,95.52S1,88,3.95,85.15s8.22-5,10.38-6.12c1.39,1.1,2.54,2.8,6.23,2.91h.62C24.86,81.83,26,80.13,27.4,79c2.16,1.17,7.41,3.28,10.38,6.12s3.5,10.37,3.5,10.37H.45Z" transform="translate(0 0)"/><path class="cls-8" d="M.45,95.52l.41,0s0-.11,0-.32a30.85,30.85,0,0,1,.81-4.58,11.5,11.5,0,0,1,2.54-5.2,24.54,24.54,0,0,1,5.4-3.62c1.94-1,3.78-1.84,4.89-2.44l-.2-.36-.26.32a22,22,0,0,0,2.29,1.86,8,8,0,0,0,4.18,1.15h.33v0h.33a8,8,0,0,0,4.18-1.15,22.05,22.05,0,0,0,2.29-1.86L27.4,79l-.2.36c1.11.6,2.95,1.41,4.89,2.44a24.54,24.54,0,0,1,5.4,3.62c1.37,1.3,2.26,3.84,2.75,6,.25,1.1.41,2.12.5,2.86,0,.37.08.67.1.88s0,.32,0,.32l.41,0v-.41H.45v.41l.41,0-.41,0v.42H41.73l0-.44A31.28,31.28,0,0,0,41,91.31c-.52-2.27-1.38-4.92-3-6.46a25.32,25.32,0,0,0-5.59-3.76c-2-1-3.83-1.86-4.88-2.43l-.24-.13-.21.17a22.37,22.37,0,0,1-2.21,1.8,7.16,7.16,0,0,1-3.77,1v0h-.6v0a7.17,7.17,0,0,1-3.77-1,22.35,22.35,0,0,1-2.21-1.8l-.21-.17-.24.13c-1.05.57-2.91,1.39-4.88,2.43a25.33,25.33,0,0,0-5.59,3.76c-1.6,1.54-2.46,4.19-3,6.46A31.28,31.28,0,0,0,0,95.49l0,.44H.45Z" transform="translate(0 0)"/><path class="cls-7" d="M30.68,103.53c1.83-6.78,3.94-10.5,6.62-12.45a29.57,29.57,0,0,1,10.27-4.26l-1.38,14.33s-1.75,1.94-4.14,4.34Z" transform="translate(0 0)"/><path class="cls-7" d="M64.08,73.84,62.65,91.36l2.95-.42c.2-2.1.13-9.78,0-17.1Z" transform="translate(0 0)"/><path class="cls-12" d="M34.46,106.73S35,98.63,38,95.58,46.18,90.25,48.34,89c1.39,1.19,2.54,3,6.23,3.13h.62C58.87,92,60,90.18,61.42,89c2.16,1.25,7.41,3.53,10.38,6.58s3.5,11.16,3.5,11.16H34.46Z" transform="translate(0 0)"/><path class="cls-8" d="M34.46,106.73l.41,0s0-.12,0-.34a35.85,35.85,0,0,1,.81-4.94,12.79,12.79,0,0,1,2.55-5.62,24.55,24.55,0,0,1,5.4-3.9c1.94-1.1,3.78-2,4.89-2.62L48.34,89l-.27.31a22.35,22.35,0,0,0,2.29,2,7.63,7.63,0,0,0,4.19,1.23h.33v0h.33a7.64,7.64,0,0,0,4.19-1.23,22.33,22.33,0,0,0,2.29-2L61.42,89l-.21.36c1.11.64,2.95,1.52,4.89,2.62a24.5,24.5,0,0,1,5.4,3.9c1.38,1.4,2.26,4.14,2.76,6.52.25,1.19.41,2.28.5,3.08,0,.4.08.72.1.95s0,.34,0,.34l.41,0v-.42H34.46v.42l.41,0-.41,0v.42H75.74l0-.44a35.87,35.87,0,0,0-.65-4.49c-.52-2.44-1.38-5.27-3-6.93a25.31,25.31,0,0,0-5.59-4c-2-1.12-3.83-2-4.88-2.62l-.26-.15-.22.19a22.34,22.34,0,0,1-2.21,1.94,6.79,6.79,0,0,1-3.76,1.09h-.59a6.78,6.78,0,0,1-3.76-1.09,22.35,22.35,0,0,1-2.21-1.94l-.22-.19-.25.15c-1.05.61-2.91,1.5-4.88,2.62a25.31,25.31,0,0,0-5.59,4c-1.59,1.65-2.45,4.49-3,6.93a36.2,36.2,0,0,0-.65,4.49l0,.44h.44Z" transform="translate(0 0)"/><rect class="cls-7" x="6.65" y="106.17" width="93.16" height="11.61"/><polygon class="cls-8" points="40.44 78.13 40.77 78.37 41.08 78.04 40.63 77.46 40.44 78.13"/><path class="cls-8" d="M20.81,54.52c-8.63.33-9.07,7.42-9.07,8.84,0,2.12,0,3.94,1.46,10a8.17,8.17,0,0,0,7.63,5.84,8.19,8.19,0,0,0,7.63-5.87c1.45-6,1.45-7.87,1.45-10,0-1.42-.44-8.51-9.1-8.84" transform="translate(0 0)"/><path class="cls-7" d="M20.81,54.52l-.06-1.66a12.32,12.32,0,0,0-5.83,1.55,9.19,9.19,0,0,0-2.7,2.38,10.42,10.42,0,0,0-1.81,3.92,11.72,11.72,0,0,0-.32,2.65,27.36,27.36,0,0,0,.19,3.73,61.1,61.1,0,0,0,1.31,6.67v.05l0,.05a10,10,0,0,0,2.3,4,9.76,9.76,0,0,0,4.41,2.62,9.6,9.6,0,0,0,2.5.39,10.11,10.11,0,0,0,3.91-.9,9.48,9.48,0,0,0,3-2.12,10.1,10.1,0,0,0,2.3-4l0-.05v-.05a60.67,60.67,0,0,0,1.3-6.65,27.61,27.61,0,0,0,.19-3.72A11.45,11.45,0,0,0,30,57.68a9.25,9.25,0,0,0-3.31-3.27,12.4,12.4,0,0,0-5.85-1.55h-.13l.06,1.66-.06,1.66A9.1,9.1,0,0,1,25,57.28a5.92,5.92,0,0,1,1.74,1.53A7.11,7.11,0,0,1,28,61.48a8.43,8.43,0,0,1,.23,1.88,24.06,24.06,0,0,1-.17,3.32A57.63,57.63,0,0,1,26.85,73l1.61.39-1.58-.49a6.78,6.78,0,0,1-1.54,2.72,6.43,6.43,0,0,1-2.92,1.73,7.11,7.11,0,0,1-1.14.23l-.33,0h-.16A7.16,7.16,0,0,1,18,76.83a6.06,6.06,0,0,1-1.82-1.37,6.77,6.77,0,0,1-1.42-2.58l-1.58.49L14.81,73a57.87,57.87,0,0,1-1.24-6.3,23.85,23.85,0,0,1-.17-3.32,8.23,8.23,0,0,1,1.06-4,5.9,5.9,0,0,1,2.13-2.11,9,9,0,0,1,4.28-1.1l-.06-1.66-.06,1.66Z" transform="translate(0 0)"/><path class="cls-4" d="M20.82,77.67a7,7,0,0,0,6.44-5c1.29-5.4,1.29-7,1.29-8.91s-.77-7.29-7.72-7.56c-7,.27-7.73,5.67-7.73,7.56s0,3.51,1.29,8.91a7,7,0,0,0,6.44,5" transform="translate(0 0)"/><path class="cls-8" d="M20.82,77.67v.42a7.63,7.63,0,0,0,2.83-.66,7.13,7.13,0,0,0,4-4.61h0c1.29-5.4,1.3-7.1,1.3-9a8.68,8.68,0,0,0-1.32-4.61c-1.12-1.73-3.22-3.23-6.8-3.36h0c-3.58.13-5.68,1.63-6.8,3.36a8.68,8.68,0,0,0-1.32,4.61c0,1.9,0,3.6,1.3,9h0a7.13,7.13,0,0,0,4,4.61,7.62,7.62,0,0,0,2.83.66v-.83a5.24,5.24,0,0,1-.74-.07,7,7,0,0,1-2.76-1.08,6.38,6.38,0,0,1-2.53-3.54l-.4.12.4-.1c-1.28-5.39-1.28-6.93-1.28-8.81a7.87,7.87,0,0,1,1.19-4.16c1-1.51,2.77-2.84,6.14-3l0-.41,0,.41c3.37.14,5.14,1.47,6.14,3a7.87,7.87,0,0,1,1.19,4.16c0,1.88,0,3.42-1.28,8.81l.4.1-.4-.12a6.3,6.3,0,0,1-3.55,4.1,7.22,7.22,0,0,1-1.75.52l-.55.06h-.2Z" transform="translate(0 0)"/><path class="cls-2" d="M20.82,77.67a7,7,0,0,0,6.44-5c1.29-5.4,1.29-7,1.29-8.91s-.77-7.29-7.72-7.56c-7,.27-7.73,5.67-7.73,7.56s0,3.51,1.29,8.91a7,7,0,0,0,6.44,5" transform="translate(0 0)"/><path class="cls-8" d="M20.82,77.67v.42a7.63,7.63,0,0,0,2.83-.66,7.13,7.13,0,0,0,4-4.61h0c1.29-5.4,1.3-7.1,1.3-9a8.68,8.68,0,0,0-1.32-4.61c-1.12-1.73-3.22-3.23-6.8-3.36h0c-3.58.13-5.68,1.63-6.8,3.36a8.68,8.68,0,0,0-1.32,4.61c0,1.9,0,3.6,1.3,9h0a7.13,7.13,0,0,0,4,4.61,7.62,7.62,0,0,0,2.83.66v-.83a5.24,5.24,0,0,1-.74-.07,7,7,0,0,1-2.76-1.08,6.38,6.38,0,0,1-2.53-3.54l-.4.12.4-.1c-1.28-5.39-1.28-6.93-1.28-8.81a7.87,7.87,0,0,1,1.19-4.16c1-1.51,2.77-2.84,6.14-3l0-.41,0,.41c3.37.14,5.14,1.47,6.14,3a7.87,7.87,0,0,1,1.19,4.16c0,1.88,0,3.42-1.28,8.81l.4.1-.4-.12a6.3,6.3,0,0,1-3.55,4.1,7.22,7.22,0,0,1-1.75.52l-.55.06h-.2Z" transform="translate(0 0)"/><path class="cls-10" d="M129,88.46a7.05,7.05,0,0,0,6.52-5c1.31-5.47,1.31-7.12,1.31-9S136.08,67,129,66.72c-7.05.27-7.83,5.75-7.83,7.66s0,3.56,1.31,9a7.06,7.06,0,0,0,6.53,5" transform="translate(0 0)"/><path class="cls-13" d="M129,88.46a7.05,7.05,0,0,0,6.52-5c1.31-5.47,1.31-7.12,1.31-9S136.08,67,129,66.72c-7.05.27-7.83,5.75-7.83,7.66s0,3.56,1.31,9A7.06,7.06,0,0,0,129,88.46Z" transform="translate(0 0)"/><path class="cls-8" d="M128.74,65c-8.27.33-8.69,7.47-8.69,8.9,0,2.13,0,4,1.4,10.08a7.49,7.49,0,0,0,14.63,0c1.39-6.08,1.39-7.92,1.39-10,0-1.43-.42-8.56-8.73-8.9" transform="translate(0 0)"/><path class="cls-7" d="M128.87,65l-.07-1.66a11.76,11.76,0,0,0-5.72,1.57,9.08,9.08,0,0,0-2.63,2.41,10.64,10.64,0,0,0-1.75,3.93,12.18,12.18,0,0,0-.31,2.64,28.58,28.58,0,0,0,.19,3.74,63.62,63.62,0,0,0,1.27,6.71v.1a10.15,10.15,0,0,0,2.23,4,9.47,9.47,0,0,0,4.32,2.66,9.18,9.18,0,0,0,2.46.4,9.66,9.66,0,0,0,3.85-.92,9.29,9.29,0,0,0,2.94-2.14,10.24,10.24,0,0,0,2.23-4v-.1a63,63,0,0,0,1.26-6.68,28.66,28.66,0,0,0,.19-3.74,11.77,11.77,0,0,0-1.48-5.68,9.16,9.16,0,0,0-3.22-3.3,11.83,11.83,0,0,0-5.74-1.57h-.13l.07,1.66-.07,1.66a8.45,8.45,0,0,1,4.12,1.09,5.78,5.78,0,0,1,1.68,1.53,7.35,7.35,0,0,1,1.2,2.71,8.86,8.86,0,0,1,.23,1.91,25.15,25.15,0,0,1-.16,3.35,60.11,60.11,0,0,1-1.2,6.33l1.64.37-1.61-.47a6.93,6.93,0,0,1-1.5,2.75,6.11,6.11,0,0,1-2.8,1.72,6.8,6.8,0,0,1-1.08.23l-.32,0h-.14a6.64,6.64,0,0,1-2.62-.72,5.84,5.84,0,0,1-1.75-1.37,6.93,6.93,0,0,1-1.38-2.6l-1.61.47,1.64-.37a60.12,60.12,0,0,1-1.21-6.35,25.25,25.25,0,0,1-.17-3.35,8.61,8.61,0,0,1,1-4,5.81,5.81,0,0,1,2-2.11,8.38,8.38,0,0,1,4.09-1.09L128.87,65l-.07,1.66Z" transform="translate(0 0)"/><path class="cls-2" d="M128.89,88.17a7,7,0,0,0,6.44-5c1.29-5.4,1.29-7,1.29-8.91s-.77-7.29-7.72-7.56c-7,.27-7.72,5.67-7.72,7.56s0,3.51,1.29,8.91a7,7,0,0,0,6.44,5" transform="translate(0 0)"/><path class="cls-8" d="M128.89,88.17v.42a7.65,7.65,0,0,0,2.83-.66,7.14,7.14,0,0,0,4-4.61h0c1.29-5.4,1.3-7.11,1.3-9a8.67,8.67,0,0,0-1.32-4.61c-1.12-1.73-3.22-3.23-6.8-3.36h0c-3.58.13-5.68,1.63-6.8,3.36a8.67,8.67,0,0,0-1.32,4.61c0,1.9,0,3.6,1.3,9h0a7.14,7.14,0,0,0,4,4.61,7.65,7.65,0,0,0,2.83.66v-.83a5.19,5.19,0,0,1-.75-.07,7,7,0,0,1-2.76-1.08,6.38,6.38,0,0,1-2.53-3.54l-.4.12.4-.1c-1.28-5.39-1.28-6.93-1.28-8.81a7.87,7.87,0,0,1,1.19-4.16c1-1.51,2.77-2.84,6.14-3l0-.41,0,.41c3.37.14,5.14,1.47,6.14,3a7.86,7.86,0,0,1,1.19,4.16c0,1.88,0,3.42-1.28,8.81l.4.1-.4-.12a6.3,6.3,0,0,1-3.55,4.09,7.18,7.18,0,0,1-1.75.52c-.23,0-.42.06-.55.06h-.2Z" transform="translate(0 0)"/><rect class="cls-8" x="55.54" y="28.65" width="14.14" height="0.77"/><rect class="cls-8" x="55.46" y="33.28" width="53.55" height="0.77"/><rect class="cls-8" x="94.86" y="37.89" width="14.14" height="0.77"/><path class="cls-14" d="M123.73,18a12,12,0,0,0-7,4.23c-2.57,3.5-6.84,8.17-9,8.31V49h33.79s4.56-.58,5.42-4.08,2.28-13.56,2.28-13.56,1.28-7.33-4.42-7.31-13.54,0-13.54,0" transform="translate(0 0)"/><path class="cls-15" d="M139.23,40.62h8.42m-8.42-8.08H149" transform="translate(0 0)"/><path class="cls-16" d="M148.95,26.4,150.36,19l4.16-6.09L141.28,1.83s-5.34,5.66-8.65,6.84-9.08,3.42-9,13.35,0,15,0,15,8.22-.64,8.76-9.4l.11-3" transform="translate(0 0)"/><polyline class="cls-5" points="133.58 23.59 131.12 26.91 131.12 22.73 133.94 22.98"/><path class="cls-8" d="M90.61,78.23H88.14s-.53-1.22-.91-12.44,7.93-10.94,7.93-10.94a8.5,8.5,0,0,1,8.51,7.4c.19,7.4-1.6,14.82-2.65,16" transform="translate(0 0)"/><path class="cls-8" d="M103.74,63.74s-.4,12.59-.81,14.49c-1.37,0-2.15,0-2.15,0" transform="translate(0 0)"/><path class="cls-8" d="M61.56,73.84,60.13,87.68l2.95-.33c.2-1.66.13-7.73,0-13.51Z" transform="translate(0 0)"/><path class="cls-8" d="M50,87.54H47.53s-.53-1.14-.91-11.7,7.93-10.28,7.93-10.28,7.06-.28,8.51,7c.19,7-1.6,13.94-2.65,15" transform="translate(0 0)"/><path class="cls-8" d="M58.43,84l3.51,3.37s-4.9.82-6.92.85A5.23,5.23,0,0,1,55.36,86" transform="translate(0 0)"/><path class="cls-8" d="M51.21,84l-3.67,3.37s5.12.82,7.22.85A5,5,0,0,0,54.41,86" transform="translate(0 0)"/><path class="cls-7" d="M44.22,75c-.14,4.89-.26,11-.05,12.45l2.61.25L45.23,75Z" transform="translate(0 0)"/><path class="cls-8" d="M46.63,75.54c-.14,4.68-.26,10.49-.05,11.9l2.61.24L47.64,75.54Z" transform="translate(0 0)"/><path class="cls-17" d="M111.57,84.85c-2.22-2.29-5.77-4.12-8.21-5.39-1.28,1.47-3.76,3.2-8.37,3.25-4.25,0-7.76-3.25-7.76-3.25-2.45,1.27-6,3.1-8.22,5.39-2.85,2.94-3.37,10.74-3.37,10.74h39.32s-.52-7.8-3.37-10.74" transform="translate(0 0)"/><path class="cls-18" d="M111.57,84.85c-2.22-2.29-5.77-4.12-8.21-5.39-1.28,1.47-3.76,3.2-8.37,3.25-4.25,0-7.76-3.25-7.76-3.25-2.45,1.27-6,3.1-8.22,5.39-2.85,2.94-3.37,10.74-3.37,10.74h39.32S114.43,87.79,111.57,84.85Z" transform="translate(0 0)"/><path class="cls-7" d="M104.79,105.51c.87-7,2.44-10.95,4.82-13.25a29.57,29.57,0,0,1,9.58-5.65l.63,14.39s-1.47,2.17-3.5,4.87Z" transform="translate(0 0)"/><path class="cls-5" d="M145.14,95c-2.22-2.29-5.77-4.12-8.21-5.39-1.28,1.47-3.76,3.2-8.37,3.25-4.25,0-7.76-3.25-7.76-3.25-2.45,1.27-6,3.1-8.22,5.39-2.85,2.94-3.37,10.74-3.37,10.74h39.32S148,97.93,145.14,95" transform="translate(0 0)"/><path class="cls-18" d="M145.14,95c-2.22-2.29-5.77-4.12-8.21-5.39-1.28,1.47-3.76,3.2-8.37,3.25-4.25,0-7.76-3.25-7.76-3.25-2.45,1.27-6,3.1-8.22,5.39-2.85,2.94-3.37,10.74-3.37,10.74h39.32S148,97.93,145.14,95Z" transform="translate(0 0)"/></g></g></g></svg>