<svg xmlns="http://www.w3.org/2000/svg" viewBox="0 0 46.41 42.42"><defs><style>.cls-1{fill:#737577;}</style></defs><title>me-years-in-business  </title><g id="Шар_2" data-name="Шар 2"><g id="Layer_1" data-name="Layer 1"><path class="cls-1" d="M19.53,24.27v-1.8a1.68,1.68,0,0,1,1.68-1.68h4a1.68,1.68,0,0,1,1.68,1.68V24.2l19.53-4.4V14A3.36,3.36,0,0,0,43,10.6H3.36A3.36,3.36,0,0,0,0,14v5.91Z"/><path class="cls-1" d="M26.88,26.79v3.77a1.68,1.68,0,0,1-1.68,1.68h-4a1.68,1.68,0,0,1-1.68-1.68v-3.7L0,22.46v16.6a3.36,3.36,0,0,0,3.36,3.36H43.05a3.36,3.36,0,0,0,3.36-3.36V22.39Z"/><path class="cls-1" d="M33.7,4.72C33.56,3.09,32.14,0,27.83,0H18.17c-4.32,0-5.73,3.09-5.87,4.72V8.09h2.52V4.91c.07-.5.52-2.39,3.36-2.39h9.66c2.85,0,3.3,1.91,3.36,2.38V8.09h2.52V4.72Z"/></g></g></svg>