<svg xmlns="http://www.w3.org/2000/svg" viewBox="0 0 148.82 135"><defs><style>.cls-1{fill:#333e48;}.cls-2{fill:#e9004c;}.cls-3{font-size:15px;fill:#fff;font-family:DINPro-Medium, DINPro;}.cls-4{letter-spacing:0.06em;}.cls-5{letter-spacing:0.06em;}.cls-6{letter-spacing:0.06em;}.cls-7{letter-spacing:0.05em;}.cls-8{letter-spacing:0.06em;}.cls-9{fill:#c31746;}</style></defs><title>mind the gap</title><g id="Шар_2" data-name="Шар 2"><g id="Layer_1" data-name="Layer 1"><rect class="cls-1" y="53" width="148.82" height="26.17"/><path class="cls-2" d="M9.14,83.91a67.48,67.48,0,0,0,130.92,0H115.26a43.83,43.83,0,0,1-81.33,0Z"/><path class="cls-2" d="M139.27,48.19a67.49,67.49,0,0,0-129.34,0h25.3a43.83,43.83,0,0,1,78.74,0Z"/><text class="cls-3" transform="translate(19.19 71.27)"><tspan class="cls-4">MIND </tspan><tspan class="cls-5" x="45.52" y="0">T</tspan><tspan class="cls-4" x="54.81" y="0">H</tspan><tspan class="cls-5" x="66.07" y="0">E</tspan><tspan class="cls-6" x="76" y="0"> </tspan><tspan class="cls-7" x="80.5" y="0">G</tspan><tspan class="cls-8" x="90.99" y="0">A</tspan><tspan x="101.25" y="0">P</tspan></text><path class="cls-9" d="M59.18,108.55,44.62,128a67.48,67.48,0,0,0,95.44-44.07h-24.8a43.77,43.77,0,0,1-56.08,24.65"/><path class="cls-9" d="M10.16,48.19a67.59,67.59,0,0,1,7.29-16.58A67.22,67.22,0,0,0,10,48.19ZM82.64.49a79.74,79.74,0,0,1,25.18,8.27A67,67,0,0,0,82.64.49m41.49,21.18c.18.22.38.43.55.66L110,41.64a43.91,43.91,0,0,1,4,6.55h25.26a67.42,67.42,0,0,0-15.11-26.52"/></g></g></svg>