<svg xmlns="http://www.w3.org/2000/svg" xmlns:xlink="http://www.w3.org/1999/xlink" viewBox="0 0 250.85 212.61"><defs><style>.cls-1,.cls-38,.cls-42{fill:none;}.cls-2{clip-path:url(#clip-path);}.cls-3{clip-path:url(#clip-path-2);}.cls-4{opacity:0.7;}.cls-5{clip-path:url(#clip-path-3);}.cls-6{fill:#e9004c;}.cls-7{clip-path:url(#clip-path-5);}.cls-8{clip-path:url(#clip-path-7);}.cls-9{clip-path:url(#clip-path-9);}.cls-10{clip-path:url(#clip-path-10);}.cls-11{clip-path:url(#clip-path-11);}.cls-12{clip-path:url(#clip-path-13);}.cls-13{clip-path:url(#clip-path-15);}.cls-14{clip-path:url(#clip-path-16);}.cls-15{clip-path:url(#clip-path-17);}.cls-16{clip-path:url(#clip-path-18);}.cls-17{clip-path:url(#clip-path-19);}.cls-18{clip-path:url(#clip-path-20);}.cls-19{clip-path:url(#clip-path-21);}.cls-20{clip-path:url(#clip-path-23);}.cls-21{clip-path:url(#clip-path-24);}.cls-22{clip-path:url(#clip-path-25);}.cls-23{clip-path:url(#clip-path-27);}.cls-24{clip-path:url(#clip-path-29);}.cls-25{clip-path:url(#clip-path-30);}.cls-26{clip-path:url(#clip-path-31);}.cls-27{clip-path:url(#clip-path-33);}.cls-28{clip-path:url(#clip-path-34);}.cls-29{clip-path:url(#clip-path-35);}.cls-30{clip-path:url(#clip-path-36);}.cls-31{clip-path:url(#clip-path-37);}.cls-32{clip-path:url(#clip-path-38);}.cls-33{clip-path:url(#clip-path-39);}.cls-34{clip-path:url(#clip-path-41);}.cls-35{clip-path:url(#clip-path-43);}.cls-36{clip-path:url(#clip-path-44);}.cls-37{fill:#333e48;}.cls-38,.cls-42{stroke:#a1a1a1;stroke-miterlimit:10;}.cls-38{stroke-width:0.31px;}.cls-39{clip-path:url(#clip-path-45);}.cls-40{clip-path:url(#clip-path-47);}.cls-41{clip-path:url(#clip-path-48);}.cls-42{stroke-width:0.4px;}</style><clipPath id="clip-path" transform="translate(-3.86 -2.79)"><rect class="cls-1" width="260.32" height="215.4"/></clipPath><clipPath id="clip-path-2" transform="translate(-3.86 -2.79)"><rect class="cls-1" x="3.86" y="2.79" width="250.85" height="212.61"/></clipPath><clipPath id="clip-path-3" transform="translate(-3.86 -2.79)"><rect class="cls-1" x="34.4" y="86.86" width="19.56" height="19.31"/></clipPath><clipPath id="clip-path-5" transform="translate(-3.86 -2.79)"><rect class="cls-1" x="24.9" y="57.71" width="23.91" height="23.33"/></clipPath><clipPath id="clip-path-7" transform="translate(-3.86 -2.79)"><rect class="cls-1" y="52.08" width="27.24" height="20.95"/></clipPath><clipPath id="clip-path-9" transform="translate(-3.86 -2.79)"><rect class="cls-1" x="23.09" y="35.53" width="26.2" height="17.78"/></clipPath><clipPath id="clip-path-10" transform="translate(-3.86 -2.79)"><rect class="cls-1" x="23.09" y="35.54" width="26.2" height="17.78"/></clipPath><clipPath id="clip-path-11" transform="translate(-3.86 -2.79)"><rect class="cls-1" x="15.82" y="11.74" width="25.7" height="15.92"/></clipPath><clipPath id="clip-path-13" transform="translate(-3.86 -2.79)"><rect class="cls-1" x="66.29" y="37.27" width="23.91" height="23.33"/></clipPath><clipPath id="clip-path-15" transform="translate(-3.86 -2.79)"><rect class="cls-1" x="90.19" y="46.74" width="23.91" height="23.34"/></clipPath><clipPath id="clip-path-16" transform="translate(-3.86 -2.79)"><rect class="cls-1" x="90.19" y="46.74" width="23.91" height="23.33"/></clipPath><clipPath id="clip-path-17" transform="translate(-3.86 -2.79)"><rect class="cls-1" x="117.1" y="75.07" width="20.72" height="20.2"/></clipPath><clipPath id="clip-path-18" transform="translate(-3.86 -2.79)"><rect class="cls-1" x="117.1" y="75.08" width="20.72" height="20.2"/></clipPath><clipPath id="clip-path-19" transform="translate(-3.86 -2.79)"><rect class="cls-1" x="125.83" y="55.74" width="26.17" height="13.56"/></clipPath><clipPath id="clip-path-20" transform="translate(-3.86 -2.79)"><rect class="cls-1" x="125.83" y="55.74" width="26.17" height="13.56"/></clipPath><clipPath id="clip-path-21" transform="translate(-3.86 -2.79)"><rect class="cls-1" x="44.38" y="8.73" width="20.94" height="22.17"/></clipPath><clipPath id="clip-path-23" transform="translate(-3.86 -2.79)"><rect class="cls-1" x="83.06" y="20.44" width="22.91" height="17.88"/></clipPath><clipPath id="clip-path-24" transform="translate(-3.86 -2.79)"><rect class="cls-1" x="83.06" y="20.44" width="22.92" height="17.88"/></clipPath><clipPath id="clip-path-25" transform="translate(-3.86 -2.79)"><rect class="cls-1" x="83.36" y="0.68" width="24.17" height="12.68"/></clipPath><clipPath id="clip-path-27" transform="translate(-3.86 -2.79)"><rect class="cls-1" x="119.99" y="21.56" width="23.9" height="23.33"/></clipPath><clipPath id="clip-path-29" transform="translate(-3.86 -2.79)"><rect class="cls-1" x="154.74" y="70.41" width="26.98" height="16.12"/></clipPath><clipPath id="clip-path-30" transform="translate(-3.86 -2.79)"><rect class="cls-1" x="154.74" y="70.41" width="26.98" height="16.12"/></clipPath><clipPath id="clip-path-31" transform="translate(-3.86 -2.79)"><rect class="cls-1" x="216.63" y="45.51" width="22.22" height="25.87"/></clipPath><clipPath id="clip-path-33" transform="translate(-3.86 -2.79)"><rect class="cls-1" x="240.05" y="84.22" width="20.27" height="21.27"/></clipPath><clipPath id="clip-path-34" transform="translate(-3.86 -2.79)"><rect class="cls-1" x="240.05" y="84.22" width="20.27" height="21.27"/></clipPath><clipPath id="clip-path-35" transform="translate(-3.86 -2.79)"><rect class="cls-1" x="160.71" y="87.88" width="31.63" height="18.56"/></clipPath><clipPath id="clip-path-36" transform="translate(-3.86 -2.79)"><rect class="cls-1" x="160.71" y="87.88" width="31.63" height="18.56"/></clipPath><clipPath id="clip-path-37" transform="translate(-3.86 -2.79)"><rect class="cls-1" x="205.88" y="92.62" width="26.95" height="16.12"/></clipPath><clipPath id="clip-path-38" transform="translate(-3.86 -2.79)"><rect class="cls-1" x="205.88" y="92.62" width="26.95" height="16.12"/></clipPath><clipPath id="clip-path-39" transform="translate(-3.86 -2.79)"><rect class="cls-1" x="194.31" y="64.14" width="19.55" height="19.32"/></clipPath><clipPath id="clip-path-41" transform="translate(-3.86 -2.79)"><rect class="cls-1" x="152.4" y="11.25" width="26.42" height="13.84"/></clipPath><clipPath id="clip-path-43" transform="translate(-3.86 -2.79)"><rect class="cls-1" x="118.08" width="20.04" height="22.2"/></clipPath><clipPath id="clip-path-44" transform="translate(-3.86 -2.79)"><rect class="cls-1" x="118.08" width="20.04" height="22.19"/></clipPath><clipPath id="clip-path-45" transform="translate(-3.86 -2.79)"><rect class="cls-1" x="182.95" y="31.01" width="33.01" height="16.98"/></clipPath><clipPath id="clip-path-47" transform="translate(-3.86 -2.79)"><rect class="cls-1" x="147.91" y="43.21" width="26.93" height="16.12"/></clipPath><clipPath id="clip-path-48" transform="translate(-3.86 -2.79)"><rect class="cls-1" x="147.91" y="43.21" width="26.93" height="16.12"/></clipPath></defs><title>red-guys</title><g id="Шар_2" data-name="Шар 2"><g id="Шар_1-2" data-name="Шар 1"><g class="cls-2"><g class="cls-3"><g class="cls-4"><g class="cls-5"><g class="cls-5"><path class="cls-6" d="M41.69,91.84a5.87,5.87,0,0,1,.83.63A6,6,0,0,1,40,102.65h.09c3.76,0,8.25,2.89,8.25,2.89s0-10.29-6.66-13.7" transform="translate(-3.86 -2.79)"/></g></g></g><g class="cls-4"><g class="cls-7"><g class="cls-7"><path class="cls-6" d="M43.19,62.69C32.68,65.55,30.5,80.41,30.5,80.41S35.88,78,40.71,78a12,12,0,0,1,1.62.1A8.28,8.28,0,0,1,43.2,62.7Z" transform="translate(-3.86 -2.79)"/></g></g></g><g class="cls-4"><g class="cls-8"><g class="cls-8"><path class="cls-6" d="M20.37,62.51s-10.1-2-14.73,3.89a6.07,6.07,0,0,1,.78-.69,6,6,0,0,1,9.51,4.42c.68-3.71,4.44-7.62,4.44-7.62" transform="translate(-3.86 -2.79)"/></g></g></g><g class="cls-4"><g class="cls-9"><g class="cls-10"><path class="cls-6" d="M38.55,45.08a5.07,5.07,0,0,0-8.61-2.31,5,5,0,0,0-.54.68c1.53-2.83,4.52-4.18,7.11-4.83A19.7,19.7,0,0,1,41.14,38s-2.57,3.83-2.6,7" transform="translate(-3.86 -2.79)"/></g></g></g><g class="cls-4"><g class="cls-11"><g class="cls-11"><path class="cls-6" d="M27.25,18.53a9,9,0,0,0-5,2.23,5.11,5.11,0,0,1,.76-.49,5.07,5.07,0,0,1,7.4,5c1.06-3,4.73-5.82,4.73-5.82a18.73,18.73,0,0,0-7.92-.87" transform="translate(-3.86 -2.79)"/></g></g></g><g class="cls-4"><g class="cls-12"><g class="cls-12"><path class="cls-6" d="M71.9,42.26h0a8.28,8.28,0,0,1,.86,15.37,12.07,12.07,0,0,1,1.64-.1c4.82,0,10.2,2.46,10.2,2.46S82.41,45.12,71.9,42.26" transform="translate(-3.86 -2.79)"/></g></g></g><g class="cls-4"><g class="cls-13"><g class="cls-14"><path class="cls-6" d="M95.79,51.72S98,66.59,108.48,69.45h0A8.28,8.28,0,0,1,104.23,57a8.22,8.22,0,0,1,3.39-2.89,12.09,12.09,0,0,1-1.63.1c-4.83,0-10.21-2.46-10.21-2.46" transform="translate(-3.86 -2.79)"/></g></g></g><g class="cls-4"><g class="cls-15"><g class="cls-16"><path class="cls-6" d="M122.7,80.06s.94,11.44,8.67,14.59a6.71,6.71,0,0,1-1-.65,6.62,6.62,0,0,1,1.86-11.5c-.27,0-.55,0-.83,0-4,0-8.68-2.49-8.68-2.49" transform="translate(-3.86 -2.79)"/></g></g></g><g class="cls-4"><g class="cls-17"><g class="cls-18"><path class="cls-6" d="M141.42,60.72a6,6,0,0,1-9.17,5.09,6.2,6.2,0,0,1-.81-.62c2.55,2.8,6.36,3.49,9.49,3.49a23.19,23.19,0,0,0,5.46-.65s-4-3.64-5-7.3" transform="translate(-3.86 -2.79)"/></g></g></g><g class="cls-4"><g class="cls-19"><g class="cls-19"><path class="cls-6" d="M56.56,14.11c-7.18,4.22-6.49,15.66-6.49,15.66S54.94,26.2,59.13,26a6.62,6.62,0,0,1-2.57-11.89" transform="translate(-3.86 -2.79)"/></g></g></g><g class="cls-4"><g class="cls-20"><g class="cls-21"><path class="cls-6" d="M100.36,25.43c-8.23,1.35-11.7,12.27-11.7,12.27a26.06,26.06,0,0,1,6-.78,12.37,12.37,0,0,1,3.82.53,6.62,6.62,0,0,1,.77-11.62,6.67,6.67,0,0,1,1.12-.4" transform="translate(-3.86 -2.79)"/></g></g></g><g class="cls-4"><g class="cls-22"><g class="cls-22"><path class="cls-6" d="M94.21,5.66A9,9,0,0,0,89,7.18a4.94,4.94,0,0,1,.82-.38,5.07,5.07,0,0,1,6.64,5.94c1.47-2.85,5.5-5.11,5.5-5.11a18.72,18.72,0,0,0-7.72-2" transform="translate(-3.86 -2.79)"/></g></g></g><g class="cls-4"><g class="cls-23"><g class="cls-23"><path class="cls-6" d="M138.28,26.54c-10.51,2.86-12.69,17.73-12.69,17.73s5.38-2.46,10.2-2.46a12.29,12.29,0,0,1,1.63.1,8.28,8.28,0,0,1,.86-15.37Z" transform="translate(-3.86 -2.79)"/></g></g></g><g class="cls-4"><g class="cls-24"><g class="cls-25"><path class="cls-6" d="M163.1,75.39a10.36,10.36,0,0,0-2.76.37,6.73,6.73,0,0,1,1.2-.11,6.62,6.62,0,0,1,5.53,10.25c3.07-2.86,9-3.85,9-3.85s-6-6.66-13-6.66" transform="translate(-3.86 -2.79)"/></g></g></g><g class="cls-4"><g class="cls-26"><g class="cls-26"><path class="cls-6" d="M225.12,50.49h0a8.28,8.28,0,0,1,1.12,13.13,8.22,8.22,0,0,1-4,2c5.17.56,10.92,5.14,10.92,5.14s1.47-15-8-20.27" transform="translate(-3.86 -2.79)"/></g></g></g><g class="cls-4"><g class="cls-27"><g class="cls-28"><path class="cls-6" d="M248.3,89.21a6.52,6.52,0,0,1,.86.75,6.62,6.62,0,0,1-3.5,11.11c4.19.22,9,3.81,9,3.81s.74-11.4-6.39-15.66" transform="translate(-3.86 -2.79)"/></g></g></g><g class="cls-4"><g class="cls-29"><g class="cls-30"><path class="cls-6" d="M182.57,92.86c-8.71,0-16.25,8.3-16.25,8.3s7.25,1.2,11.13,4.65a8.28,8.28,0,0,1,9.29-12.27h0a12.88,12.88,0,0,0-4.17-.68" transform="translate(-3.86 -2.79)"/></g></g></g><g class="cls-4"><g class="cls-31"><g class="cls-32"><path class="cls-6" d="M214.21,97.61a10.4,10.4,0,0,0-2.73.36,6.77,6.77,0,0,1,1.17-.1,6.62,6.62,0,0,1,5.53,10.26c3.07-2.86,9-3.85,9-3.85s-6-6.66-13-6.66" transform="translate(-3.86 -2.79)"/></g></g></g><g class="cls-4"><g class="cls-33"><g class="cls-33"><path class="cls-6" d="M201.59,69.12a5.89,5.89,0,0,1,.84.64,6,6,0,0,1-2.51,10.18H200c3.76,0,8.25,2.89,8.25,2.89s0-10.31-6.67-13.71" transform="translate(-3.86 -2.79)"/></g></g></g><g class="cls-4"><g class="cls-34"><g class="cls-34"><path class="cls-6" d="M166.54,16.23A22.39,22.39,0,0,0,158,18.17s4.63,2.86,6.21,6.29a6,6,0,0,1,8.11-6.66,6.16,6.16,0,0,1,.9.46,10.84,10.84,0,0,0-6.68-2" transform="translate(-3.86 -2.79)"/></g></g></g><g class="cls-4"><g class="cls-35"><g class="cls-36"><path class="cls-6" d="M127.77,5c-6.26,5.49-3.45,16.59-3.45,16.59s4.12-4.41,8.19-5.39A6.62,6.62,0,0,1,127.77,5" transform="translate(-3.86 -2.79)"/></g></g></g><path class="cls-37" d="M165.26,154.18c-5.61,2.36-17.43,7-17.43,7s-10,4.27-13.7-5.36-9.64-31.7-14.84-33.16c-2.5-.77-.06,2.37,1.24,4.1s9.56,21,7.89,40.49c-.84,9.84.54,35.38,2.29,47.27h9.93C139.37,197.7,143,165,166.54,156.11c2.19-1,4.34-4.29-1.28-1.92" transform="translate(-3.86 -2.79)"/><path class="cls-38" d="M165.26,154.18c-5.61,2.36-17.43,7-17.43,7s-10,4.27-13.7-5.36-9.64-31.7-14.84-33.16c-2.5-.77-.06,2.37,1.24,4.1s9.56,21,7.89,40.49c-.84,9.84.54,35.38,2.29,47.27h9.93C139.37,197.7,143,165,166.54,156.11,168.72,155.15,170.87,151.81,165.26,154.18Z" transform="translate(-3.86 -2.79)"/><path class="cls-37" d="M141.05,105.85c-7.83,4.25-24.38,12.74-24.38,12.74s-13.93,7.64-20.89-5.52-19.15-43.73-27-45c-3.77-.71.29,3.4,2.46,5.66s17.34,28.51,18,56.53c.44,19.11,8.07,63.52,13.64,81.39h0a37,37,0,0,0,1.22,3.6h15.14s-1.08-1.08-3.37-8.67c-7.24-25.21-11.82-78.8,27.32-98.18,3-1.7,5.66-6.79-2.17-2.55" transform="translate(-3.86 -2.79)"/><path class="cls-38" d="M141.05,105.85c-7.83,4.25-24.38,12.74-24.38,12.74s-13.93,7.64-20.89-5.52-19.15-43.73-27-45c-3.77-.71.29,3.4,2.46,5.66s17.34,28.51,18,56.53c.44,19.11,8.07,63.52,13.64,81.39h0a37,37,0,0,0,1.22,3.6h15.14s-1.08-1.08-3.37-8.67c-7.24-25.21-11.82-78.8,27.32-98.18C146.28,106.7,148.89,101.61,141.05,105.85Z" transform="translate(-3.86 -2.79)"/><path class="cls-37" d="M74,214.61H85.05c0-1.11,0-7.44,0-7.44v-1.92c.23-14.92-.72-41.28-4.94-56.89-5.93-22-.44-45.81.69-48.06s3.28-6.35.58-5c-5.66,2.75-7.9,29.28-10.17,41.08s-14.6,9-14.6,9-14.51-2.91-21.44-4.46-3.77,1.83-1.07,2.47C71,150.25,74.71,194.76,74,214.61" transform="translate(-3.86 -2.79)"/><path class="cls-38" d="M74,214.61H85.05c0-1.11,0-7.44,0-7.44v-1.92c.23-14.92-.72-41.28-4.94-56.89-5.93-22-.44-45.81.69-48.06s3.28-6.35.58-5c-5.66,2.75-7.9,29.28-10.17,41.08s-14.6,9-14.6,9-14.51-2.91-21.44-4.46-3.77,1.83-1.07,2.47C71,150.25,74.71,194.76,74,214.61Z" transform="translate(-3.86 -2.79)"/><path class="cls-6" d="M186.73,93.56h0l-.18,0c-.24-.06-.49-.11-.73-.15l-.29,0a8.18,8.18,0,0,0-1-.07,8.27,8.27,0,0,0-8.27,8.27,8.5,8.5,0,0,0,.07,1c0,.1,0,.19,0,.29,0,.26.1.52.16.77,0,.08,0,.16.06.24a8.1,8.1,0,0,0,.34.93l.08.17a7.79,7.79,0,0,0,.38.72l.07.13,0,0a8.27,8.27,0,1,0,9.27-12.29" transform="translate(-3.86 -2.79)"/><path class="cls-38" d="M186.73,93.56h0l-.18,0c-.24-.06-.49-.11-.73-.15l-.29,0a8.18,8.18,0,0,0-1-.07,8.27,8.27,0,0,0-8.27,8.27,8.5,8.5,0,0,0,.07,1c0,.1,0,.19,0,.29,0,.26.1.52.16.77,0,.08,0,.16.06.24a8.1,8.1,0,0,0,.34.93l.08.17a7.79,7.79,0,0,0,.38.72l.07.13,0,0a8.27,8.27,0,1,0,9.27-12.29Z" transform="translate(-3.86 -2.79)"/><path class="cls-6" d="M168.17,82.27a6.62,6.62,0,0,0-6.62-6.62,6.55,6.55,0,0,0-1.11.1h-.13a6.61,6.61,0,1,0,6.76,10.14h0l.05-.09a6.68,6.68,0,0,0,.35-.62l.09-.2a6.35,6.35,0,0,0,.3-.78l0-.07a7,7,0,0,0,.17-.77c0-.07,0-.15,0-.22a6.56,6.56,0,0,0,.07-.88" transform="translate(-3.86 -2.79)"/><path class="cls-38" d="M168.17,82.27a6.62,6.62,0,0,0-6.62-6.62,6.55,6.55,0,0,0-1.11.1h-.13a6.61,6.61,0,1,0,6.76,10.14h0l.05-.09a6.68,6.68,0,0,0,.35-.62l.09-.2a6.35,6.35,0,0,0,.3-.78l0-.07a7,7,0,0,0,.17-.77c0-.07,0-.15,0-.22A6.56,6.56,0,0,0,168.17,82.27Z" transform="translate(-3.86 -2.79)"/><path class="cls-6" d="M219.28,104.48A6.58,6.58,0,0,0,211.59,98h-.15a6.61,6.61,0,1,0,6.74,10.15h0l0-.07a6.47,6.47,0,0,0,.36-.64l.09-.19a6.17,6.17,0,0,0,.3-.78l0-.08a6.46,6.46,0,0,0,.17-.77c0-.07,0-.15,0-.22a6.74,6.74,0,0,0,.07-.88" transform="translate(-3.86 -2.79)"/><path class="cls-38" d="M219.28,104.48A6.58,6.58,0,0,0,211.59,98h-.15a6.61,6.61,0,1,0,6.74,10.15h0l0-.07a6.47,6.47,0,0,0,.36-.64l.09-.19a6.17,6.17,0,0,0,.3-.78l0-.08a6.46,6.46,0,0,0,.17-.77c0-.07,0-.15,0-.22A6.74,6.74,0,0,0,219.28,104.48Z" transform="translate(-3.86 -2.79)"/><path class="cls-6" d="M226.23,63.63a8.27,8.27,0,1,1,.6-11.68,8.27,8.27,0,0,1-.6,11.68" transform="translate(-3.86 -2.79)"/><path class="cls-38" d="M226.23,63.63a8.27,8.27,0,1,1,.6-11.68,8.27,8.27,0,0,1-.6,11.68" transform="translate(-3.86 -2.79)"/><path class="cls-6" d="M194,70.17a6,6,0,1,0,8.42-.41,6,6,0,0,0-8.42.41" transform="translate(-3.86 -2.79)"/><path class="cls-38" d="M194,70.17a6,6,0,1,0,8.42-.41,6,6,0,0,0-8.42.41" transform="translate(-3.86 -2.79)"/><g class="cls-4"><g class="cls-39"><g class="cls-39"><path class="cls-6" d="M197.64,36a14.39,14.39,0,0,0-9.09,2.89h0a8.28,8.28,0,0,1,12.84,8.48c2.52-4.55,9-8.09,9-8.09A30.5,30.5,0,0,0,197.64,36" transform="translate(-3.86 -2.79)"/></g></g></g><path class="cls-6" d="M201.43,44.21c0-.1,0-.19-.06-.29a8.48,8.48,0,0,0-.28-1,8,8,0,0,0-.48-1.09l-.12-.22a8,8,0,0,0-.62-.95l-.1-.13a8.4,8.4,0,0,0-.68-.75l-.15-.15a8.39,8.39,0,0,0-.85-.69l-.19-.13a8.75,8.75,0,0,0-.87-.52l-.11-.06a8.77,8.77,0,0,0-1-.41l-.24-.08a8.67,8.67,0,0,0-1.08-.25h-.07a8.17,8.17,0,0,0-1.06-.08h-.61l-.49,0-.28,0-.52.1-.24.05c-.25.06-.51.14-.76.22a8.52,8.52,0,0,0-.94.41l-.26.14c-.22.12-.44.25-.65.39l-.15.09h0a8.27,8.27,0,1,0,12.82,8.51l0,0s0-.1,0-.14c.05-.27.09-.54.12-.82,0-.06,0-.12,0-.18a8,8,0,0,0,0-1c0-.09,0-.17,0-.26,0-.26-.06-.52-.1-.78" transform="translate(-3.86 -2.79)"/><path class="cls-38" d="M201.43,44.21c0-.1,0-.19-.06-.29a8.48,8.48,0,0,0-.28-1,8,8,0,0,0-.48-1.09l-.12-.22a8,8,0,0,0-.62-.95l-.1-.13a8.4,8.4,0,0,0-.68-.75l-.15-.15a8.39,8.39,0,0,0-.85-.69l-.19-.13a8.75,8.75,0,0,0-.87-.52l-.11-.06a8.77,8.77,0,0,0-1-.41l-.24-.08a8.67,8.67,0,0,0-1.08-.25h-.07a8.17,8.17,0,0,0-1.06-.08h-.61l-.49,0-.28,0-.52.1-.24.05c-.25.06-.51.14-.76.22a8.52,8.52,0,0,0-.94.41l-.26.14c-.22.12-.44.25-.65.39l-.15.09h0a8.27,8.27,0,1,0,12.82,8.51l0,0s0-.1,0-.14c.05-.27.09-.54.12-.82,0-.06,0-.12,0-.18a8,8,0,0,0,0-1c0-.09,0-.17,0-.26C201.52,44.73,201.48,44.47,201.43,44.21Z" transform="translate(-3.86 -2.79)"/><path class="cls-6" d="M175.57,25.57a6,6,0,1,1-3.25-7.77,6,6,0,0,1,3.25,7.77" transform="translate(-3.86 -2.79)"/><path class="cls-38" d="M175.57,25.57a6,6,0,1,1-3.25-7.77,6,6,0,0,1,3.25,7.77" transform="translate(-3.86 -2.79)"/><g class="cls-4"><g class="cls-40"><g class="cls-41"><path class="cls-6" d="M166.52,48.19c-7,0-13,6.66-13,6.66s6,1,9,3.85a6.62,6.62,0,0,1,5.53-10.26,6.7,6.7,0,0,1,1.16.1,10.35,10.35,0,0,0-2.71-.36" transform="translate(-3.86 -2.79)"/></g></g></g><path class="cls-6" d="M169.28,48.56h-.15a6.57,6.57,0,0,0-7.61,7.4c0,.08,0,.15,0,.22a6.3,6.3,0,0,0,.17.77l0,.07a6.56,6.56,0,0,0,.3.78l.09.19c.11.22.22.42.35.63l.05.09h0a6.62,6.62,0,1,0,6.72-10.15" transform="translate(-3.86 -2.79)"/><path class="cls-38" d="M169.28,48.56h-.15a6.57,6.57,0,0,0-7.61,7.4c0,.08,0,.15,0,.22a6.3,6.3,0,0,0,.17.77l0,.07a6.56,6.56,0,0,0,.3.78l.09.19c.11.22.22.42.35.63l.05.09h0a6.62,6.62,0,1,0,6.72-10.15Z" transform="translate(-3.86 -2.79)"/><path class="cls-6" d="M147.75,29.78a8.27,8.27,0,0,0-9.46-3.23h0l-.16.07c-.24.08-.47.18-.7.28l-.27.13a8.13,8.13,0,0,0-.88.51A8.27,8.27,0,0,0,134,39a8.11,8.11,0,0,0,.64.82l.2.22c.18.19.37.37.56.55l.19.17a7.87,7.87,0,0,0,.8.59l.16.1c.23.14.47.27.71.39l.13.07h0a8.27,8.27,0,0,0,10.29-12.14" transform="translate(-3.86 -2.79)"/><path class="cls-38" d="M147.75,29.78a8.27,8.27,0,0,0-9.46-3.23h0l-.16.07c-.24.08-.47.18-.7.28l-.27.13a8.13,8.13,0,0,0-.88.51A8.27,8.27,0,0,0,134,39a8.11,8.11,0,0,0,.64.82l.2.22c.18.19.37.37.56.55l.19.17a7.87,7.87,0,0,0,.8.59l.16.1c.23.14.47.27.71.39l.13.07h0a8.27,8.27,0,0,0,10.29-12.14Z" transform="translate(-3.86 -2.79)"/><path class="cls-6" d="M141.42,60.7a6,6,0,1,0-10,4.42l.05.06a6,6,0,0,0,.81.62,5.83,5.83,0,0,0,1,.49l.28.1a5.88,5.88,0,0,0,.8.22l.24.05a6,6,0,0,0,.93.08h.27a5.88,5.88,0,0,0,.88-.11l.19,0a6,6,0,0,0,.94-.31l.2-.09a5.9,5.9,0,0,0,.8-.44l.11-.07a6,6,0,0,0,.79-.66l.16-.17A5.43,5.43,0,0,0,141,63l.1-.29a5.8,5.8,0,0,0,.21-.77c0-.09,0-.18.06-.27a5.8,5.8,0,0,0,.08-1v0" transform="translate(-3.86 -2.79)"/><path class="cls-38" d="M141.42,60.7a6,6,0,1,0-10,4.42l.05.06a6,6,0,0,0,.81.62,5.83,5.83,0,0,0,1,.49l.28.1a5.88,5.88,0,0,0,.8.22l.24.05a6,6,0,0,0,.93.08h.27a5.88,5.88,0,0,0,.88-.11l.19,0a6,6,0,0,0,.94-.31l.2-.09a5.9,5.9,0,0,0,.8-.44l.11-.07a6,6,0,0,0,.79-.66l.16-.17A5.43,5.43,0,0,0,141,63l.1-.29a5.8,5.8,0,0,0,.21-.77c0-.09,0-.18.06-.27a5.8,5.8,0,0,0,.08-1Z" transform="translate(-3.86 -2.79)"/><path class="cls-6" d="M138.41,83.51a6.61,6.61,0,0,0-6.19-1h0l-.09,0a6.8,6.8,0,0,0-.66.28l-.2.1a6.37,6.37,0,0,0-.71.44l-.07.06a6.59,6.59,0,0,0-.59.49l-.17.16a6.57,6.57,0,0,0,.63,9.93,6.52,6.52,0,0,0,.94.6l.08.05h0a6.62,6.62,0,0,0,7-11.16" transform="translate(-3.86 -2.79)"/><path class="cls-38" d="M138.41,83.51a6.61,6.61,0,0,0-6.19-1h0l-.09,0a6.8,6.8,0,0,0-.66.28l-.2.1a6.37,6.37,0,0,0-.71.44l-.07.06a6.59,6.59,0,0,0-.59.49l-.17.16a6.57,6.57,0,0,0,.63,9.93,6.52,6.52,0,0,0,.94.6l.08.05h0a6.62,6.62,0,0,0,7-11.16Z" transform="translate(-3.86 -2.79)"/><path class="cls-6" d="M115.71,54.72a8.26,8.26,0,0,0-8-.66h0l-.13.07c-.24.12-.48.25-.71.39l-.16.1a8.14,8.14,0,0,0-.8.59l-.19.17c-.2.17-.38.36-.57.55l-.2.22A8.23,8.23,0,0,0,107.36,69l.26.13c.23.1.46.2.69.28l.17.07h0a8.27,8.27,0,0,0,7.22-14.71" transform="translate(-3.86 -2.79)"/><path class="cls-38" d="M115.71,54.72a8.26,8.26,0,0,0-8-.66h0l-.13.07c-.24.12-.48.25-.71.39l-.16.1a8.14,8.14,0,0,0-.8.59l-.19.17c-.2.17-.38.36-.57.55l-.2.22A8.23,8.23,0,0,0,107.36,69l.26.13c.23.1.46.2.69.28l.17.07h0a8.27,8.27,0,0,0,7.22-14.71Z" transform="translate(-3.86 -2.79)"/><path class="cls-6" d="M108,29.09a6.62,6.62,0,0,0-7.61-3.67h0l-.09,0a6.91,6.91,0,0,0-1,.36A6.62,6.62,0,0,0,96,34.59a6.79,6.79,0,0,0,.42.77l.12.19a6.47,6.47,0,0,0,.47.62l.05.06a6.65,6.65,0,0,0,.6.59l.16.14a6.61,6.61,0,0,0,.58.43l.08.06h0A6.62,6.62,0,0,0,108,29.09" transform="translate(-3.86 -2.79)"/><path class="cls-38" d="M108,29.09a6.62,6.62,0,0,0-7.61-3.67h0l-.09,0a6.91,6.91,0,0,0-1,.36A6.62,6.62,0,0,0,96,34.59a6.79,6.79,0,0,0,.42.77l.12.19a6.47,6.47,0,0,0,.47.62l.05.06a6.65,6.65,0,0,0,.6.59l.16.14a6.61,6.61,0,0,0,.58.43l.08.06h0A6.62,6.62,0,0,0,108,29.09Z" transform="translate(-3.86 -2.79)"/><path class="cls-6" d="M136.21,4A6.62,6.62,0,0,0,127.8,5l0,0-.06.08a6.58,6.58,0,0,0,1.19,10,6.5,6.5,0,0,0,.77.43l.21.1a6.43,6.43,0,0,0,.72.28l.08,0a6.83,6.83,0,0,0,.82.18l.22,0a6.16,6.16,0,0,0,.7.05h.12A6.62,6.62,0,0,0,136.21,4" transform="translate(-3.86 -2.79)"/><path class="cls-38" d="M136.21,4A6.62,6.62,0,0,0,127.8,5l0,0-.06.08a6.58,6.58,0,0,0,1.19,10,6.5,6.5,0,0,0,.77.43l.21.1a6.43,6.43,0,0,0,.72.28l.08,0a6.83,6.83,0,0,0,.82.18l.22,0a6.16,6.16,0,0,0,.7.05h.12A6.62,6.62,0,0,0,136.21,4Z" transform="translate(-3.86 -2.79)"/><path class="cls-6" d="M42.52,92.48a6,6,0,0,0-.83-.63l-.07,0A6,6,0,1,0,40,102.66h0a5.88,5.88,0,0,0,.93-.33l.24-.12a5.74,5.74,0,0,0,.69-.41l.25-.17a5.91,5.91,0,0,0,.4-9.14" transform="translate(-3.86 -2.79)"/><path class="cls-38" d="M42.52,92.48a6,6,0,0,0-.83-.63l-.07,0A6,6,0,1,0,40,102.66h0a5.88,5.88,0,0,0,.93-.33l.24-.12a5.74,5.74,0,0,0,.69-.41l.25-.17a5.91,5.91,0,0,0,.4-9.14Z" transform="translate(-3.86 -2.79)"/><path class="cls-6" d="M5.2,74a6,6,0,1,0,1.22-8.34A6,6,0,0,0,5.2,74" transform="translate(-3.86 -2.79)"/><path class="cls-38" d="M5.2,74a6,6,0,1,0,1.22-8.34A6,6,0,0,0,5.2,74" transform="translate(-3.86 -2.79)"/><path class="cls-6" d="M65,14.77a6.62,6.62,0,0,0-8.4-.69l-.06,0a6.49,6.49,0,0,0-.89.76,6.57,6.57,0,0,0,1,10.11l.29.18a6.46,6.46,0,0,0,.79.4l.29.12a6.53,6.53,0,0,0,1.05.3h0A6.62,6.62,0,0,0,65,14.77" transform="translate(-3.86 -2.79)"/><path class="cls-38" d="M65,14.77a6.62,6.62,0,0,0-8.4-.69l-.06,0a6.49,6.49,0,0,0-.89.76,6.57,6.57,0,0,0,1,10.11l.29.18a6.46,6.46,0,0,0,.79.4l.29.12a6.53,6.53,0,0,0,1.05.3h0A6.62,6.62,0,0,0,65,14.77Z" transform="translate(-3.86 -2.79)"/><path class="cls-6" d="M52.66,65.93A8.27,8.27,0,0,0,43.2,62.7h0l-.17.07c-.23.08-.47.18-.7.28l-.26.13A8.23,8.23,0,0,0,39.58,76l.2.22c.18.19.37.37.56.54l.19.17a8.29,8.29,0,0,0,.8.59l.17.1c.23.14.47.27.71.38l.13.07h0a8.27,8.27,0,0,0,10.3-12.14" transform="translate(-3.86 -2.79)"/><path class="cls-38" d="M52.66,65.93A8.27,8.27,0,0,0,43.2,62.7h0l-.17.07c-.23.08-.47.18-.7.28l-.26.13A8.23,8.23,0,0,0,39.58,76l.2.22c.18.19.37.37.56.54l.19.17a8.29,8.29,0,0,0,.8.59l.17.1c.23.14.47.27.71.38l.13.07h0a8.27,8.27,0,0,0,10.3-12.14Z" transform="translate(-3.86 -2.79)"/><path class="cls-6" d="M249.16,90a6.66,6.66,0,0,0-.86-.74l-.08,0a6.61,6.61,0,1,0-2.59,11.9h0a6.44,6.44,0,0,0,1-.3l.28-.12a6.4,6.4,0,0,0,.79-.4l.29-.18A6.57,6.57,0,0,0,249.16,90" transform="translate(-3.86 -2.79)"/><path class="cls-38" d="M249.16,90a6.66,6.66,0,0,0-.86-.74l-.08,0a6.61,6.61,0,1,0-2.59,11.9h0a6.44,6.44,0,0,0,1-.3l.28-.12a6.4,6.4,0,0,0,.79-.4l.29-.18A6.57,6.57,0,0,0,249.16,90Z" transform="translate(-3.86 -2.79)"/><path class="cls-6" d="M30.14,49.93a5.06,5.06,0,1,0-.21-7.16,5.07,5.07,0,0,0,.21,7.16" transform="translate(-3.86 -2.79)"/><path class="cls-38" d="M30.14,49.93a5.06,5.06,0,1,0-.21-7.16,5.07,5.07,0,0,0,.21,7.16" transform="translate(-3.86 -2.79)"/><path class="cls-6" d="M96.52,11c0-.09,0-.17,0-.26A4.65,4.65,0,0,0,95.86,9l-.15-.23a4.91,4.91,0,0,0-.39-.51L95.12,8a5.24,5.24,0,0,0-.49-.44l-.18-.15A5.12,5.12,0,0,0,93.69,7l-.16-.06a5.08,5.08,0,0,0-.67-.24l-.28-.06A4.78,4.78,0,0,0,92,6.53l-.29,0H91.5c-.16,0-.32,0-.48,0l-.3,0A5,5,0,0,0,89,7.18l0,0a5.06,5.06,0,1,0,7.5,5.55v0a4.86,4.86,0,0,0,.12-.83c0-.08,0-.16,0-.24a5,5,0,0,0,0-.68" transform="translate(-3.86 -2.79)"/><path class="cls-38" d="M96.52,11c0-.09,0-.17,0-.26A4.65,4.65,0,0,0,95.86,9l-.15-.23a4.91,4.91,0,0,0-.39-.51L95.12,8a5.24,5.24,0,0,0-.49-.44l-.18-.15A5.12,5.12,0,0,0,93.69,7l-.16-.06a5.08,5.08,0,0,0-.67-.24l-.28-.06A4.78,4.78,0,0,0,92,6.53l-.29,0H91.5c-.16,0-.32,0-.48,0l-.3,0A5,5,0,0,0,89,7.18l0,0a5.06,5.06,0,1,0,7.5,5.55v0a4.86,4.86,0,0,0,.12-.83c0-.08,0-.16,0-.24A5,5,0,0,0,96.52,11Z" transform="translate(-3.86 -2.79)"/><path class="cls-6" d="M73.91,43.25a8.89,8.89,0,0,0-.89-.51l-.27-.12c-.23-.1-.46-.2-.7-.28l-.16-.07h0a8.27,8.27,0,1,0,.83,15.37h0l.13-.07a7.87,7.87,0,0,0,.71-.39l.16-.09a8.34,8.34,0,0,0,.8-.59l.19-.17a7.73,7.73,0,0,0,.57-.55l.2-.22a8.22,8.22,0,0,0-1.61-12.3" transform="translate(-3.86 -2.79)"/><path class="cls-38" d="M73.91,43.25a8.89,8.89,0,0,0-.89-.51l-.27-.12c-.23-.1-.46-.2-.7-.28l-.16-.07h0a8.27,8.27,0,1,0,.83,15.37h0l.13-.07a7.87,7.87,0,0,0,.71-.39l.16-.09a8.34,8.34,0,0,0,.8-.59l.19-.17a7.73,7.73,0,0,0,.57-.55l.2-.22a8.22,8.22,0,0,0-1.61-12.3Z" transform="translate(-3.86 -2.79)"/><path class="cls-6" d="M30.29,23.49c0-.08,0-.17-.07-.25a5.14,5.14,0,0,0-.35-.85,5,5,0,0,0-.52-.78l-.19-.21a5.08,5.08,0,0,0-.45-.45l-.23-.19a5.1,5.1,0,0,0-.55-.37l-.2-.12a4.9,4.9,0,0,0-.81-.34l-.16,0a5,5,0,0,0-.7-.15l-.29,0a5,5,0,0,0-.63,0l-.29,0h-.16c-.16,0-.31.07-.47.11l-.3.07a4.93,4.93,0,0,0-1.65.85l0,0a5.06,5.06,0,1,0,8.2,4.45v0a4.94,4.94,0,0,0,0-.83c0-.08,0-.16,0-.24a4.83,4.83,0,0,0-.13-.67" transform="translate(-3.86 -2.79)"/><path class="cls-38" d="M30.29,23.49c0-.08,0-.17-.07-.25a5.14,5.14,0,0,0-.35-.85,5,5,0,0,0-.52-.78l-.19-.21a5.08,5.08,0,0,0-.45-.45l-.23-.19a5.1,5.1,0,0,0-.55-.37l-.2-.12a4.9,4.9,0,0,0-.81-.34l-.16,0a5,5,0,0,0-.7-.15l-.29,0a5,5,0,0,0-.63,0l-.29,0h-.16c-.16,0-.31.07-.47.11l-.3.07a4.93,4.93,0,0,0-1.65.85l0,0a5.06,5.06,0,1,0,8.2,4.45v0a4.94,4.94,0,0,0,0-.83c0-.08,0-.16,0-.24A4.83,4.83,0,0,0,30.29,23.49Z" transform="translate(-3.86 -2.79)"/><path class="cls-37" d="M115.17,94.89A10.69,10.69,0,0,0,104.76,94h-.05l-.17.09a10.41,10.41,0,0,0-.92.5l-.21.12a10.85,10.85,0,0,0-1,.76l-.24.22c-.25.22-.5.46-.73.71l-.26.28a10.66,10.66,0,0,0,3.23,16.59l.34.16q.44.21.9.37l.22.09h0a10.7,10.7,0,0,0,9.34-19" transform="translate(-3.86 -2.79)"/><path class="cls-42" d="M115.17,94.89A10.69,10.69,0,0,0,104.76,94h-.05l-.17.09a10.41,10.41,0,0,0-.92.5l-.21.12a10.85,10.85,0,0,0-1,.76l-.24.22c-.25.22-.5.46-.73.71l-.26.28a10.66,10.66,0,0,0,3.23,16.59l.34.16q.44.21.9.37l.22.09h0a10.7,10.7,0,0,0,9.34-19Z" transform="translate(-3.86 -2.79)"/><path class="cls-37" d="M149.75,141.22a8.89,8.89,0,0,0-.89-.51l-.27-.13c-.23-.1-.46-.2-.7-.28l-.17-.07h0a8.27,8.27,0,1,0,.83,15.37h0l.13-.07a8,8,0,0,0,.71-.39l.16-.1a8.08,8.08,0,0,0,.8-.59l.19-.17c.2-.17.39-.35.57-.55l.2-.22a8.37,8.37,0,0,0,.64-.82,8.28,8.28,0,0,0-2.25-11.48" transform="translate(-3.86 -2.79)"/><path class="cls-38" d="M149.75,141.22a8.89,8.89,0,0,0-.89-.51l-.27-.13c-.23-.1-.46-.2-.7-.28l-.17-.07h0a8.27,8.27,0,1,0,.83,15.37h0l.13-.07a8,8,0,0,0,.71-.39l.16-.1a8.08,8.08,0,0,0,.8-.59l.19-.17c.2-.17.39-.35.57-.55l.2-.22a8.37,8.37,0,0,0,.64-.82A8.28,8.28,0,0,0,149.75,141.22Z" transform="translate(-3.86 -2.79)"/><path class="cls-37" d="M63.57,125a8.88,8.88,0,0,0-.89-.51l-.27-.12c-.23-.11-.46-.2-.7-.29l-.16-.07h0a8.27,8.27,0,1,0,.83,15.37h0l.13-.07a8,8,0,0,0,.72-.39l.16-.09a8.5,8.5,0,0,0,.8-.59l.19-.17q.3-.26.57-.55l.2-.22A8.22,8.22,0,0,0,63.57,125" transform="translate(-3.86 -2.79)"/><path class="cls-38" d="M63.57,125a8.88,8.88,0,0,0-.89-.51l-.27-.12c-.23-.11-.46-.2-.7-.29l-.16-.07h0a8.27,8.27,0,1,0,.83,15.37h0l.13-.07a8,8,0,0,0,.72-.39l.16-.09a8.5,8.5,0,0,0,.8-.59l.19-.17q.3-.26.57-.55l.2-.22A8.22,8.22,0,0,0,63.57,125Z" transform="translate(-3.86 -2.79)"/></g></g></g></g></svg>