<svg xmlns="http://www.w3.org/2000/svg" viewBox="0 0 78.2 82.18"><defs><style>.cls-1{fill:#e50a4d;}.cls-2{fill:#010101;}.cls-3{fill:#fdd672;}.cls-4{fill:#1d1d1b;}.cls-5{fill:#999ea7;}</style></defs><title>talent-logo-info</title><g id="Шар_2" data-name="Шар 2"><g id="Layer_1" data-name="Layer 1"><path class="cls-1" d="M77.7,76.33a67.6,67.6,0,0,0-2-10.25c-1-3.74-2.51-7.53-4.74-9.83-5.62-5.8-15.59-10.11-19.68-12.48C48.64,46,46.45,49.48,39.47,49.7H38.29c-7-.22-9.17-3.68-11.81-5.93-2.18,1.27-6,3.09-10,5.39a44.23,44.23,0,0,0-9.64,7C1.47,61.68.5,76.32.5,76.32H77.7Z"/><path class="cls-2" d="M77.7,76.83H.5a.5.5,0,0,1-.5-.53c0-.61,1-14.89,6.47-20.47a44,44,0,0,1,9.75-7.09c2.28-1.32,4.48-2.46,6.42-3.47,1.43-.74,2.66-1.38,3.59-1.92a.5.5,0,0,1,.58.05c.46.39.91.82,1.37,1.27,2.13,2,4.54,4.37,10.13,4.54h1.14c5.6-.18,8-2.5,10.13-4.54.46-.44.91-.87,1.37-1.27a.5.5,0,0,1,.58-.05c.93.54,2.17,1.18,3.6,1.92,5,2.58,11.8,6.12,16.19,10.64,2,2,3.62,5.42,4.86,10a68.53,68.53,0,0,1,2,10.34.5.5,0,0,1-.5.54Zm-69.76-1H77.15a69.83,69.83,0,0,0-1.94-9.62c-1.2-4.46-2.75-7.7-4.61-9.61-4.27-4.41-11-7.9-15.93-10.45-1.29-.67-2.42-1.26-3.33-1.77-.35.32-.7.65-1.06,1C48,47.55,45.46,50,39.48,50.2H38.27c-6-.19-8.53-2.65-10.79-4.82-.36-.34-.71-.68-1.06-1-.9.51-2,1.1-3.32,1.76-1.93,1-4.12,2.14-6.38,3.45a43,43,0,0,0-9.53,6.92C2.59,61.25,1.28,73.16,1,75.82h6.9Z"/><path class="cls-3" d="M39.1,42.11a13.5,13.5,0,0,0,12.49-9.66c2.5-10.48,2.5-13.62,2.5-17.29S52.59,1,39.1.5c-13.49.52-15,11-15,14.67s0,6.81,2.5,17.29A13.51,13.51,0,0,0,39.1,42.11Z"/><path class="cls-4" d="M39.1,42.6h0c-.2,0-9.92-.14-13-10C23.61,22,23.61,18.85,23.61,15.16c0-2.43.75-14.59,15.47-15.16,14.76.57,15.5,12.73,15.5,15.16,0,3.68,0,6.87-2.51,17.4-3.06,9.9-12.77,10-13,10ZM39.08,1C36.7,1.09,24.6,2.21,24.6,15.16c0,3.62,0,6.75,2.49,17.17,2.84,9.18,11.9,9.28,12,9.28h0a12.89,12.89,0,0,0,12-9.31c2.48-10.39,2.48-13.52,2.48-17.14C53.59,2.21,41.51,1.09,39.08,1Z"/><path class="cls-3" d="M24.26,19.69,23.82,8.82A15.36,15.36,0,0,1,37.27.63L39.06.5c3.11.07,11.73,1.3,15,2.91,0,1.72-.25,3.68-.25,5.89,0,3.69.25,6.17.25,6.17"/><path class="cls-4" d="M24.26,20.19a.5.5,0,0,1-.5-.48L23.32,8.84a.51.51,0,0,1,0-.23A16,16,0,0,1,37.26.13L39,0c3,.07,11.8,1.26,15.29,3a.5.5,0,0,1,.28.45c0,.8-.06,1.64-.11,2.53-.07,1.07-.13,2.17-.13,3.36,0,3.62.24,6.09.24,6.12a.5.5,0,0,1-.45.55.48.48,0,0,1-.55-.45S53.35,13,53.35,9.3c0-1.22.07-2.34.14-3.43,0-.75.09-1.47.11-2.15C50.26,2.26,42.18,1.08,39,1l-1.74.13a15,15,0,0,0-13,7.79l.44,10.75a.5.5,0,0,1-.48.52Z"/><path class="cls-2" d="M47.9,55.34a.5.5,0,0,1-.41-.22,31.1,31.1,0,0,0-8.17-8.46.5.5,0,0,1,.16-.91c2.81-.62,8-5.71,8.08-5.76a.5.5,0,0,1,.58-.09C52.24,42,52.39,45,51.8,47.14a41.89,41.89,0,0,1-3.46,7.95.5.5,0,0,1-.42.26Z"/><path class="cls-1" d="M40.7,46.39a33.54,33.54,0,0,1,7.15,7.5,40.11,40.11,0,0,0,3-7c.69-2.46-.27-4.45-2.85-5.9C47,41.92,43.4,45.22,40.7,46.39Z"/><path class="cls-2" d="M30.27,55.34a.5.5,0,0,1-.42-.26,41.89,41.89,0,0,1-3.46-7.95C25.81,45,26,42,30.06,39.91a.5.5,0,0,1,.58.09c.05.05,5.26,5.14,8.08,5.76a.5.5,0,0,1,.16.91,31.1,31.1,0,0,0-8.17,8.46.5.5,0,0,1-.41.22Z"/><path class="cls-1" d="M30.21,41c-2.58,1.46-3.54,3.44-2.85,5.9a40.11,40.11,0,0,0,3,7,33.54,33.54,0,0,1,7.15-7.5C34.79,45.22,31.22,41.92,30.21,41Z"/><path class="cls-5" d="M42.5,45.86c1,.94-.23,4.12-1,5.89a12.63,12.63,0,0,0-4.74.07c-.79-1.76-2-5-1.05-6A7.1,7.1,0,0,1,42.5,45.86ZM39.22,81.41l-5.95-6.94,4-19.41A11.31,11.31,0,0,1,40.93,55l.05.54,3.95,18.92Z"/><path class="cls-4" d="M39.22,82.18l-6.49-7.57,4.11-20,.33-.06A11.84,11.84,0,0,1,41,54.52l.39.06.09.93,4,19.1ZM33.8,74.33l5.4,6.31,5.19-6.3L40.48,55.45a10.7,10.7,0,0,0-2.8,0Zm2.64-22L36.29,52c-1.53-3.44-1.85-5.63-.95-6.51l.08-.06a7.55,7.55,0,0,1,7.31,0l.12.08C44,46.62,43,49.63,41.93,52l-.16.35-.38-.07a12,12,0,0,0-4.55.06ZM36,46.25c-.35.43-.27,2,1,5a13,13,0,0,1,4.14-.06c1.22-2.78,1.4-4.46,1-4.93A6.65,6.65,0,0,0,36,46.25Z"/></g></g></svg>