<svg xmlns="http://www.w3.org/2000/svg" xmlns:xlink="http://www.w3.org/1999/xlink" viewBox="0 0 53 53"><defs><style>.cls-1{fill:#fff;}.cls-2{mask:url(#mask);}.cls-3{fill:#f58c7c;}.cls-4{fill:none;stroke:#7dc8d2;stroke-width:3px;}</style><mask id="mask" x="13.84" y="12" width="25.66" height="25" maskUnits="userSpaceOnUse"><g id="mask-2"><polygon id="path-1" class="cls-1" points="39.5 37 39.5 12 13.84 12 13.84 37 39.5 37"/></g></mask></defs><title>acount</title><g id="Шар_2" data-name="Шар 2"><g id="Шар_1-2" data-name="Шар 1"><g id="iphone"><g id="_8" data-name="8"><g id="Group-4"><g id="Group-5"><g class="cls-2"><path id="Fill-3" class="cls-3" d="M26.67,12a7,7,0,0,0-1.36.13A6.79,6.79,0,0,0,20,17.58a6.92,6.92,0,0,0,1.74,6,1,1,0,0,1-.32,1.56A13,13,0,0,0,13.84,37H39.5a13,13,0,0,0-7.59-11.88,1,1,0,0,1-.33-1.54,6.88,6.88,0,0,0,1.86-4.72A6.81,6.81,0,0,0,26.67,12m0,3h0a3.82,3.82,0,0,1,3.76,3.86,3.89,3.89,0,0,1-1,2.67,4,4,0,0,0-1,3.47,4,4,0,0,0,2.27,2.86A10,10,0,0,1,36,34H17.3a10,10,0,0,1,5.38-6.15A4,4,0,0,0,24,21.52a3.94,3.94,0,0,1-1-3.41,3.8,3.8,0,0,1,2.92-3,4.05,4.05,0,0,1,.78-.08"/></g></g><circle id="Oval" class="cls-4" cx="26.5" cy="26.5" r="25"/></g></g></g></g></g></svg>