<svg xmlns="http://www.w3.org/2000/svg" viewBox="0 0 50.14 31"><defs><style>.cls-1,.cls-4{fill:none;stroke-width:3px;}.cls-1{stroke:#AAC6E3;}.cls-2{fill:#7dc8d2;}.cls-3{fill:#fff;}.cls-4{stroke:#f58c7c;}.cls-5{fill:#f58c7c;}</style></defs><title>vt-chat-2</title><g id="Шар_2" data-name="Шар 2"><g id="Шар_1-2" data-name="Шар 1"><g id="MAIN"><g id="_5" data-name="5"><g id="Group-9"><path id="Stroke-19-Copy" class="cls-1" d="M18.81,7.27A10.73,10.73,0,0,0,4.37,11.5a10.35,10.35,0,0,0-.28,9.45l-1.7,4.19,4.41-.67a10.74,10.74,0,0,0,16.3-3A10.42,10.42,0,0,0,18.81,7.27Z"/><path id="Fill-27-Copy-3" class="cls-2" d="M7.42,17.19A1.5,1.5,0,1,1,8.57,19a1.5,1.5,0,0,1-1.15-1.78"/><path id="Fill-27-Copy-4" class="cls-2" d="M12.42,17.19A1.5,1.5,0,1,1,13.57,19a1.5,1.5,0,0,1-1.15-1.78"/><path id="Fill-27-Copy-5" class="cls-2" d="M16.42,16.19A1.5,1.5,0,1,1,17.57,18a1.5,1.5,0,0,1-1.15-1.78"/><g id="Stroke-19"><path id="path-1" class="cls-3" d="M26,4.51A12.63,12.63,0,0,1,43,9.54a12.4,12.4,0,0,1,.33,11.25l2,5L40.18,25a12.64,12.64,0,0,1-19.27-3.52A12.45,12.45,0,0,1,26,4.51Z"/><path class="cls-4" d="M25.26,3.19A14.13,14.13,0,0,1,44.35,8.83a13.89,13.89,0,0,1,.65,12l2.76,6.84-7.16-1.1A14,14,0,1,1,25.26,3.19Zm0,0h0Z"/></g><path id="Fill-27" class="cls-5" d="M24.42,16.19A1.5,1.5,0,1,1,25.57,18a1.5,1.5,0,0,1-1.15-1.78"/><path id="Fill-27-Copy" class="cls-5" d="M30.42,16.19A1.5,1.5,0,1,1,31.57,18a1.5,1.5,0,0,1-1.15-1.78"/><path id="Fill-27-Copy-2" class="cls-5" d="M36.42,16.19A1.5,1.5,0,1,1,37.57,18a1.5,1.5,0,0,1-1.15-1.78"/></g></g></g></g></g></svg>