<svg xmlns="http://www.w3.org/2000/svg" viewBox="0 0 62 44"><defs><style>.cls-1{fill:#fff;}.cls-2,.cls-3{fill:none;stroke-width:3px;}.cls-2{stroke:#f58c7c;}.cls-3{stroke:#7dc8d2;}.cls-4{fill:#7dc8d2;}.cls-5{fill:#f58c7c;}</style></defs><title>vt-chat-1</title><g id="Шар_2" data-name="Шар 2"><g id="Шар_1-2" data-name="Шар 1"><g id="MAIN"><g id="_7" data-name="7"><g id="Group-7"><g id="Rectangle-8-Copy"><polygon id="path-1" class="cls-1" points="62 14 26 14 26 36.22 47.63 36.22 55.23 44 55.23 36.22 62 36.22 62 14"/><path class="cls-2" d="M60.5,15.5V34.72H53.73v5.6l-5.47-5.6H27.5V15.5Z"/></g><g id="Rectangle-8-Copy-2"><polygon id="path-2" class="cls-1" points="0 0 46 0 46 29.62 18.37 29.62 8.65 40 8.65 29.62 0 29.62 0 0"/><path class="cls-3" d="M1.5,1.5V28.12h8.65V36.2l7.57-8.08H44.5V1.5Z"/></g><circle id="Oval-13" class="cls-4" cx="12" cy="15" r="2"/><circle id="Oval-13-Copy" class="cls-4" cx="23" cy="15" r="2"/><circle id="Oval-13-Copy-2" class="cls-4" cx="33" cy="15" r="2"/><circle id="Oval-13-Copy-3" class="cls-5" cx="52" cy="26" r="2"/></g></g></g></g></g></svg>