<svg xmlns="http://www.w3.org/2000/svg" viewBox="0 0 57.73 32"><defs><style>.cls-1{fill:#fff;}.cls-2,.cls-3{fill:none;stroke-width:3px;}.cls-2{stroke:#AAC6E3;}.cls-3{stroke:#f58c7c;}</style></defs><title>vt-gears</title><g id="Шар_2" data-name="Шар 2"><g id="Шар_1-2" data-name="Шар 1"><g id="MAIN"><g id="_5" data-name="5"><g id="Group-3"><g id="Group-11-Copy"><g id="Combined-Shape"><path id="path-1" class="cls-1" d="M57.21,10.82a12.38,12.38,0,0,1,.44,4.54,2.49,2.49,0,0,0-1.42,4.77,12.38,12.38,0,0,1-2.87,3.58A2.49,2.49,0,0,0,49,26.13a12.37,12.37,0,0,1-5,.52,2.49,2.49,0,0,0-4.72-1.44A12.36,12.36,0,0,1,36,22.61a2.49,2.49,0,0,0-2.52-4.26A12.39,12.39,0,0,1,32.87,13a2.49,2.49,0,0,0,1.48-4.74A12.38,12.38,0,0,1,37.16,4.8a2.49,2.49,0,0,0,4.3-2.4,12.38,12.38,0,0,1,4.87-.55,2.49,2.49,0,0,0,4.77,1.42,12.37,12.37,0,0,1,3.82,3.15,2.49,2.49,0,0,0,2.29,4.4ZM44.9,15.41a1.2,1.2,0,1,0-.8-1.5A1.2,1.2,0,0,0,44.9,15.41Z"/><path class="cls-2" d="M56.05,12.5a4,4,0,0,1-3.17-6.09,10.86,10.86,0,0,0-1.31-1.09,4,4,0,0,1-6.74-2,10.87,10.87,0,0,0-1.71.2,4,4,0,0,1-5.87,3.27,10.87,10.87,0,0,0-.87,1.06,4,4,0,0,1-2.07,6.6,10.88,10.88,0,0,0,.26,2.17A4,4,0,0,1,38,22.5a10.85,10.85,0,0,0,.93.73,4,4,0,0,1,6.47,2,10.86,10.86,0,0,0,1.8-.18,4,4,0,0,1,6.11-3.4,10.87,10.87,0,0,0,.84-1,4,4,0,0,1,2-6.72A10.87,10.87,0,0,0,56.05,12.5Zm-11.6,4.34A2.7,2.7,0,1,1,47.83,15,2.7,2.7,0,0,1,44.46,16.84Z"/></g></g><g id="Group-11"><g id="Combined-Shape-2" data-name="Combined-Shape"><path id="path-2" class="cls-1" d="M29.67,7.12A16.22,16.22,0,0,1,32,12.64a3.26,3.26,0,0,0,0,6.52,16.22,16.22,0,0,1-2.23,5.58,3.26,3.26,0,0,0-4.52,4.7,16.21,16.21,0,0,1-6,2.56,3.26,3.26,0,0,0-6.47,0,16.2,16.2,0,0,1-5.14-2,3.26,3.26,0,0,0-4.79-4.37A16.23,16.23,0,0,1,0,19.16,3.26,3.26,0,0,0,3,15.9a3.26,3.26,0,0,0-3-3.25,16.22,16.22,0,0,1,2.2-5.4A3.26,3.26,0,0,0,6.72,2.6,16.22,16.22,0,0,1,12.61.06a3.26,3.26,0,0,0,3.26,3.16A3.26,3.26,0,0,0,19.13,0a16.21,16.21,0,0,1,6,2.49,3.26,3.26,0,0,0,4.55,4.63ZM16,18.5A2.49,2.49,0,1,0,13.51,16,2.49,2.49,0,0,0,16,18.5Z"/><path class="cls-3" d="M29.11,9.12a4.76,4.76,0,0,1-6-6.1,14.7,14.7,0,0,0-2.86-1.2,4.76,4.76,0,0,1-4.38,2.9,4.76,4.76,0,0,1-4.35-2.83A14.71,14.71,0,0,0,8.67,3.14a4.76,4.76,0,0,1-5.81,6,14.71,14.71,0,0,0-1,2.43A4.76,4.76,0,0,1,4.55,15.9,4.76,4.76,0,0,1,1.8,20.22a14.72,14.72,0,0,0,1.5,3.41,4.76,4.76,0,0,1,6.28,5.73,14.69,14.69,0,0,0,2.2.85,4.76,4.76,0,0,1,8.43,0,14.7,14.7,0,0,0,3-1.25,4.76,4.76,0,0,1,6-6.26,14.71,14.71,0,0,0,1-2.43,4.76,4.76,0,0,1-.06-8.71A14.71,14.71,0,0,0,29.11,9.12ZM16,20a4,4,0,1,1,4-4A4,4,0,0,1,16,20Z"/></g></g></g></g></g></g></g></svg>