<svg xmlns="http://www.w3.org/2000/svg" viewBox="0 0 24.95 24.96"><defs><style>.cls-1{fill:#fff;}.cls-2{fill:none;stroke:#AAC6E3;stroke-width:3px;}</style></defs><title>vt-gear</title><g id="Шар_2" data-name="Шар 2"><g id="Шар_1-2" data-name="Шар 1"><g id="iphone_3" data-name="iphone 3"><g id="_5" data-name="5"><g id="Group-3"><g id="Group-11-Copy"><g id="Combined-Shape"><path id="path-1" class="cls-1" d="M24.43,9.05a12.38,12.38,0,0,1,.44,4.54,2.49,2.49,0,0,0-1.42,4.77,12.38,12.38,0,0,1-2.87,3.58,2.49,2.49,0,0,0-4.35,2.42,12.37,12.37,0,0,1-5,.52,2.49,2.49,0,0,0-4.72-1.44,12.36,12.36,0,0,1-3.31-2.6A2.49,2.49,0,0,0,.71,16.58a12.39,12.39,0,0,1-.63-5.36A2.49,2.49,0,0,0,1.57,6.48,12.38,12.38,0,0,1,4.38,3,2.49,2.49,0,0,0,8.68.63,12.38,12.38,0,0,1,13.55.09,2.49,2.49,0,0,0,18.32,1.5a12.37,12.37,0,0,1,3.82,3.15,2.49,2.49,0,0,0,2.29,4.4ZM12.12,13.64a1.2,1.2,0,1,0-.8-1.5A1.2,1.2,0,0,0,12.12,13.64Z"/><path class="cls-2" d="M23.27,10.73A4,4,0,0,1,20.1,4.64a10.86,10.86,0,0,0-1.31-1.09,4,4,0,0,1-6.74-2,10.87,10.87,0,0,0-1.71.2A4,4,0,0,1,4.46,5a10.87,10.87,0,0,0-.87,1.06,4,4,0,0,1-2.07,6.6,10.88,10.88,0,0,0,.26,2.17,4,4,0,0,1,3.48,5.88,10.85,10.85,0,0,0,.93.73,4,4,0,0,1,6.47,2,10.86,10.86,0,0,0,1.8-.18,4,4,0,0,1,6.11-3.4,10.87,10.87,0,0,0,.84-1,4,4,0,0,1,2-6.72A10.87,10.87,0,0,0,23.27,10.73Zm-11.6,4.34a2.7,2.7,0,1,1,3.37-1.79A2.7,2.7,0,0,1,11.68,15.08Z"/></g></g></g></g></g></g></g></svg>