<svg xmlns="http://www.w3.org/2000/svg" viewBox="0 0 303.99 15.31"><defs><style>.cls-1{fill:#fff;}.cls-2{fill:#1d1d1b;}.cls-3{fill:#aac6e3;}</style></defs><title>vt-logo</title><g id="Шар_2" data-name="Шар 2"><g id="Шар_1-2" data-name="Шар 1"><g id="mask-2-2"><g id="mask-4"><polygon id="path-3" class="cls-1" points="124.53 15.31 140.7 15.31 140.7 0.01 124.53 0.01 124.53 15.31"/></g></g><g id="mask"><g id="mask-2"><polygon id="path-1" class="cls-1" points="39.82 15.31 55.98 15.31 55.98 0.01 39.82 0.01 39.82 15.31"/></g></g><g id="Шар_2-2" data-name="Шар 2"><g id="Шар_1-2-2" data-name="Шар 1-2"><g id="Page-1"><g id="_1366_1_-copy-12" data-name=" 1366 1 -copy-12"><g id="Group-3"><g id="Group-18-Copy-3"><g id="Page-1-Copy-22"><polygon id="Fill-1" class="cls-2" points="300.16 0.43 295.87 8.07 291.59 0.43 287.72 0.43 287.72 14.79 291.31 14.79 291.31 6.16 294.99 12.62 296.73 12.62 300.41 6.16 300.41 14.79 303.99 14.79 303.99 0.43 300.16 0.43"/><g id="Group-26"><path id="Fill-2" class="cls-2" d="M8.85,10.46q0-1.79-2.64-1.79H3.79V12h2.7Q8.85,12,8.85,10.46ZM8.26,4.7q0-1.46-2.17-1.46H3.79v3h2A3.18,3.18,0,0,0,7.6,5.78,1.31,1.31,0,0,0,8.26,4.7Zm4.57,6.08a3.55,3.55,0,0,1-1.21,2.73,5.85,5.85,0,0,1-4.09,1.3H0V.45H6.38A6.58,6.58,0,0,1,10.6,1.6a3,3,0,0,1,1.19,2.48,2.64,2.64,0,0,1-2,2.82A3.7,3.7,0,0,1,12.83,10.78Z"/><g id="Group-6"><path id="Fill-4" class="cls-2" d="M51.94,7.64a4.05,4.05,0,0,0-6.92-3l0,0a4,4,0,0,0-1.16,2.93,4,4,0,0,0,6.89,3l0,0a4.09,4.09,0,0,0,1.16-2.94m4,0A7.27,7.27,0,0,1,53.69,13,8.51,8.51,0,0,1,42.1,13a7.24,7.24,0,0,1-2.28-5.39A7.18,7.18,0,0,1,42.1,2.28a8.55,8.55,0,0,1,11.59,0A7.18,7.18,0,0,1,56,7.64"/></g><path id="Fill-7" class="cls-2" d="M97.55,14.81H93.68V3.74H89.32V10q0,5.18-3.88,5.18A9.46,9.46,0,0,1,83,14.81l.29-3.23a2.56,2.56,0,0,0,1.09.21,1.07,1.07,0,0,0,1-.43,3.75,3.75,0,0,0,.33-1.89v-9H97.55Z"/><g id="Group-11"><path id="Fill-9" class="cls-2" d="M136.66,7.64a4,4,0,0,0-6.92-2.94h0a4,4,0,0,0-1.16,2.93,4,4,0,0,0,6.89,3l0,0a4.08,4.08,0,0,0,1.16-2.94m4,0A7.27,7.27,0,0,1,138.41,13a8.51,8.51,0,0,1-11.59,0,7.24,7.24,0,0,1-2.28-5.39,7.18,7.18,0,0,1,2.28-5.36,8.55,8.55,0,0,1,11.59,0,7.18,7.18,0,0,1,2.28,5.36"/></g><polygon id="Fill-12" class="cls-2" points="181.36 14.81 177.5 14.81 177.5 8.87 171.55 8.87 171.55 14.81 167.68 14.81 167.68 0.45 171.55 0.45 171.55 5.85 177.5 5.85 177.5 0.45 181.36 0.45 181.36 14.81"/><polygon id="Fill-14" class="cls-2" points="219.77 3.74 216.03 3.74 216.03 14.81 212.11 14.81 212.11 3.74 208.35 3.74 208.35 0.45 219.77 0.45 219.77 3.74"/><polygon id="Fill-16" class="cls-2" points="260.73 14.81 256.93 14.81 256.93 5.73 250.55 14.81 246.75 14.81 246.75 0.45 250.55 0.45 250.55 9.52 256.93 0.45 260.73 0.45 260.73 14.81"/><polygon id="Fill-18" class="cls-3" points="19.54 8.88 33.1 8.88 33.1 5.85 19.54 5.85 19.54 8.88"/><polygon id="Fill-20" class="cls-3" points="62.69 8.88 76.25 8.88 76.25 5.85 62.69 5.85 62.69 8.88"/><polygon id="Fill-21" class="cls-3" points="104.26 8.88 117.82 8.88 117.82 5.85 104.26 5.85 104.26 8.88"/><polygon id="Fill-22" class="cls-3" points="147.41 8.88 160.97 8.88 160.97 5.85 147.41 5.85 147.41 8.88"/><polygon id="Fill-23" class="cls-3" points="188.07 8.88 201.63 8.88 201.63 5.85 188.07 5.85 188.07 8.88"/><polygon id="Fill-24" class="cls-3" points="226.48 8.88 240.04 8.88 240.04 5.85 226.48 5.85 226.48 8.88"/><polygon id="Fill-25" class="cls-3" points="267.45 8.88 281.01 8.88 281.01 5.85 267.45 5.85 267.45 8.88"/></g></g></g></g></g></g></g></g></g></g></svg>