<?xml version="1.0" encoding="UTF-8"?>
<svg width="22px" height="20px" viewBox="0 0 22 20" version="1.1" xmlns="http://www.w3.org/2000/svg" xmlns:xlink="http://www.w3.org/1999/xlink">
    <!-- Generator: Sketch 48.2 (47327) - http://www.bohemiancoding.com/sketch -->
    <title>Slice 1</title>
    <desc>Created with Sketch.</desc>
    <defs></defs>
    <g id="Page-1" stroke="none" stroke-width="1" fill="none" fill-rule="evenodd">
        <g id="vt-man" transform="translate(1.000000, 1.000000)" stroke="#AAC6E3" stroke-width="3">
            <path d="M0.82,16.87 L18.54,16.87 C18.04,14.3 16.23,12.31 13.36,11.06 C12.6755499,10.7712158 12.1777577,10.1632005 12.0297603,9.43521356 C11.881763,8.70722662 12.102638,7.9531086 12.62,7.42 C13.3176324,6.71027262 13.7090009,5.75518989 13.71,4.76 C13.6504108,2.59393466 11.8768847,0.869180496 9.71,0.87 C9.43143633,0.870570648 9.1535445,0.897355403 8.88,0.95 C7.30896394,1.24219888 6.06257764,2.44140336 5.71,4 C5.46556126,5.2256913 5.8394608,6.49321075 6.71,7.39 C7.24258575,7.91852686 7.47666381,8.67775999 7.33414795,9.41442644 C7.1916321,10.1510929 6.69127837,10.7682425 6,11.06 C3.13,12.31 1.32,14.3 0.82,16.87 Z" id="Fill-3"></path>
        </g>
    </g>
</svg>