<svg xmlns="http://www.w3.org/2000/svg" viewBox="0 0 53 53"><defs><style>.cls-1{fill:#f58c7c;}.cls-2{fill:none;stroke:#aac6e3;stroke-width:3px;}</style></defs><title>accaunt</title><g id="Шар_2" data-name="Шар 2"><g id="Шар_1-2" data-name="Шар 1"><g id="Page-1"><g id="acount"><g id="Group-5"><path id="Fill-3" class="cls-1" d="M26.67,12a7,7,0,0,0-1.36.13A6.79,6.79,0,0,0,20,17.58a6.92,6.92,0,0,0,1.74,6,1,1,0,0,1-.32,1.56A13,13,0,0,0,13.84,37H39.5a13,13,0,0,0-7.59-11.88,1,1,0,0,1-.33-1.54,6.88,6.88,0,0,0,1.86-4.72A6.81,6.81,0,0,0,26.67,12m0,3a3.82,3.82,0,0,1,3.76,3.86,3.89,3.89,0,0,1-1,2.67,4,4,0,0,0,1.27,6.33A10,10,0,0,1,36,34H17.3a10,10,0,0,1,5.38-6.15A4,4,0,0,0,24,21.52a3.94,3.94,0,0,1-1-3.41,3.8,3.8,0,0,1,2.92-3A4.05,4.05,0,0,1,26.7,15"/></g><circle id="Oval" class="cls-2" cx="26.5" cy="26.5" r="25"/></g></g></g></g></svg>