<svg xmlns="http://www.w3.org/2000/svg" viewBox="0 0 47 47"><defs><style>.cls-1{fill:#fff;stroke:#f58c7c;stroke-width:3px;}.cls-2{fill:#7dc8d2;}</style></defs><title>vtmassage</title><g id="Шар_2" data-name="Шар 2"><g id="Шар_1-2" data-name="Шар 1"><g id="iphone"><g id="_8" data-name="8"><g id="Group-12"><path id="Combined-Shape" class="cls-1" d="M13.08,42.88,4.5,44.5l.66-8.85a22,22,0,1,1,7.92,7.23Z"/><g id="Group-2"><g id="Telegram"><g id="telegram-2" data-name="telegram"><path id="_Складений_контур_" data-name="&lt;Складений контур&gt;" class="cls-2" d="M8.92,24l5.53,2.17,2.14,7.25a.64.64,0,0,0,1,.33l3.08-2.65a.88.88,0,0,1,1.12,0l5.56,4.25a.64.64,0,0,0,1-.41l4.07-20.63a.66.66,0,0,0-.87-.78L8.92,22.77A.7.7,0,0,0,8.92,24Zm7.33,1,10.81-7c.19-.13.39.15.23.31L18.37,27.1a2,2,0,0,0-.57,1.16l-.3,2.37a.28.28,0,0,1-.55,0l-1.17-4.32A1.17,1.17,0,0,1,16.25,25.07Z"/></g></g></g></g></g></g></g></g></svg>