<svg xmlns="http://www.w3.org/2000/svg" viewBox="0 0 21.36 19"><defs><style>.cls-1{fill:none;stroke:#aac6e3;stroke-width:3px;}</style></defs><title>vtman</title><g id="Шар_2" data-name="Шар 2"><g id="Шар_1-2" data-name="Шар 1"><g id="Page-1"><g id="vt-man"><path id="Fill-3" class="cls-1" d="M1.82,17.5H19.54c-.5-2.57-2.31-4.56-5.18-5.81a2.25,2.25,0,0,1-.74-3.64,3.8,3.8,0,0,0,1.09-2.66,4,4,0,0,0-4-3.89,4.44,4.44,0,0,0-.83.08A4,4,0,0,0,6.71,4.63,3.8,3.8,0,0,0,7.71,8,2.25,2.25,0,0,1,7,11.69C4.13,12.94,2.32,14.93,1.82,17.5Z"/></g></g></g></g></svg>