<svg xmlns="http://www.w3.org/2000/svg" viewBox="0 0 115.4 31.18"><defs><style>.cls-1,.cls-2{fill:none;stroke-width:3px;}.cls-1{stroke:#f58c7c;}.cls-2{stroke:#aac6e3;}</style></defs><title>vtstars</title><g id="Шар_2" data-name="Шар 2"><g id="Шар_1-2" data-name="Шар 1"><g id="MAIN"><g id="_7" data-name="7"><g id="Group-10"><polygon id="Star-2" class="cls-1" points="16.2 24.15 8.16 28.42 9.7 19.37 3.2 12.97 12.18 11.65 16.2 3.42 20.22 11.65 29.2 12.97 22.7 19.37 24.23 28.42 16.2 24.15"/><polygon id="Star-2-Copy" class="cls-2" points="57.2 24.15 49.16 28.42 50.7 19.37 44.2 12.97 53.18 11.65 57.2 3.42 61.22 11.65 70.2 12.97 63.7 19.37 65.23 28.42 57.2 24.15"/><polygon id="Star-2-Copy-2" class="cls-2" points="99.2 24.15 91.16 28.42 92.7 19.37 86.2 12.97 95.18 11.65 99.2 3.42 103.22 11.65 112.2 12.97 105.7 19.37 107.23 28.42 99.2 24.15"/></g></g></g></g></g></svg>